<svg width="585" height="440" viewBox="0 0 585 440" fill="none" xmlns="http://www.w3.org/2000/svg">
<path d="M100.22 416.544C100.22 416.544 27.3924 364.683 6.42682 276.407C-14.5395 188.131 17.4606 81.0963 78.1507 27.027C138.84 -27.041 248.082 9.37232 296.634 54.6137C345.184 99.855 345.184 99.855 345.184 99.855C345.184 99.855 391.53 125.234 452.22 123.027C512.91 120.82 566.978 203.579 581.323 268.683C595.667 333.786 561.46 419.854 561.46 419.854L100.22 416.544" fill="#D1EBFA"/>
<path d="M58.8403 424.375C43.8908 413.546 13.0168 386.051 3.1163 338.199C-0.992504 318.34 1.69909 299.01 7.53043 280.839C22.1154 336.82 57.2835 377.632 79.8638 399.166H58.8403V424.375ZM569.667 399.166H568.568C573.939 381.856 580.843 355.566 583.61 327.614C585.243 342.183 583.879 357.294 579.115 374.614C576.464 384.255 573.18 392.371 569.667 399.166V399.166ZM549.187 191.823C525.082 153.455 491.127 122.984 454.6 122.984C453.81 122.984 453.012 122.999 452.22 123.027C449.69 123.119 447.19 123.163 444.712 123.163C387.751 123.163 345.184 99.855 345.184 99.855C345.184 99.855 345.184 99.855 296.634 54.6137C294.002 52.1617 291.188 49.731 288.218 47.3444C315.427 33.2697 347.668 3.15901 394.63 3.15901C401.039 3.15901 407.72 3.71901 414.703 4.95901C483.115 17.0963 549.323 53.5097 552.634 132.959C553.758 159.954 551.571 178.031 549.187 191.823" fill="#D1EAF9"/>
<path d="M568.568 399.166H473.412C482.654 374.603 492.939 340.035 489.902 313.923C484.64 268.683 459.38 225.648 407.807 192.544C388.263 179.999 357.535 170.782 324.098 168.796C326.139 156.336 326.23 143.199 325.599 136.268C324.496 124.131 318.703 114.199 318.703 114.199C318.703 114.199 307.811 108.022 293.888 108.022C289.675 108.022 285.183 108.588 280.634 110.062C261.047 116.406 254.151 146.751 256.358 162.751C256.987 167.311 258.126 171.23 259.634 174.672C225.922 183.442 194.888 202.048 175.206 234.475C146.307 282.087 148.142 332.119 155.898 367.495V399.166H79.8636C57.2833 377.632 22.1152 336.82 7.53027 280.839C20.4917 240.452 48.9661 205.787 52.7709 183.716C58.2885 151.716 46.1506 111.992 96.9096 81.0963C147.667 50.199 238.151 61.2337 272.358 53.5097C277.494 52.3497 282.754 50.171 288.218 47.3443C291.188 49.731 294.002 52.1617 296.634 54.6137C345.184 99.855 345.184 99.855 345.184 99.855C345.184 99.855 387.751 123.163 444.712 123.163C447.19 123.163 449.69 123.119 452.22 123.027C453.012 122.999 453.81 122.984 454.6 122.984C491.127 122.984 525.082 153.455 549.187 191.823C544.556 218.62 539.188 229.236 555.943 257.648C571.364 283.796 581.082 305.055 583.61 327.614C580.843 355.566 573.939 381.856 568.568 399.166" fill="#B0D6F2"/>
<path d="M473.412 399.166H380.764C382.306 393.619 386.012 373.235 386.012 373.235C386.012 373.235 354.564 346.292 352.91 341.878C351.806 338.935 352.358 284.407 347.667 259.303C342.978 234.199 336.91 229.142 324.22 222.89C311.106 216.427 291.667 210.383 291.667 210.383C291.667 210.383 295.53 219.303 299.115 240.268C302.703 261.235 306.012 296.544 306.84 320.82C307.591 342.831 308.114 390.466 308.206 399.166H269.196C269.859 392.938 272.463 367.616 271.254 364.959C270.722 363.786 257.847 363.108 242.243 362.716V263.166C242.243 263.166 226.375 262.058 209.107 262.058C192.991 262.058 175.655 263.023 168.863 266.751C154.795 274.475 155.898 301.235 155.898 301.235V367.495C148.142 332.119 146.307 282.087 175.206 234.475C194.888 202.048 225.922 183.442 259.634 174.672C259.784 175.015 259.938 175.354 260.095 175.687C258.988 184.484 256.811 200.942 255.806 202.751C254.427 205.234 254.427 205.234 254.427 205.234L247.53 209.924C247.53 209.924 260.771 228.683 277.047 231.716C279.258 232.13 281.142 232.307 282.748 232.307C292.974 232.307 291.943 225.096 291.943 225.096L289.46 219.855L291.626 201.098C293.323 201.36 295.048 201.503 296.768 201.503C303.918 201.503 310.987 199.06 315.667 192.82C319.928 187.139 322.564 178.159 324.098 168.796C357.535 170.782 388.263 179.999 407.807 192.544C459.38 225.648 484.64 268.683 489.902 313.923C492.939 340.035 482.654 374.603 473.412 399.166" fill="#95C3EB"/>
<path d="M536.22 259.395H476.724C473.044 259.395 470.058 256.41 470.058 252.728V223.027C470.058 219.346 473.044 216.36 476.724 216.36H536.22C539.902 216.36 542.887 219.346 542.887 223.027V252.728C542.887 256.41 539.902 259.395 536.22 259.395Z" fill="#599FDC"/>
<path d="M506.472 276.223L515.9 253.878H497.044L506.472 276.223Z" fill="#599FDC"/>
<path d="M506.247 230.488H523.278V232.98L531.627 228.166L523.278 223.352V225.844H506.247V230.488Z" fill="#293D8A"/>
<path d="M531.627 240.282H514.596V237.79L506.247 242.603L514.596 247.416V244.924H531.627V240.282" fill="white"/>
<path d="M495.794 244.662L494.983 244.958C494.983 244.958 492.456 242.072 491.144 238.93C489.832 235.788 489.787 231.951 489.787 231.951L490.38 231.703L486.778 223.084C486.136 223.586 485.524 224.231 485.03 225.067C482.992 228.511 483.194 233.796 485.244 238.96C487.294 244.123 489.486 248.728 493.486 251.624C495.846 253.334 497.868 253.632 499.439 253.384L495.794 244.662" fill="#293D8A"/>
<path d="M498.38 243.647L497.26 244.054L500.946 252.878C501.363 252.742 501.736 252.574 502.06 252.396C503.012 251.875 503.431 250.73 503.03 249.722L501.104 244.87C500.676 243.794 499.47 243.25 498.38 243.647Z" fill="#293D8A"/>
<path d="M489.594 221.574C489.14 221.736 488.647 221.958 488.151 222.25L491.828 231.052L493.066 230.535C494.14 230.087 494.66 228.863 494.236 227.779L492.303 222.816C491.884 221.739 490.682 221.18 489.594 221.574Z" fill="#293D8A"/>
<path d="M155.898 400.544V301.235C155.898 301.235 154.795 274.475 168.863 266.751C182.932 259.027 242.243 263.166 242.243 263.166V400.544H155.898" fill="#3A76C4"/>
<path d="M260.771 170.199C260.771 170.199 257.186 200.268 255.806 202.751C254.427 205.234 254.427 205.234 254.427 205.234L247.53 209.924C247.53 209.924 260.771 228.683 277.047 231.716C293.323 234.751 291.943 225.096 291.943 225.096L289.46 219.855L292.772 191.164C292.772 191.164 263.254 177.648 260.771 170.199" fill="#F57C83"/>
<path d="M238.978 212.407L249.736 207.716C249.736 207.716 256.634 219.027 272.634 225.648C288.634 232.268 288.91 228.407 289.736 225.648C290.564 222.89 289.46 219.855 289.46 219.855L290.644 210.196L297.043 212.328L319.254 391.992L262.151 394.751L238.978 212.407" fill="white"/>
<path d="M291.667 210.383C291.667 210.383 295.53 219.303 299.115 240.268C302.703 261.235 306.012 296.544 306.84 320.82C307.667 345.096 308.22 400.544 308.22 400.544C308.22 400.544 379.391 400.544 380.22 400.544C381.047 400.544 386.012 373.235 386.012 373.235C386.012 373.235 354.564 346.292 352.91 341.878C351.806 338.935 352.358 284.407 347.667 259.303C342.978 234.199 336.91 229.142 324.22 222.89C311.106 216.427 291.667 210.383 291.667 210.383" fill="#293D8A"/>
<path d="M329.185 368.935C328.817 368.935 328.518 368.636 328.518 368.268C328.518 366.296 328.167 338.274 327.83 311.174C327.49 284.07 327.139 256.043 327.139 254.062C327.139 253.692 327.438 253.395 327.806 253.395C328.174 253.395 328.472 253.692 328.472 254.062C328.472 256.034 328.823 284.056 329.162 311.156C329.5 338.26 329.851 366.287 329.851 368.268C329.851 368.636 329.554 368.935 329.185 368.935" fill="#788CBD"/>
<path d="M185.736 362.199L185.186 400.544H269.047C269.047 400.544 272.634 367.992 271.254 364.959C269.875 361.923 185.736 362.199 185.736 362.199" fill="#293D8A"/>
<path d="M290.803 208.226C287.162 206.89 282.487 204.679 279.07 201.924C273.083 197.098 269.249 191.348 266.763 185.708C269.53 188.854 272.591 191.575 275.667 194.199C279.563 197.522 285.409 200.131 291.626 201.098L290.803 208.226" fill="#945168"/>
<path d="M318.703 114.199C318.703 114.199 324.497 124.131 325.599 136.268C326.703 148.407 325.599 179.579 315.667 192.82C305.737 206.062 285.047 202.199 275.667 194.199C267.061 186.858 258.565 178.751 256.358 162.751C254.151 146.751 261.047 116.406 280.634 110.062C300.219 103.716 318.703 114.199 318.703 114.199Z" fill="#F57C83"/>
<path d="M343.588 383.202C343.588 383.202 342.615 383.202 341.135 383.162C340.788 383.148 340.402 383.162 340 383.148C338.575 383.108 336.842 383.07 335.095 383.016C334.708 383.002 334.308 382.988 333.922 382.975C332.188 382.935 330.708 383.148 329.322 383.07H329.282C328.988 383.055 328.562 383.095 328.215 383.108C328.042 383.123 327.882 383.135 327.775 383.123C326.975 382.975 326.815 382.79 325.948 382.403C324.828 381.895 309.667 378.51 297.334 378.588C285.015 378.642 273.962 379.482 272.162 377.975C270.348 376.442 269.255 360.963 279.775 359.948L292.708 364.855C292.708 364.855 322.242 361.35 333.068 369.335C343.922 377.322 343.588 383.202 343.588 383.202" fill="#F57C83"/>
<path d="M329.282 383.07C328.989 383.055 328.562 383.095 328.215 383.108C327.949 382.683 327.387 381.908 327.082 381.588C323.749 378.188 315.695 375.988 312.775 375.282C312.509 375.215 312.334 374.948 312.402 374.683C312.455 374.415 312.735 374.255 313.015 374.308C317.269 375.335 326.295 377.963 328.855 382.268C328.935 382.388 329.149 382.802 329.282 383.07" fill="#293D8A"/>
<path d="M335.099 383.015C334.712 383.006 334.312 382.995 333.926 382.972C330.286 376.335 324.331 374.43 316.972 372.063L316.536 371.918C316.284 371.832 316.131 371.548 316.219 371.284C316.304 371.032 316.575 370.879 316.852 370.966L317.275 371.11C325.056 373.607 331.318 375.614 335.099 383.015" fill="#293D8A"/>
<path d="M341.136 383.162C340.79 383.152 340.403 383.156 340.002 383.147C337.795 378.506 330.49 370.739 320.824 368.928C320.546 368.882 320.364 368.624 320.411 368.346C320.471 368.079 320.728 367.9 320.995 367.947C330.951 369.816 338.983 377.948 341.136 383.162Z" fill="#293D8A"/>
<path d="M262.978 149.096C262.978 149.096 269.047 146.199 273.323 138.062C277.599 129.924 277.047 122.614 277.047 122.614C277.047 122.614 284.771 121.372 296.358 124.82C307.943 128.268 321.737 132.959 333.323 126.338C344.91 119.716 344.91 109.096 339.254 104.683C332.921 99.739 320.358 102.751 320.358 102.751C320.358 102.751 325.185 98.0617 322.565 95.303C319.943 92.5443 310.427 96.131 310.427 96.131C310.427 96.131 298.841 86.8897 276.91 87.9923C254.978 89.0963 244.495 104.407 243.254 121.51C242.013 138.614 248.221 155.716 248.221 155.716L262.978 149.096" fill="#293D8A"/>
<path d="M307.895 177.232C307.642 177.232 307.377 177.226 307.095 177.214C305.471 177.151 303.43 176.883 302.037 176.011C301.625 175.752 301.781 175.079 302.286 175.079C302.287 175.079 302.287 175.079 302.289 175.079C303.155 175.083 304.002 175.344 304.867 175.41C305.671 175.468 306.485 175.503 307.29 175.54C307.758 175.562 308.313 175.604 308.878 175.604C309.725 175.604 310.59 175.508 311.206 175.1C313.899 173.318 308.663 171.118 307.555 170.302C305.238 168.594 305.703 165.644 305.946 163.115C306.259 159.863 306.229 156.306 307.471 153.242C307.561 153.023 307.79 152.907 308.002 152.907C308.242 152.907 308.462 153.055 308.434 153.372C308.083 157.276 307.181 161.13 306.935 165.052C306.831 166.684 306.711 168.444 308.171 169.49C309.225 170.244 310.505 170.604 311.549 171.378C312.454 172.05 313.357 173.128 313.195 174.331C313.054 175.4 312.182 176.031 311.282 176.478C310.074 177.078 309.111 177.232 307.895 177.232" fill="#945168"/>
<path d="M318.747 162.415C318.335 164.74 316.644 166.384 314.968 166.088C313.294 165.792 312.27 163.666 312.68 161.342C313.092 159.016 314.783 157.371 316.459 157.667C318.134 157.963 319.159 160.09 318.747 162.415" fill="#293D8A"/>
<path d="M297.639 160.572C297.266 163.082 295.499 164.896 293.691 164.628C291.883 164.359 290.72 162.107 291.094 159.599C291.467 157.09 293.235 155.274 295.043 155.543C296.85 155.812 298.012 158.064 297.639 160.572" fill="#293D8A"/>
<path d="M313.832 152.83C315.122 153.047 316.423 152.824 317.723 152.916C318.036 152.938 318.344 152.984 318.658 153.015C318.879 153.035 318.243 152.948 318.552 152.999L318.751 153.032C318.914 153.062 319.076 153.095 319.236 153.134C319.514 153.202 319.782 153.306 320.059 153.367C320.311 153.422 320.591 153.48 320.844 153.468C320.987 153.45 321.127 153.431 321.27 153.411L321.002 153.46L321.53 153.403C322.27 153.23 322.726 152.374 322.519 151.659C322.459 151.454 322.368 151.267 322.238 151.098L322.068 150.883L322.224 151.062L322.054 150.835C321.98 150.712 321.883 150.614 321.759 150.54L321.447 150.303C321.106 150.066 320.656 149.927 320.251 149.823C319.482 149.624 318.674 149.523 317.882 149.519C317.092 149.515 316.314 149.598 315.534 149.706C314.846 149.8 314.08 150.035 313.522 150.45C313.091 150.771 312.826 151.183 312.9 151.747C312.963 152.214 313.331 152.744 313.832 152.83" fill="#293D8A"/>
<path d="M299.119 149.139C298.944 149.035 298.766 148.944 298.58 148.86C298.424 148.79 297.998 148.566 298.32 148.742L297.966 148.552C297.431 148.283 296.876 148.103 296.299 147.956C295.04 147.635 293.715 147.554 292.424 147.69C291.047 147.835 289.79 148.168 288.596 148.887C288.428 148.99 288.255 149.088 288.115 149.228C288.02 149.348 287.927 149.47 287.836 149.592L287.915 149.472C287.547 149.73 287.332 150.151 287.336 150.596C287.339 151.024 287.562 151.382 287.934 151.588C288.383 151.839 288.81 151.719 289.274 151.6C289.04 151.6 288.807 151.6 288.575 151.6C288.958 151.659 289.227 151.675 289.614 151.59C289.628 151.587 289.986 151.498 289.75 151.547C289.528 151.595 290.126 151.502 290.191 151.492C290.267 151.482 290.682 151.44 290.243 151.483L290.486 151.455C290.692 151.43 290.902 151.403 291.11 151.387C292.02 151.314 292.928 151.272 293.84 151.243C294.687 151.215 295.55 151.208 296.395 151.244C296.759 151.26 297.119 151.272 297.483 151.283C297.686 151.288 297.6 151.32 297.46 151.276L297.687 151.335C297.838 151.376 297.986 151.426 298.131 151.482C298.72 151.706 299.426 151.28 299.643 150.739C299.88 150.15 299.679 149.472 299.119 149.139" fill="#293D8A"/>
<path d="M305.668 187.487C306.935 184.942 309.238 183.076 311.9 181.876C309.59 181.642 298.676 180.631 295.923 182.195C292.838 183.946 296.494 190.979 302.872 191.332C303.543 191.37 304.152 191.315 304.732 191.224C304.784 189.94 305.08 188.67 305.668 187.487" fill="#293D8A"/>
<path d="M255.254 172.683C255.254 172.683 256.358 176.959 262.702 181.924C269.047 186.89 278.243 190.522 278.243 190.522L278.978 187.303C278.978 187.303 269.461 183.164 265.047 178.614C260.634 174.062 260.082 171.579 260.082 171.579L255.254 172.683" fill="#D6DCEB"/>
<path d="M280.082 184.922C285.188 184.684 288.038 188.722 288.394 191.334C288.75 193.947 286.296 196.876 280.556 194.303C273.427 191.107 274.976 185.159 280.082 184.922Z" fill="#293D8A"/>
<path d="M259.254 141.096C259.254 141.096 261.459 125.243 272.082 114.475C292.358 93.9243 309.599 95.1643 309.599 95.1643C309.599 95.1643 309.46 92.2683 302.978 90.0616C296.891 87.9896 294.151 89.0963 294.151 89.0963C294.151 89.0963 277.46 90.475 263.392 106.062C249.323 121.648 247.806 141.51 247.806 141.51L259.254 141.096" fill="#D6DCEB"/>
<path d="M257.736 139.164C244.454 136.914 237.047 147.303 236.495 157.786C235.943 168.268 243.56 176.238 253.736 175.44C276.634 173.648 274.012 141.924 257.736 139.164" fill="white"/>
<path d="M251.123 165.254C247.616 165.254 244.652 163.491 242.959 160.388C241.144 157.064 241.296 152.972 243.347 149.963C243.503 149.738 243.812 149.678 244.042 149.832C244.27 149.988 244.33 150.299 244.174 150.527C242.332 153.228 242.2 156.911 243.836 159.908C245.39 162.754 248.131 164.366 251.378 164.25C254.412 164.168 256.984 162.78 258.62 160.34C260.487 157.555 260.916 153.71 259.714 150.544C258.52 147.403 255.248 145.262 252.274 145.651C252.004 145.686 251.748 145.495 251.712 145.22C251.675 144.947 251.867 144.696 252.142 144.659C255.622 144.195 259.276 146.574 260.648 150.188C261.963 153.648 261.492 157.851 259.451 160.896C257.63 163.614 254.772 165.159 251.404 165.25L251.123 165.254" fill="#7588BB"/>
<path d="M241.46 208.544C241.46 208.544 201.186 218.475 187.116 234.475C173.047 250.475 166.427 329.372 166.151 343.992C165.875 358.614 176.082 364.683 182.151 368.82C188.22 372.959 214.978 380.407 236.495 381.511C258.012 382.614 278.427 381.511 278.427 381.511C278.427 381.511 278.358 376.82 281.667 369.923C284.738 363.527 288.634 362.199 288.634 362.199L270.151 355.579C270.151 355.579 266.915 297.587 261.875 269.511C256.082 237.234 241.46 208.544 241.46 208.544" fill="#293D8A"/>
<path d="M308.22 346.314L307.95 346.256C307.612 346.107 307.46 345.714 307.61 345.378C311.384 336.863 315.294 320.148 317.496 308.422L317.676 307.474C318.343 304.024 319.172 299.735 317.518 296.774C316.674 295.263 314.768 291.986 312.935 288.835C311.032 285.564 309.235 282.474 308.736 281.552C307.766 279.751 310.824 274.94 315.252 268.342C316.447 266.558 317.482 265.018 318.084 263.975C319.663 261.244 318.611 258.743 317.395 255.847L316.982 254.85C315.879 252.142 314.624 249.43 313.414 246.807C312.919 245.736 312.423 244.663 311.935 243.584C311.287 242.159 310.638 240.708 309.979 239.242C306.08 230.551 302.05 221.566 296.887 212.884C296.699 212.568 296.803 212.159 297.119 211.971C297.436 211.784 297.844 211.887 298.034 212.204C303.234 220.95 307.28 229.971 311.195 238.695C311.852 240.162 312.502 241.61 313.148 243.035C313.636 244.11 314.13 245.18 314.623 246.248C315.842 248.884 317.102 251.611 318.216 254.347L318.624 255.331C319.866 258.284 321.148 261.339 319.238 264.642C318.612 265.724 317.568 267.282 316.359 269.083C314.051 272.524 309.246 279.687 309.91 280.918C310.398 281.822 312.19 284.903 314.087 288.164C315.924 291.323 317.835 294.608 318.682 296.123C320.575 299.51 319.694 304.066 318.987 307.727L318.806 308.667C318.003 312.938 313.755 334.803 308.83 345.916C308.719 346.167 308.475 346.314 308.22 346.314" fill="#788CBD"/>
<path d="M268.91 348.659C268.738 348.659 268.566 348.594 268.437 348.463C265.302 345.303 250.185 319.128 249.059 314.206C248.443 311.511 249.99 304.676 251.486 298.066C252.645 292.944 253.843 287.648 253.502 286.215C252.993 284.072 249.127 280.914 245.389 277.86C240.873 274.172 236.203 270.356 235.299 266.92C234.271 263.015 235.15 238.566 235.731 222.388C235.941 216.571 236.106 211.976 236.105 210.338C236.105 209.97 236.403 209.671 236.771 209.671C237.139 209.671 237.438 209.968 237.438 210.336C237.439 212 237.274 216.606 237.063 222.436C236.521 237.558 235.611 262.864 236.589 266.582C237.383 269.598 242.085 273.439 246.233 276.828C250.323 280.17 254.186 283.326 254.799 285.907C255.211 287.64 254.087 292.608 252.786 298.359C251.391 304.523 249.811 311.508 250.359 313.908C251.463 318.735 266.305 344.42 269.383 347.522C269.642 347.784 269.641 348.206 269.379 348.464C269.249 348.594 269.079 348.659 268.91 348.659" fill="#788CBD"/>
<path d="M214.703 337.211L214.61 337.204C214.244 337.152 213.991 336.815 214.042 336.451C214.531 332.983 222.184 263.916 222.535 258.627C222.56 258.258 222.878 257.97 223.246 258.006C223.612 258.03 223.89 258.348 223.866 258.715C223.514 264.014 215.852 333.166 215.362 336.638C215.315 336.97 215.03 337.211 214.703 337.211" fill="#788CBD"/>
<path d="M269.599 355.968L269.349 355.92C267.653 355.234 260.161 352.706 250.675 349.508C231.531 343.051 205.311 334.21 200.326 331.619C199.999 331.45 199.873 331.047 200.042 330.72C200.211 330.392 200.611 330.262 200.941 330.436C205.835 332.979 233.077 342.166 251.102 348.243C260.609 351.451 268.117 353.982 269.85 354.684C270.191 354.823 270.355 355.211 270.217 355.552C270.111 355.811 269.862 355.968 269.599 355.968" fill="#788CBD"/>
<path d="M260.392 383.47C243.544 383.47 210.88 380.432 186.067 371.656C185.719 371.532 185.538 371.152 185.66 370.804C185.782 370.459 186.167 370.276 186.511 370.399C217.858 381.487 261.708 383.38 269.867 381.548C270.226 381.471 270.582 381.695 270.663 382.054C270.744 382.412 270.518 382.77 270.159 382.851C268.392 383.246 264.978 383.47 260.392 383.47" fill="#788CBD"/>
<path d="M67.5482 217.847C72.7789 222.447 79.4034 225.396 83.9936 230.716C85.7992 232.81 87.4216 235.038 89.0988 237.232C90.3192 238.83 93.5765 241.479 94.1045 243.487C94.3378 244.371 94.2885 243.174 94.0538 242.287L94.0152 242.176C93.5565 238.111 93.2285 234.03 93.0858 229.94C92.9432 225.862 93.1978 221.767 92.9418 217.695C92.5818 211.95 90.7885 206.387 86.0925 202.788C83.7972 201.028 80.8477 199.958 78.7373 198.006C76.7346 196.152 77.5382 194.03 78.7158 191.963C79.8174 190.028 81.1534 188.128 81.5825 185.902C82.0706 183.371 81.1196 180.76 79.8357 178.606C77.1045 174.019 71.0456 168.906 65.3086 169.591C60.5232 170.163 59.981 175.683 60.0492 179.528C60.1158 183.267 60.4857 186.994 60.5212 190.735C60.5586 194.578 59.9049 198.348 59.8502 202.174C59.7576 208.682 62.7644 213.64 67.5482 217.847" fill="#60A6DF"/>
<path d="M116.147 277.556C117.603 274.083 119.274 270.836 121.329 267.678C124.147 263.344 127.274 259.122 129.166 254.268C131.099 249.314 130.815 244.015 131.006 238.796C131.145 234.963 132.285 231.139 131.977 227.295C131.83 225.451 130.767 222.468 128.382 222.774C126.526 223.011 125.423 225.312 124.71 226.78C123.465 229.343 122.602 232.076 121.677 234.764C121.317 235.816 120.971 236.887 120.515 237.902C120.25 238.492 119.406 239.932 118.61 239.736C117.254 239.402 118.485 233.867 118.686 232.887C119.698 227.964 121.222 223.39 121.434 218.324C121.741 210.98 121.17 202.238 113.987 198.222C112.109 197.172 109.73 196.547 107.946 198.118C106.186 199.666 105.689 202.351 105.427 204.56C104.626 211.343 106.222 217.766 108.395 224.147C110.19 229.416 112.329 234.854 112.485 240.488C112.635 245.912 109.813 250.719 108.489 255.843C106.378 264.008 106.814 268.338 106.805 270.982C106.79 274.295 106.911 277.572 107.153 280.875C107.377 283.911 107.639 286.948 108.01 289.97C108.086 290.582 108.155 291.22 108.237 291.859C107.07 289.05 106.662 285.832 105.695 283.01C103.979 277.991 101.985 273.076 100.337 268.034C98.9753 263.867 97.69 259.672 95.8913 255.667C94.206 251.908 92.17 247.936 89.0249 245.179C87.1238 243.512 84.8192 242.538 82.2765 242.558C80.6504 242.57 79.1889 243.132 77.6358 243.543C75.7244 244.048 74.2208 243.874 72.6484 242.666C67.5004 238.708 65.9348 231.614 62.1238 226.603C59.2812 222.866 52.5369 216.495 47.5774 220.571C44.9468 222.732 44.2213 226.91 44.3593 230.112C44.5326 234.13 46.2884 237.804 48.3796 241.164C50.6036 244.736 53.4744 247.935 55.5181 251.608C56.7265 253.778 56.9156 255.856 56.7233 258.304C56.5432 260.61 56.3416 262.843 57.1274 265.067C59.4874 271.746 66.8566 270.814 72.588 270.988C76.5984 271.11 80.9009 271.707 84.7082 272.99C89.1088 274.471 91.9713 277.335 93.5446 281.687C94.682 284.838 95.2913 288.414 97.4353 291.09C98.4433 292.348 99.778 293.278 101.246 293.927C103.481 294.914 110.295 295.346 110.346 294.723C110.514 292.639 111.502 290.44 112.121 288.463C113.281 284.755 114.645 281.138 116.147 277.556" fill="#60A6DF"/>
<path d="M147.788 276.298C147.195 272.479 147.308 268.271 145.5 264.764C145.371 264.514 145.03 264.45 144.796 264.579C143.5 265.298 143.447 267.391 143.34 268.674C143.166 270.802 143.296 272.935 143.034 275.058C142.575 278.786 141.714 282.628 140.37 286.142C138.851 290.118 136.087 292.371 132.074 293.612C129.495 294.408 126.966 295.103 124.814 296.814C122.886 298.347 121.547 300.46 120.554 302.686C117.875 308.695 116.599 315.412 115.356 321.832C114.52 326.155 113.838 330.498 112.788 334.778C111.739 339.054 110.612 343.308 110.011 347.678C109.91 347.898 109.802 348.116 109.708 348.339C109.434 348.992 110.455 349.346 110.807 348.802C114.951 342.424 119.998 336.7 126.883 333.188C129.992 331.603 134.123 331.274 136.716 328.782C138.69 326.886 138.96 323.992 138.666 321.414C138.278 318.026 136.655 315.238 134.963 312.351C134.035 310.764 132.938 309.066 133.312 307.138C133.666 305.319 135.178 303.983 136.678 303.051C139.54 301.274 142.887 300.474 145.231 297.912C147.408 295.534 148.615 292.574 148.856 289.368C149.178 285.096 148.442 280.516 147.788 276.298" fill="#60A6DF"/>
<path d="M91.3006 298.315C87.6451 293.606 83.2322 289.544 78.2681 286.247C75.6191 284.488 69.3697 281.018 68.1087 286.207C67.3691 289.248 70.3457 292.24 72.3046 294.147C75.2489 297.012 78.6541 299.484 81.1379 302.787C78.0623 303.767 74.8489 303.959 72.1765 306.084C69.0129 308.603 67.5937 313.464 70.7306 316.548C72.2593 318.051 74.2863 318.974 76.1899 319.896C78.6645 321.094 81.1847 322.18 83.7213 323.24C89.1983 325.527 94.7446 327.848 99.4153 331.596C104.175 335.415 108.651 341.872 109.029 348.103C109.066 348.698 108.839 348.156 109.194 347.884C109.389 348.059 110.042 347.746 110.038 347.399C109.941 338.152 108.279 329.35 104.501 320.88C100.999 313.028 96.5806 305.118 91.3006 298.315" fill="#60A6DF"/>
<path d="M78.6737 212.243C80.6904 216.43 82.7992 220.519 85.0382 224.6C87.193 228.53 89.3461 232.43 90.9578 236.622C92.9432 241.783 95.0245 246.867 97.1232 251.983C99.3045 257.3 101.254 262.719 102.818 268.25C105.871 279.048 108.139 290.163 109.26 301.331C109.831 307.011 110.09 312.724 109.934 318.43C109.811 322.89 109.308 327.3 108.89 331.738C108.454 336.352 108.139 341.023 108.526 345.655C108.849 349.527 109.464 354.13 112.47 356.892C113.056 357.434 113.89 356.759 113.548 356.06C109.978 348.738 110.178 340.754 110.86 332.814C111.238 328.43 111.761 324.07 111.909 319.67C112.097 314.071 111.876 308.462 111.35 302.886C110.314 291.924 108.128 281.094 105.294 270.464C103.839 265.015 102.04 259.671 99.9685 254.423C97.8898 249.166 95.4912 244.052 93.4778 238.768C89.8378 229.212 84.2888 220.739 79.3748 211.834C79.1196 211.371 78.4492 211.778 78.6737 212.243" fill="#3E579E"/>
<path d="M109.424 290.383C110.002 283.424 110.618 276.723 112.964 270.084C114.058 266.988 115.384 263.978 116.44 260.87C117.312 258.3 118.618 254.778 117.946 252.047C117.871 251.742 117.427 251.758 117.343 252.047C116.894 253.607 116.943 255.318 116.62 256.916C116.304 258.472 115.884 260.003 115.4 261.515C114.371 264.731 113.026 267.812 111.86 270.978C109.61 277.092 108.454 283.866 108.946 290.383C108.968 290.691 109.399 290.691 109.424 290.383" fill="#3E579E"/>
<path d="M69.0991 250.391C71.8616 257.064 80.1654 257.45 86.2132 258.944C90.5324 260.011 93.7205 262.892 96.0098 266.632C98.5165 270.724 100.211 275.528 101.604 280.095L101.686 280.074C99.9938 272.075 97.5698 262.444 89.3247 258.723C82.7174 255.74 74.0106 257.239 69.7846 250.102C69.5768 249.751 68.932 249.987 69.0991 250.391" fill="#3E579E"/>
<path d="M105.058 289.327C105.387 289.771 105.688 290.235 106.027 290.67C106.195 290.886 106.366 291.088 106.578 291.262C106.795 291.439 107.048 291.659 107.346 291.654C107.47 291.651 107.556 291.514 107.49 291.403C107.354 291.18 107.107 291.046 106.915 290.876C106.716 290.702 106.515 290.53 106.323 290.35C105.936 289.984 105.583 289.587 105.206 289.214L105.058 289.327" fill="#3E579E"/>
<path d="M87.7845 310.496C92.5497 314.407 96.9457 319.035 100.438 324.106C102.107 326.53 103.648 329.095 105.046 331.684C106.572 334.514 107.574 337.503 108.77 340.47C108.86 340.695 109.272 340.7 109.24 340.407C108.579 334.131 104.604 328.751 101.42 323.53C99.7671 320.818 97.7111 318.631 95.5004 316.37C93.2177 314.034 90.8911 311.824 88.2148 309.94C87.8892 309.711 87.4736 310.24 87.7845 310.496" fill="#3E579E"/>
<path d="M125.726 303.108C123.431 304.408 123.356 308.034 123.311 310.348C123.224 314.795 124.326 318.971 122.374 323.208C120.611 327.036 117.795 330.232 115.582 333.787C113.508 337.114 111.464 341.367 111.51 345.372C111.512 345.603 111.867 345.735 111.975 345.499C112.81 343.68 113.11 341.615 113.708 339.71C114.38 337.567 115.319 335.622 116.535 333.738C118.666 330.436 121.28 327.431 123.01 323.88C124.831 320.138 124.564 316.431 124.443 312.376C124.367 309.791 124.108 305.636 126.192 303.714C126.52 303.412 126.102 302.896 125.726 303.108Z" fill="#3E579E"/>
<path d="M110.382 345.786C101.138 345.658 83.5298 345.556 83.5298 345.556L87.8871 377.906C88.8667 385.183 95.079 390.614 102.422 390.614H110.014H110.748H118.339C125.683 390.614 131.895 385.183 132.875 377.906L137.232 345.556C137.232 345.556 119.624 345.658 110.382 345.786Z" fill="white"/>
<path d="M557.186 286.338L504.448 390.796L350.703 391.902L398.151 284.866L557.186 286.338Z" fill="#F5F6F9"/>
<path d="M248.663 391.25L248.692 382.89H348.22L394.012 282.475H553.184L557.186 286.338H401.691L354.104 391.166C354.104 391.166 248.663 390.975 248.663 391.25" fill="#D1D8E8"/>
<path d="M477.348 343.98C475.611 349.191 466.184 353.215 456.292 352.967C446.4 352.72 439.79 348.296 441.526 343.084C443.263 337.875 452.69 333.851 462.582 334.099C472.474 334.347 479.086 338.771 477.348 343.98" fill="#D1D8E8"/>
<path d="M354.106 391.832L353.83 391.772C353.495 391.62 353.346 391.226 353.498 390.89L401.262 285.671H557.186C557.555 285.671 557.853 285.968 557.853 286.338C557.853 286.706 557.555 287.004 557.186 287.004H402.121L354.713 391.442C354.602 391.686 354.358 391.832 354.106 391.832" fill="white"/>
<path d="M58.8403 439.716H241.736V399.166H58.8403V439.716Z" fill="#4F68A9"/>
<path d="M240.691 439.716H569.758V399.166H240.691V439.716Z" fill="#6F83B8"/>
<path d="M58.8403 406.614H240.691V399.166H58.8403V406.614Z" fill="#3D5192"/>
<path d="M569.758 406.614H240.691V399.166H569.758V406.614Z" fill="#5165A1"/>
<path d="M249.736 401.096H50.0127V391.166H249.736V401.096Z" fill="#647AB4"/>
<path d="M577.758 401.096H248.692V391.166H577.758V401.096Z" fill="#8E9EC7"/>
<path d="M195.56 178.404H130.995C126.999 178.404 123.76 175.166 123.76 171.17V138.936C123.76 134.942 126.999 131.702 130.995 131.702H195.56C199.555 131.702 202.795 134.942 202.795 138.936V171.17C202.795 175.166 199.555 178.404 195.56 178.404Z" fill="white"/>
<path d="M221.195 155.054L196.946 144.822V165.286L221.195 155.054Z" fill="white"/>
<path d="M152.427 155.054C152.427 157.52 150.427 159.519 147.96 159.519C145.494 159.519 143.494 157.52 143.494 155.054C143.494 152.586 145.494 150.587 147.96 150.587C150.427 150.587 152.427 152.586 152.427 155.054Z" fill="#293D8A"/>
<path d="M167.744 155.054C167.744 157.52 165.744 159.519 163.278 159.519C160.811 159.519 158.811 157.52 158.811 155.054C158.811 152.586 160.811 150.587 163.278 150.587C165.744 150.587 167.744 152.586 167.744 155.054Z" fill="#293D8A"/>
<path d="M183.062 155.054C183.062 157.52 181.062 159.519 178.595 159.519C176.128 159.519 174.128 157.52 174.128 155.054C174.128 152.586 176.128 150.587 178.595 150.587C181.062 150.587 183.062 152.586 183.062 155.054Z" fill="#293D8A"/>
<path d="M524.266 32.5443H375.208C365.635 32.5443 357.875 40.3043 357.875 49.8777V120.591C357.875 130.163 365.635 137.924 375.208 137.924H388.568C388.944 144.334 388.026 153.87 382.672 166.062C399.894 158.118 409.811 146.19 414.991 137.924H524.266C533.838 137.924 541.599 130.163 541.599 120.591V49.8777C541.599 40.3043 533.838 32.5443 524.266 32.5443Z" fill="#599FDC"/>
<path d="M460.679 66.2456H386.749C384.718 66.2456 383.07 64.599 383.07 62.5683C383.07 60.5363 384.718 58.8896 386.749 58.8896H460.679C462.711 58.8896 464.358 60.5363 464.358 62.5683C464.358 64.599 462.711 66.2456 460.679 66.2456Z" fill="white"/>
<path d="M513.691 87.671H385.323C384.079 87.671 383.07 86.663 383.07 85.419C383.07 84.175 384.079 83.1657 385.323 83.1657H513.691C514.935 83.1657 515.944 84.175 515.944 85.419C515.944 86.663 514.935 87.671 513.691 87.671Z" fill="#C3E4F7"/>
<path d="M513.691 100.178H385.323C384.079 100.178 383.07 99.1683 383.07 97.9243C383.07 96.6803 384.079 95.6709 385.323 95.6709H513.691C514.935 95.6709 515.944 96.6803 515.944 97.9243C515.944 99.1683 514.935 100.178 513.691 100.178Z" fill="#C3E4F7"/>
<path d="M485.688 113.511H385.323C384.079 113.511 383.07 112.502 383.07 111.258C383.07 110.014 384.079 109.004 385.323 109.004H485.688C486.934 109.004 487.943 110.014 487.943 111.258C487.943 112.502 486.934 113.511 485.688 113.511" fill="#C3E4F7"/>
<path d="M512.683 66.2456H477.415C475.384 66.2456 473.736 64.599 473.736 62.5683C473.736 60.5363 475.384 58.8896 477.415 58.8896H512.683C514.715 58.8896 516.36 60.5363 516.36 62.5683C516.36 64.599 514.715 66.2456 512.683 66.2456Z" fill="white"/>
<path d="M423.794 228.867H383.748C382.275 228.867 381.082 227.672 381.082 226.2V198.843C381.082 197.371 382.275 196.176 383.748 196.176H423.794C425.267 196.176 426.46 197.371 426.46 198.843V226.2C426.46 227.672 425.267 228.867 423.794 228.867Z" fill="white"/>
<path d="M404.049 217.407C403.823 217.407 403.597 217.33 403.411 217.178L381.617 199.176C381.191 198.824 381.131 198.195 381.483 197.768C381.837 197.343 382.467 197.284 382.89 197.635L404.031 215.095L424.633 197.168C425.049 196.807 425.681 196.851 426.043 197.267C426.406 197.684 426.362 198.315 425.945 198.678L404.705 217.16C404.517 217.324 404.282 217.407 404.049 217.407" fill="#647AB4"/>
<path d="M382.254 228.12C382.006 228.12 381.758 228.028 381.565 227.844C381.165 227.463 381.149 226.831 381.53 226.431L396.773 210.407C397.15 210.006 397.786 209.99 398.185 210.371C398.586 210.752 398.602 211.384 398.221 211.786L382.978 227.81C382.782 228.016 382.518 228.12 382.254 228.12Z" fill="#647AB4"/>
<path d="M425.288 227.534C425.032 227.534 424.776 227.436 424.58 227.24L409.399 212.018C409.01 211.627 409.01 210.992 409.402 210.603C409.794 210.212 410.427 210.214 410.816 210.604L425.998 225.827C426.387 226.219 426.387 226.852 425.995 227.242C425.799 227.436 425.544 227.534 425.288 227.534" fill="#647AB4"/>
<path d="M441.92 195.164C441.92 202.554 435.931 208.544 428.542 208.544C421.152 208.544 415.163 202.554 415.163 195.164C415.163 187.776 421.152 181.786 428.542 181.786C435.931 181.786 441.92 187.776 441.92 195.164Z" fill="#F1494A"/>
<path d="M425.282 195.115C425.815 195.371 426.247 195.739 426.578 196.219C426.919 196.688 427.09 197.222 427.09 197.819C427.09 198.384 426.935 198.907 426.626 199.387C426.327 199.867 425.911 200.246 425.378 200.523C424.855 200.8 424.279 200.939 423.65 200.939C423.02 200.939 422.444 200.8 421.922 200.523C421.399 200.246 420.983 199.867 420.674 199.387C420.375 198.907 420.226 198.384 420.226 197.819C420.226 197.2 420.391 196.662 420.722 196.203C421.052 195.744 421.474 195.387 421.986 195.131C421.559 194.907 421.202 194.576 420.914 194.139C420.626 193.691 420.482 193.195 420.482 192.651C420.482 192.086 420.62 191.574 420.898 191.115C421.186 190.646 421.57 190.278 422.05 190.011C422.54 189.744 423.074 189.611 423.65 189.611C424.226 189.611 424.754 189.744 425.234 190.011C425.724 190.278 426.108 190.646 426.386 191.115C426.663 191.574 426.802 192.086 426.802 192.651C426.802 193.206 426.652 193.696 426.354 194.123C426.066 194.55 425.708 194.88 425.282 195.115ZM423.65 190.523C422.999 190.523 422.471 190.72 422.066 191.115C421.66 191.51 421.458 192.022 421.458 192.651C421.458 193.067 421.559 193.44 421.762 193.771C421.964 194.091 422.231 194.342 422.562 194.523C422.903 194.704 423.266 194.795 423.65 194.795C424.034 194.795 424.391 194.704 424.722 194.523C425.063 194.342 425.33 194.091 425.522 193.771C425.724 193.44 425.826 193.067 425.826 192.651C425.826 192.022 425.623 191.51 425.218 191.115C424.812 190.72 424.29 190.523 423.65 190.523ZM423.65 200.011C424.375 200.011 424.967 199.808 425.426 199.403C425.884 198.987 426.114 198.459 426.114 197.819C426.114 197.403 426.002 197.024 425.778 196.683C425.554 196.342 425.25 196.075 424.866 195.883C424.492 195.68 424.087 195.579 423.65 195.579C423.212 195.579 422.807 195.68 422.434 195.883C422.06 196.075 421.762 196.342 421.538 196.683C421.314 197.024 421.202 197.403 421.202 197.819C421.202 198.459 421.426 198.987 421.874 199.403C422.332 199.808 422.924 200.011 423.65 200.011ZM432.233 193.371C432.915 193.371 433.529 193.526 434.073 193.835C434.627 194.134 435.059 194.56 435.369 195.115C435.689 195.659 435.849 196.272 435.849 196.955C435.849 197.702 435.673 198.374 435.321 198.971C434.979 199.558 434.499 200.016 433.881 200.347C433.262 200.678 432.558 200.843 431.769 200.843C431.321 200.843 430.873 200.768 430.425 200.619C429.987 200.47 429.603 200.256 429.273 199.979C429.209 199.936 429.155 199.878 429.113 199.803C429.081 199.718 429.065 199.638 429.065 199.563C429.065 199.456 429.107 199.355 429.193 199.259C429.289 199.152 429.401 199.099 429.529 199.099C429.646 199.099 429.763 199.147 429.881 199.243C430.158 199.456 430.457 199.622 430.777 199.739C431.107 199.856 431.438 199.915 431.769 199.915C432.377 199.915 432.915 199.792 433.385 199.547C433.865 199.302 434.233 198.955 434.489 198.507C434.755 198.059 434.889 197.552 434.889 196.987C434.889 196.176 434.627 195.526 434.105 195.035C433.582 194.534 432.883 194.283 432.009 194.283C431.678 194.283 431.369 194.331 431.081 194.427C430.803 194.523 430.489 194.651 430.137 194.811C429.881 194.939 429.715 195.003 429.641 195.003C429.481 195.003 429.347 194.955 429.241 194.859C429.145 194.752 429.097 194.63 429.097 194.491C429.097 194.438 429.102 194.395 429.113 194.363L429.801 190.011C429.822 189.904 429.875 189.814 429.961 189.739C430.057 189.654 430.169 189.611 430.297 189.611H435.113C435.241 189.611 435.347 189.659 435.433 189.755C435.529 189.84 435.577 189.952 435.577 190.091C435.577 190.219 435.529 190.331 435.433 190.427C435.347 190.512 435.241 190.555 435.113 190.555H430.633L430.089 193.867C430.366 193.728 430.691 193.611 431.065 193.515C431.449 193.419 431.838 193.371 432.233 193.371Z" fill="white"/>
<path d="M562.919 190.24H484.758C481.812 190.24 479.424 187.852 479.424 184.907V172.678C479.424 169.732 481.812 167.344 484.758 167.344H562.919C565.864 167.344 568.252 169.732 568.252 172.678V184.907C568.252 187.852 565.864 190.24 562.919 190.24Z" fill="#293D8A"/>
<path d="M490.4 184.796C490.05 184.796 489.768 184.672 489.555 184.422C489.342 184.172 489.248 183.859 489.275 183.484L489.611 180.519L489.575 180.37L489.387 180.407L486.947 182.17C486.647 182.395 486.334 182.478 486.008 182.414C485.684 182.352 485.422 182.158 485.222 181.832C484.996 181.432 484.952 181.082 485.09 180.782C485.226 180.482 485.459 180.27 485.783 180.144L488.523 178.906L488.636 178.794L488.523 178.68L485.783 177.442C485.434 177.292 485.208 177.055 485.11 176.73C485.008 176.404 485.047 176.079 485.222 175.754C485.422 175.428 485.684 175.235 486.008 175.171C486.334 175.11 486.647 175.179 486.947 175.379L489.387 177.18L489.575 177.216L489.611 177.067L489.275 174.102C489.248 173.727 489.348 173.414 489.575 173.164C489.8 172.914 490.1 172.79 490.475 172.79C490.826 172.79 491.112 172.914 491.338 173.164C491.563 173.414 491.651 173.727 491.6 174.102L491.263 177.067L491.3 177.216L491.49 177.18L493.928 175.416C494.227 175.19 494.547 175.11 494.886 175.171C495.222 175.235 495.478 175.428 495.654 175.754C495.879 176.154 495.923 176.504 495.783 176.804C495.647 177.104 495.415 177.318 495.09 177.442L492.351 178.68L492.239 178.794L492.351 178.906L495.09 180.144C495.442 180.294 495.672 180.532 495.783 180.856C495.896 181.183 495.854 181.508 495.654 181.832C495.478 182.158 495.222 182.352 494.886 182.414C494.547 182.478 494.227 182.407 493.928 182.208L491.49 180.407L491.3 180.37L491.263 180.519L491.6 183.484C491.651 183.859 491.556 184.172 491.32 184.422C491.08 184.672 490.775 184.796 490.4 184.796" fill="white"/>
<path d="M506.566 184.796C506.216 184.796 505.935 184.672 505.722 184.422C505.508 184.172 505.415 183.859 505.44 183.484L505.778 180.519L505.74 180.37L505.554 180.407L503.114 182.17C502.814 182.395 502.5 182.478 502.175 182.414C501.851 182.352 501.588 182.158 501.388 181.832C501.163 181.432 501.119 181.082 501.256 180.782C501.392 180.482 501.624 180.27 501.95 180.144L504.69 178.906L504.803 178.794L504.69 178.68L501.95 177.442C501.6 177.292 501.375 177.055 501.275 176.73C501.175 176.404 501.214 176.079 501.388 175.754C501.588 175.428 501.851 175.235 502.175 175.171C502.5 175.11 502.814 175.179 503.114 175.379L505.554 177.18L505.74 177.216L505.778 177.067L505.44 174.102C505.415 173.727 505.515 173.414 505.74 173.164C505.966 172.914 506.266 172.79 506.642 172.79C506.992 172.79 507.279 172.914 507.504 173.164C507.73 173.414 507.818 173.727 507.767 174.102L507.43 177.067L507.467 177.216L507.655 177.18L510.094 175.416C510.392 175.19 510.714 175.11 511.051 175.171C511.388 175.235 511.644 175.428 511.82 175.754C512.044 176.154 512.088 176.504 511.95 176.804C511.814 177.104 511.582 177.318 511.256 177.442L508.518 178.68L508.406 178.794L508.518 178.906L511.256 180.144C511.607 180.294 511.839 180.532 511.95 180.856C512.063 181.183 512.02 181.508 511.82 181.832C511.644 182.158 511.388 182.352 511.051 182.414C510.714 182.478 510.392 182.407 510.094 182.208L507.655 180.407L507.467 180.37L507.43 180.519L507.767 183.484C507.818 183.859 507.723 184.172 507.486 184.422C507.247 184.672 506.942 184.796 506.566 184.796" fill="white"/>
<path d="M522.733 184.796C522.383 184.796 522.1 184.672 521.888 184.422C521.674 184.172 521.581 183.859 521.607 183.484L521.944 180.519L521.907 180.37L521.721 180.407L519.279 182.17C518.979 182.395 518.666 182.478 518.342 182.414C518.016 182.352 517.754 182.158 517.555 181.832C517.328 181.432 517.285 181.082 517.423 180.782C517.559 180.482 517.791 180.27 518.116 180.144L520.857 178.906L520.969 178.794L520.857 178.68L518.116 177.442C517.767 177.292 517.54 177.055 517.442 176.73C517.342 176.404 517.38 176.079 517.555 175.754C517.754 175.428 518.016 175.235 518.342 175.171C518.666 175.11 518.979 175.179 519.279 175.379L521.721 177.18L521.907 177.216L521.944 177.067L521.607 174.102C521.581 173.727 521.682 173.414 521.907 173.164C522.133 172.914 522.432 172.79 522.808 172.79C523.159 172.79 523.444 172.914 523.67 173.164C523.896 173.414 523.985 173.727 523.933 174.102L523.597 177.067L523.634 177.216L523.822 177.18L526.261 175.416C526.559 175.19 526.879 175.11 527.218 175.171C527.555 175.235 527.811 175.428 527.987 175.754C528.211 176.154 528.255 176.504 528.116 176.804C527.98 177.104 527.747 177.318 527.423 177.442L524.685 178.68L524.571 178.794L524.685 178.906L527.423 180.144C527.774 180.294 528.004 180.532 528.116 180.856C528.228 181.183 528.186 181.508 527.987 181.832C527.811 182.158 527.555 182.352 527.218 182.414C526.879 182.478 526.559 182.407 526.261 182.208L523.822 180.407L523.634 180.37L523.597 180.519L523.933 183.484C523.985 183.859 523.888 184.172 523.652 184.422C523.414 184.672 523.107 184.796 522.733 184.796" fill="white"/>
<path d="M538.898 184.796C538.548 184.796 538.267 184.672 538.055 184.422C537.84 184.172 537.747 183.859 537.774 183.484L538.111 180.519L538.072 180.37L537.886 180.407L535.446 182.17C535.146 182.395 534.832 182.478 534.507 182.414C534.183 182.352 533.92 182.158 533.72 181.832C533.495 181.432 533.451 181.082 533.588 180.782C533.724 180.482 533.958 180.27 534.282 180.144L537.022 178.906L537.135 178.794L537.022 178.68L534.282 177.442C533.932 177.292 533.707 177.055 533.608 176.73C533.507 176.404 533.546 176.079 533.72 175.754C533.92 175.428 534.183 175.235 534.507 175.171C534.832 175.11 535.146 175.179 535.446 175.379L537.886 177.18L538.072 177.216L538.111 177.067L537.774 174.102C537.747 173.727 537.847 173.414 538.072 173.164C538.299 172.914 538.599 172.79 538.974 172.79C539.324 172.79 539.611 172.914 539.836 173.164C540.062 173.414 540.15 173.727 540.099 174.102L539.762 177.067L539.799 177.216L539.988 177.18L542.427 175.416C542.726 175.19 543.046 175.11 543.384 175.171C543.72 175.235 543.976 175.428 544.152 175.754C544.378 176.154 544.422 176.504 544.282 176.804C544.146 177.104 543.914 177.318 543.588 177.442L540.85 178.68L540.738 178.794L540.85 178.906L543.588 180.144C543.94 180.294 544.171 180.532 544.282 180.856C544.395 181.183 544.352 181.508 544.152 181.832C543.976 182.158 543.72 182.352 543.384 182.414C543.046 182.478 542.726 182.407 542.427 182.208L539.988 180.407L539.799 180.37L539.762 180.519L540.099 183.484C540.15 183.859 540.055 184.172 539.819 184.422C539.579 184.672 539.274 184.796 538.898 184.796" fill="white"/>
<path d="M555.064 184.796C554.715 184.796 554.433 184.672 554.221 184.422C554.007 184.172 553.913 183.859 553.939 183.484L554.277 180.519L554.239 180.37L554.052 180.407L551.612 182.17C551.312 182.395 550.999 182.478 550.673 182.414C550.349 182.352 550.087 182.158 549.887 181.832C549.661 181.432 549.617 181.082 549.755 180.782C549.891 180.482 550.123 180.27 550.448 180.144L553.188 178.906L553.301 178.794L553.188 178.68L550.448 177.442C550.099 177.292 549.873 177.055 549.773 176.73C549.673 176.404 549.712 176.079 549.887 175.754C550.087 175.428 550.349 175.235 550.673 175.171C550.999 175.11 551.312 175.179 551.612 175.379L554.052 177.18L554.239 177.216L554.277 177.067L553.939 174.102C553.913 173.727 554.013 173.414 554.239 173.164C554.464 172.914 554.764 172.79 555.14 172.79C555.491 172.79 555.777 172.914 556.003 173.164C556.228 173.414 556.316 173.727 556.265 174.102L555.928 177.067L555.965 177.216L556.153 177.18L558.592 175.416C558.891 175.19 559.212 175.11 559.549 175.171C559.887 175.235 560.143 175.428 560.319 175.754C560.543 176.154 560.587 176.504 560.448 176.804C560.312 177.104 560.08 177.318 559.755 177.442L557.016 178.68L556.903 178.794L557.016 178.906L559.755 180.144C560.105 180.294 560.337 180.532 560.448 180.856C560.561 181.183 560.519 181.508 560.319 181.832C560.143 182.158 559.887 182.352 559.549 182.414C559.212 182.478 558.891 182.407 558.592 182.208L556.153 180.407L555.965 180.37L555.928 180.519L556.265 183.484C556.316 183.859 556.221 184.172 555.984 184.422C555.745 184.672 555.44 184.796 555.064 184.796" fill="#5DA4DE"/>
</svg>
