<svg width="570" height="572" viewBox="0 0 570 572" fill="none" xmlns="http://www.w3.org/2000/svg">
<path d="M293.61 568.491C258.519 568.491 230.345 563.578 215.747 560.85C159.239 550.294 111.536 542.848 70.5517 505.684C-0.426413 441.324 -14.6783 323.69 14.0616 223.062V405.157C14.0616 409.346 17.4448 412.741 21.6179 412.741H541.664C545.838 412.741 549.22 409.346 549.22 405.157V182.867C586.916 285.517 574.668 413.179 501.434 488.943C486.601 504.29 473.328 513.309 463.166 520.119C405.364 558.857 342.72 568.491 293.61 568.491ZM434.568 40.7163H183.505C184.294 39.6298 185.107 38.5619 185.94 37.519C186.712 36.5529 186.556 35.1423 185.596 34.3694C185.184 34.037 184.689 33.8749 184.201 33.8749C183.547 33.8749 182.899 34.1637 182.458 34.7163C180.914 36.6484 179.434 38.6678 178.055 40.7163H147.599C169.611 26.1257 195.072 13.6271 223.628 6.63397C223.406 7.12012 223.357 7.68732 223.53 8.23785C223.833 9.19147 224.71 9.80225 225.658 9.80225C225.805 9.80225 225.952 9.78772 226.099 9.75867C226.178 9.742 226.255 9.72125 226.333 9.69836C228.618 8.97125 230.966 8.33344 233.311 7.80573C234.514 7.53357 235.269 6.33484 235 5.12775C234.926 4.7995 234.783 4.50452 234.592 4.25519C237.265 3.74829 239.964 3.29327 242.688 2.88812C242.545 3.21844 242.481 3.58618 242.512 3.96844C242.612 5.13605 243.587 6.01904 244.735 6.01904C244.798 6.01904 244.862 6.01697 244.926 6.01074C247.306 5.8092 249.72 5.70532 252.105 5.70532C252.121 5.70532 252.136 5.70532 252.152 5.70532H252.154C252.307 5.70532 252.454 5.68866 252.599 5.66168C253.618 5.45392 254.384 4.55017 254.386 3.4657C254.386 2.67627 253.978 1.9823 253.363 1.58136C258.064 1.09314 268.074 0.189392 281.79 0.189392C317.127 0.189392 377.096 6.18317 434.568 40.7163ZM197.977 20.109C197.49 20.109 196.999 20.2669 196.588 20.5952C194.609 22.1741 192.675 23.8569 190.837 25.5979C189.941 26.4476 189.899 27.8646 190.746 28.7641C191.185 29.2316 191.777 29.4664 192.369 29.4664C192.52 29.4664 192.669 29.4518 192.816 29.4207C193.211 29.3417 193.588 29.1526 193.903 28.8555C195.648 27.2018 197.486 25.6021 199.365 24.1042C200.33 23.3334 200.492 21.9227 199.726 20.9567C199.285 20.3999 198.633 20.109 197.977 20.109ZM214.449 9.76691C214.127 9.76691 213.799 9.83759 213.487 9.98505C211.208 11.08 208.949 12.287 206.772 13.5751C205.71 14.2025 205.356 15.5758 205.981 16.6416C206.397 17.3521 207.142 17.7469 207.906 17.7469C208.053 17.7469 208.202 17.7323 208.349 17.7011C208.585 17.6533 208.817 17.5661 209.036 17.4352C211.104 16.2136 213.251 15.0668 215.414 14.028C216.526 13.492 216.998 12.1541 216.466 11.0384C216.081 10.2344 215.284 9.76691 214.449 9.76691ZM283.065 6.97888C282.169 6.97888 281.322 7.52734 280.983 8.41864C280.54 9.57166 281.115 10.868 282.264 11.3126C283.347 11.7302 284.429 12.1727 285.487 12.6298C285.775 12.7545 286.073 12.8147 286.369 12.8147C286.518 12.8147 286.667 12.7981 286.812 12.769C287.505 12.6277 288.12 12.1603 288.42 11.4601C288.909 10.3258 288.387 9.00653 287.255 8.51624C286.143 8.03424 285.003 7.56891 283.866 7.13055C283.604 7.02875 283.332 6.97888 283.065 6.97888ZM264.175 2.07373C263.08 2.07373 262.125 2.8819 261.968 4.00171C261.796 5.2254 262.645 6.35974 263.866 6.53217C266.247 6.86877 268.64 7.31335 270.975 7.85352C271.144 7.89294 271.312 7.91168 271.478 7.91168C271.629 7.91168 271.776 7.89709 271.918 7.86597C272.751 7.69769 273.448 7.0578 273.651 6.17273C273.928 4.96777 273.179 3.76489 271.976 3.48651C269.515 2.91931 266.996 2.44977 264.489 2.09454C264.384 2.07996 264.278 2.07373 264.175 2.07373Z" fill="url(#paint0_linear_88_7027)"/>
<path d="M541.665 412.74H21.6183C17.4452 412.74 14.062 409.346 14.062 405.157V48.2994C14.062 44.111 17.4452 40.7163 21.6183 40.7163H541.665C545.838 40.7163 549.22 44.111 549.22 48.2994V405.157C549.22 409.346 545.838 412.74 541.665 412.74Z" fill="#91B3FA"/>
<path d="M523.731 397.169H34.5802C30.4071 397.169 27.0239 393.774 27.0239 389.586V112.537C27.0239 108.349 30.4071 104.954 34.5802 104.954H148.196C147.933 105.254 147.798 105.667 147.863 106.091C147.964 106.778 148.552 107.271 149.225 107.271C149.293 107.271 149.361 107.265 149.43 107.254C149.728 107.208 150.028 107.167 150.334 107.13C152.352 106.862 154.393 106.699 156.403 106.652C156.486 106.65 156.567 106.639 156.646 106.625C157.289 106.492 157.765 105.914 157.747 105.235C157.745 105.137 157.734 105.044 157.712 104.954H523.731C527.904 104.954 531.286 108.349 531.286 112.537V389.586C531.286 393.774 527.904 397.169 523.731 397.169ZM47.7151 122.375C46.3489 122.375 45.2309 123.497 45.2309 124.868V377.424C45.2309 378.795 46.3489 379.917 47.7151 379.917H211.451C212.817 379.917 213.934 378.795 213.934 377.424V183.488C214.421 182.098 214.86 180.692 215.241 179.283C215.441 178.544 215.007 177.785 214.272 177.584C214.158 177.553 214.046 177.538 213.934 177.536V171.642C214.721 172.016 215.514 172.379 216.3 172.724C216.592 172.851 216.895 172.911 217.193 172.911C217.344 172.911 217.493 172.897 217.638 172.868C218.325 172.726 218.938 172.263 219.24 171.569C219.735 170.435 219.219 169.114 218.091 168.619C217.039 168.158 215.978 167.665 214.934 167.154C214.62 167.001 214.286 166.928 213.957 166.928C213.949 166.928 213.941 166.928 213.934 166.928V124.868C213.934 123.497 212.817 122.375 211.451 122.375H118.572C119.034 121.841 119.024 121.03 118.525 120.509C118.254 120.224 117.893 120.083 117.529 120.083C117.188 120.083 116.844 120.21 116.577 120.47C115.933 121.087 115.302 121.724 114.685 122.375H47.7151ZM226.541 259.847C225.174 259.847 224.057 260.969 224.057 262.338V373.213C224.057 374.584 225.174 375.706 226.541 375.706H509.305C510.671 375.706 511.789 374.584 511.789 373.213V262.338C511.789 260.969 510.671 259.847 509.305 259.847H226.541ZM227.791 122.289C226.425 122.289 225.307 123.411 225.307 124.783V242.699C225.307 244.07 226.425 245.192 227.791 245.192H510.553C511.919 245.192 513.037 244.07 513.037 242.699V124.783C513.037 123.411 511.919 122.289 510.553 122.289H227.791ZM167.174 107.547C167.027 107.547 166.878 107.562 166.728 107.593L166.685 107.601C165.482 107.871 164.725 109.068 164.992 110.277C165.542 112.76 166.207 115.242 166.962 117.657C167.263 118.612 168.142 119.225 169.09 119.225C169.237 119.225 169.384 119.211 169.533 119.179C169.61 119.165 169.684 119.146 169.761 119.121C170.937 118.749 171.591 117.492 171.22 116.312C170.502 114.019 169.873 111.661 169.349 109.301C169.117 108.258 168.196 107.547 167.174 107.547ZM336.885 107.323C335.863 107.323 334.938 108.035 334.708 109.08C334.199 111.393 333.582 113.713 332.878 115.98C332.509 117.162 333.166 118.417 334.343 118.785C334.565 118.855 334.788 118.889 335.008 118.889C335.159 118.889 335.306 118.872 335.451 118.843C336.223 118.687 336.887 118.122 337.14 117.314C337.881 114.929 338.529 112.483 339.067 110.048C339.332 108.839 338.572 107.643 337.37 107.377C337.206 107.339 337.045 107.323 336.885 107.323ZM128.991 111.494C128.761 111.494 128.527 111.553 128.31 111.675C126.192 112.884 124.128 114.241 122.172 115.708C121.563 116.165 121.437 117.031 121.893 117.642C122.164 118.008 122.58 118.199 122.998 118.199C123.091 118.199 123.182 118.19 123.273 118.172C123.466 118.132 123.654 118.051 123.822 117.924C125.687 116.526 127.655 115.234 129.674 114.081C130.336 113.703 130.568 112.857 130.191 112.195C129.937 111.746 129.471 111.494 128.991 111.494ZM142.201 105.991C142.083 105.991 141.961 106.006 141.841 106.037C139.483 106.691 137.148 107.497 134.902 108.434C134.199 108.727 133.865 109.537 134.157 110.244C134.377 110.776 134.89 111.096 135.43 111.096C135.521 111.096 135.612 111.087 135.704 111.069C135.788 111.052 135.873 111.025 135.958 110.99C138.101 110.098 140.328 109.328 142.578 108.704C143.311 108.501 143.741 107.738 143.538 107.003C143.369 106.386 142.812 105.991 142.201 105.991Z" fill="#ADC7FB"/>
<path d="M549.22 88.2966V65.886C549.22 51.9851 537.758 40.7226 523.908 40.7226H40.7608C26.9107 40.7226 15.4355 51.9851 15.4355 65.886V88.2966H549.22Z" fill="#91B3FA"/>
<path d="M43.5007 80.4827C39.8892 80.4827 36.9614 77.5429 36.9614 73.9197C36.9614 70.2943 39.8892 67.3566 43.5007 67.3566C47.112 67.3566 50.0398 70.2943 50.0398 73.9197C50.0398 77.5429 47.112 80.4827 43.5007 80.4827Z" fill="#CFDEFD"/>
<path d="M64.1079 80.7698C60.4964 80.7698 57.5688 77.8321 57.5688 74.2068C57.5688 70.5835 60.4964 67.6438 64.1079 67.6438C67.7194 67.6438 70.647 70.5835 70.647 74.2068C70.647 77.8321 67.7194 80.7698 64.1079 80.7698Z" fill="#CFDEFD"/>
<path d="M83.8708 81.6858C80.2593 81.6858 77.3315 78.746 77.3315 75.1228C77.3315 71.4974 80.2593 68.5598 83.8708 68.5598C87.4823 68.5598 90.4101 71.4974 90.4101 75.1228C90.4101 78.746 87.4823 81.6858 83.8708 81.6858Z" fill="#CFDEFD"/>
<path d="M211.45 379.917H47.7147C46.3485 379.917 45.2305 378.795 45.2305 377.424V124.868C45.2305 123.497 46.3485 122.375 47.7147 122.375H114.684C113.612 123.503 112.581 124.677 111.602 125.882C111.122 126.474 111.211 127.346 111.799 127.828C112.056 128.038 112.364 128.14 112.67 128.14C112.764 128.14 112.855 128.13 112.946 128.111C113.248 128.051 113.531 127.889 113.741 127.631C115.21 125.817 116.808 124.081 118.485 122.466C118.516 122.435 118.545 122.406 118.572 122.375H211.45C212.816 122.375 213.934 123.497 213.934 124.868V166.928C213.114 166.936 212.334 167.398 211.949 168.187C211.409 169.299 211.87 170.641 212.978 171.183C213.294 171.337 213.613 171.49 213.934 171.642V177.536C213.926 177.536 213.918 177.536 213.909 177.536C213.303 177.536 212.746 177.941 212.58 178.556C211.982 180.769 211.239 182.973 210.372 185.103C210.084 185.811 210.423 186.619 211.127 186.908C211.299 186.976 211.473 187.01 211.647 187.01C211.74 187.01 211.831 187.001 211.922 186.983C212.359 186.893 212.744 186.594 212.926 186.15C213.282 185.273 213.617 184.384 213.934 183.488V377.424C213.934 378.795 212.816 379.917 211.45 379.917ZM156.103 220.61C155.362 220.61 154.743 221.202 154.722 221.956C154.701 222.721 155.302 223.355 156.063 223.377C156.598 223.392 157.132 223.398 157.666 223.398C159.539 223.398 161.421 223.311 163.277 223.136C163.329 223.13 163.377 223.124 163.426 223.114C164.107 222.974 164.59 222.341 164.524 221.63C164.455 220.913 163.855 220.375 163.153 220.375C163.11 220.375 163.066 220.377 163.023 220.382C161.249 220.548 159.454 220.631 157.67 220.631C157.156 220.631 156.647 220.625 156.138 220.61C156.126 220.61 156.115 220.61 156.103 220.61ZM142.176 218.506C141.572 218.506 141.017 218.906 140.845 219.517C140.642 220.253 141.071 221.017 141.803 221.221C144.116 221.869 146.492 222.378 148.868 222.737C148.937 222.748 149.005 222.752 149.073 222.752C149.166 222.752 149.257 222.744 149.346 222.725C149.899 222.613 150.346 222.166 150.435 221.576C150.549 220.82 150.032 220.116 149.278 220.001C147.014 219.659 144.749 219.172 142.544 218.555C142.42 218.522 142.296 218.506 142.176 218.506ZM176.906 217.386C176.757 217.386 176.606 217.409 176.459 217.458C174.302 218.21 172.073 218.84 169.831 219.326C169.088 219.488 168.614 220.224 168.775 220.972C168.916 221.62 169.487 222.062 170.123 222.062C170.214 222.062 170.305 222.054 170.398 222.035L170.415 222.031C172.764 221.52 175.101 220.861 177.364 220.074C178.082 219.823 178.465 219.035 178.214 218.312C178.016 217.739 177.477 217.386 176.906 217.386ZM132.31 214.747C131.799 214.747 131.309 215.034 131.068 215.524C130.735 216.212 131.019 217.039 131.704 217.375C132.747 217.884 133.828 218.375 134.917 218.83C135.09 218.902 135.268 218.936 135.446 218.936C135.538 218.936 135.631 218.927 135.72 218.909C136.152 218.821 136.535 218.524 136.719 218.084C137.011 217.379 136.68 216.569 135.976 216.274C134.937 215.84 133.906 215.373 132.913 214.886C132.718 214.791 132.513 214.747 132.31 214.747ZM189.548 211.153C189.291 211.153 189.028 211.226 188.794 211.377C186.881 212.63 184.869 213.781 182.812 214.799C182.129 215.136 181.847 215.967 182.183 216.65C182.423 217.141 182.913 217.423 183.42 217.423C183.511 217.423 183.603 217.415 183.694 217.396C183.807 217.373 183.919 217.336 184.029 217.282C186.186 216.216 188.297 215.009 190.301 213.696C190.939 213.276 191.119 212.418 190.703 211.78C190.438 211.373 189.999 211.153 189.548 211.153ZM200.309 202.051C199.941 202.051 199.573 202.199 199.299 202.492C197.741 204.174 196.064 205.776 194.313 207.256C193.731 207.748 193.656 208.62 194.147 209.206C194.42 209.53 194.809 209.697 195.203 209.697C195.294 209.697 195.387 209.688 195.478 209.67C195.695 209.626 195.907 209.526 196.091 209.373C197.925 207.821 199.684 206.14 201.32 204.378C201.837 203.819 201.806 202.943 201.249 202.421C200.984 202.174 200.647 202.051 200.309 202.051ZM208.596 190.627C208.113 190.627 207.643 190.882 207.391 191.337C206.277 193.34 205.029 195.299 203.681 197.161C203.232 197.78 203.369 198.644 203.986 199.095C204.23 199.274 204.514 199.359 204.795 199.359C204.888 199.359 204.981 199.35 205.07 199.332C205.397 199.265 205.7 199.08 205.911 198.789C207.325 196.839 208.633 194.784 209.798 192.684C210.169 192.017 209.931 191.173 209.266 190.801C209.053 190.683 208.823 190.627 208.596 190.627ZM104.791 186.399C104.6 186.399 104.407 186.438 104.222 186.524C103.528 186.839 103.221 187.66 103.536 188.356C104.019 189.426 104.542 190.496 105.089 191.535C105.336 192.004 105.814 192.272 106.308 192.272C106.399 192.272 106.491 192.264 106.581 192.245C106.707 192.218 106.832 192.175 106.952 192.112C107.625 191.755 107.882 190.918 107.527 190.242C107.006 189.251 106.508 188.231 106.047 187.211C105.816 186.702 105.315 186.399 104.791 186.399ZM100.533 172.685C100.452 172.685 100.369 172.691 100.286 172.706C99.5831 172.864 99.0406 173.564 99.1755 174.316C99.2519 174.738 99.3318 175.157 99.4163 175.575C99.8166 177.555 100.324 179.539 100.923 181.471C101.106 182.063 101.651 182.443 102.239 182.443C102.329 182.443 102.421 182.433 102.512 182.416C102.557 182.406 102.603 182.393 102.649 182.381C103.376 182.152 103.782 181.377 103.555 180.648C102.984 178.805 102.501 176.913 102.118 175.024C102.038 174.625 101.962 174.224 101.889 173.821C101.768 173.152 101.188 172.685 100.533 172.685ZM99.7162 158.344C98.9981 158.344 98.3871 158.905 98.3395 159.636C98.1792 162.075 98.1693 164.553 98.3099 167.001C98.3521 167.738 98.9603 168.305 99.6864 168.305C99.7127 168.305 99.7392 168.305 99.7657 168.303C99.8321 168.299 99.8984 168.291 99.9621 168.278C100.623 168.143 101.102 167.539 101.063 166.843C100.929 164.508 100.938 162.145 101.091 159.819C101.14 159.054 100.566 158.398 99.8054 158.346C99.7754 158.346 99.7458 158.344 99.7162 158.344ZM102.42 144.231C101.839 144.231 101.3 144.603 101.111 145.188C100.355 147.52 99.7392 149.921 99.2772 152.325C99.1335 153.075 99.6224 153.8 100.37 153.945C100.458 153.962 100.545 153.97 100.632 153.97C100.725 153.97 100.816 153.96 100.905 153.941C101.436 153.833 101.876 153.416 101.985 152.848C102.425 150.555 103.013 148.265 103.733 146.042C103.968 145.317 103.572 144.536 102.849 144.299C102.706 144.254 102.562 144.231 102.42 144.231ZM108.493 131.221C108.036 131.221 107.587 131.45 107.325 131.867C106.028 133.936 104.845 136.114 103.808 138.335C103.485 139.026 103.783 139.851 104.473 140.175C104.662 140.263 104.861 140.304 105.057 140.304C105.149 140.304 105.24 140.296 105.33 140.277C105.744 140.192 106.113 139.92 106.306 139.508C107.294 137.389 108.423 135.314 109.659 133.34C110.064 132.694 109.87 131.84 109.226 131.433C108.998 131.29 108.744 131.221 108.493 131.221Z" fill="#DBE6FD"/>
<path d="M510.553 245.192H227.791C226.424 245.192 225.307 244.07 225.307 242.699V124.783C225.307 123.411 226.424 122.29 227.791 122.29H510.553C511.919 122.29 513.037 123.411 513.037 124.783V242.699C513.037 244.07 511.919 245.192 510.553 245.192ZM247.286 175.602C246.112 175.602 245.129 176.53 245.065 177.723C244.998 178.959 245.944 180.012 247.176 180.079C248.741 180.162 250.322 180.204 251.904 180.204C252.825 180.204 253.748 180.189 254.665 180.162C254.796 180.158 254.922 180.143 255.044 180.118C256.089 179.904 256.861 178.961 256.828 177.854C256.791 176.641 255.8 175.683 254.599 175.683C254.576 175.683 254.551 175.683 254.529 175.683C253.657 175.71 252.782 175.724 251.906 175.724C250.405 175.724 248.9 175.685 247.412 175.606C247.371 175.604 247.327 175.602 247.286 175.602ZM273.548 172.999C273.366 172.999 273.181 173.021 272.997 173.067C270.722 173.649 268.387 174.141 266.032 174.538C264.821 174.74 263.995 175.901 264.2 177.12C264.384 178.215 265.33 178.99 266.4 178.99C266.522 178.99 266.646 178.98 266.771 178.959C267.793 178.787 268.805 178.598 269.813 178.392C271.248 178.101 272.691 177.771 274.098 177.409C275.293 177.106 276.015 175.884 275.711 174.686C275.452 173.672 274.545 172.999 273.548 172.999ZM228.412 172.465C227.439 172.465 226.544 173.111 226.267 174.098C225.932 175.288 226.621 176.526 227.809 176.863C230.202 177.54 232.655 178.124 235.098 178.598C235.24 178.625 235.383 178.637 235.524 178.637C235.673 178.637 235.82 178.623 235.963 178.593C236.824 178.419 237.536 177.74 237.712 176.821C237.946 175.606 237.153 174.43 235.942 174.197C233.622 173.749 231.293 173.194 229.02 172.55C228.817 172.494 228.614 172.465 228.412 172.465ZM291.449 166.234C291.109 166.234 290.764 166.313 290.439 166.477C288.331 167.555 286.154 168.553 283.97 169.444C282.827 169.911 282.279 171.218 282.743 172.365C283.096 173.233 283.931 173.761 284.81 173.761C284.957 173.761 285.106 173.746 285.253 173.715C285.386 173.688 285.52 173.649 285.653 173.595C287.953 172.656 290.244 171.607 292.463 170.47C293.562 169.909 293.999 168.561 293.44 167.458C293.047 166.681 292.262 166.234 291.449 166.234ZM307.423 155.688C306.922 155.688 306.417 155.857 306.001 156.204C304.179 157.72 302.275 159.174 300.339 160.525C299.329 161.231 299.079 162.63 299.785 163.643C300.217 164.269 300.913 164.605 301.617 164.605C301.766 164.605 301.915 164.591 302.06 164.56C302.349 164.501 302.633 164.383 302.892 164.202C304.929 162.779 306.932 161.248 308.849 159.652C309.799 158.863 309.93 157.45 309.143 156.499C308.702 155.965 308.065 155.688 307.423 155.688ZM320.723 141.885C320.054 141.885 319.396 142.184 318.957 142.756C317.512 144.627 315.968 146.464 314.37 148.213C313.536 149.125 313.598 150.542 314.506 151.38C314.935 151.774 315.475 151.967 316.013 151.967C316.165 151.967 316.314 151.953 316.461 151.924C316.906 151.832 317.328 151.604 317.659 151.242C319.342 149.402 320.965 147.47 322.486 145.498C323.24 144.519 323.062 143.113 322.089 142.355C321.681 142.039 321.199 141.885 320.723 141.885ZM330.71 125.504C329.872 125.504 329.069 125.979 328.688 126.792C327.686 128.936 326.577 131.065 325.395 133.122C324.78 134.194 325.146 135.563 326.214 136.182C326.566 136.384 326.949 136.481 327.328 136.481C327.477 136.481 327.626 136.467 327.773 136.436C328.377 136.313 328.93 135.939 329.263 135.359C330.507 133.195 331.673 130.953 332.729 128.697C333.254 127.577 332.774 126.243 331.658 125.715C331.352 125.572 331.027 125.504 330.71 125.504Z" fill="#DBE6FD"/>
<path d="M509.304 375.706H226.54C225.174 375.706 224.056 374.584 224.056 373.213V262.338C224.056 260.969 225.174 259.847 226.54 259.847H509.304C510.67 259.847 511.788 260.969 511.788 262.338V373.213C511.788 374.584 510.67 375.706 509.304 375.706Z" fill="#DBE6FD"/>
<path d="M169.09 119.225C168.142 119.225 167.262 118.612 166.962 117.657C166.207 115.243 165.542 112.76 164.992 110.277C164.725 109.068 165.482 107.871 166.685 107.601L166.728 107.593C166.877 107.562 167.026 107.547 167.173 107.547C168.196 107.547 169.117 108.258 169.349 109.301C169.873 111.661 170.502 114.019 171.22 116.313C171.591 117.493 170.937 118.75 169.761 119.121C169.684 119.146 169.61 119.165 169.533 119.18C169.384 119.211 169.237 119.225 169.09 119.225Z" fill="#9FB9F9"/>
<path d="M165.358 100.07C164.207 100.07 163.232 99.1848 163.135 98.013C162.928 95.4805 162.824 92.9147 162.83 90.3842C162.832 89.4306 163.427 88.6183 164.267 88.2963H165.861C166.701 88.6204 167.297 89.4389 167.295 90.3946C167.289 92.8004 167.386 95.2374 167.585 97.6453C167.678 98.7879 166.9 99.8018 165.807 100.024C165.72 100.041 165.633 100.055 165.544 100.062C165.482 100.068 165.42 100.07 165.358 100.07Z" fill="#8BABF8"/>
<path d="M165.861 88.2966H164.267C164.515 88.2031 164.784 88.1491 165.068 88.1491C165.347 88.1512 165.614 88.2031 165.861 88.2966ZM165.933 80.566C165.828 80.566 165.722 80.5598 165.614 80.5432C164.395 80.3687 163.546 79.2343 163.72 78.0086C164.078 75.4989 164.548 72.9705 165.12 70.5003C165.36 69.4636 166.281 68.7655 167.295 68.7655C167.461 68.7655 167.631 68.7842 167.8 68.8237C169.001 69.1042 169.748 70.307 169.469 71.512C168.926 73.8597 168.479 76.2572 168.14 78.6422C168.003 79.6062 167.275 80.3396 166.374 80.5224C166.231 80.5515 166.084 80.566 165.933 80.566ZM170.833 61.6769C170.566 61.6769 170.295 61.6291 170.032 61.5273C168.881 61.0827 168.307 59.7863 168.75 58.6312C169.659 56.2627 170.682 53.9047 171.787 51.6257C172.174 50.8279 172.969 50.3646 173.797 50.3646C174.124 50.3646 174.457 50.4373 174.77 50.591C175.879 51.1333 176.341 52.4733 175.801 53.5869C174.751 55.7517 173.781 57.9913 172.917 60.2413C172.632 60.983 171.998 61.4857 171.276 61.6332C171.131 61.6623 170.982 61.6769 170.833 61.6769Z" fill="#8BABF8"/>
<path d="M183.506 40.7163H178.056C179.434 38.6678 180.914 36.6484 182.459 34.7163C182.899 34.1637 183.547 33.8749 184.201 33.8749C184.69 33.8749 185.185 34.037 185.597 34.3694C186.557 35.1422 186.712 36.5529 185.94 37.5189C185.108 38.5619 184.295 39.6297 183.506 40.7163Z" fill="url(#paint1_linear_88_7027)"/>
<path d="M183.502 40.7227H178.051C178.053 40.7206 178.055 40.7185 178.055 40.7165H183.506C183.506 40.7185 183.504 40.7206 183.502 40.7227Z" fill="#8BABF8"/>
<path d="M179.804 44.3604C179.376 44.3604 178.943 44.2357 178.562 43.9781C177.538 43.2883 177.264 41.8964 177.952 40.87C177.985 40.8202 178.018 40.7724 178.051 40.7225H183.501C182.87 41.5951 182.253 42.4781 181.659 43.3673C181.318 43.8783 180.804 44.2024 180.249 44.3146C180.102 44.3437 179.953 44.3604 179.804 44.3604Z" fill="#8BABF8"/>
<path d="M192.369 29.4663C191.777 29.4663 191.185 29.2315 190.746 28.7641C189.9 27.8645 189.941 26.4476 190.837 25.5979C192.675 23.8569 194.609 22.1741 196.588 20.5951C197 20.2669 197.49 20.109 197.977 20.109C198.633 20.109 199.285 20.3999 199.726 20.9566C200.492 21.9227 200.33 23.3334 199.366 24.1041C197.486 25.6021 195.648 27.2018 193.903 28.8555C193.588 29.1526 193.212 29.3416 192.816 29.4206C192.669 29.4517 192.52 29.4663 192.369 29.4663ZM207.906 17.7468C207.143 17.7468 206.397 17.352 205.981 16.6415C205.356 15.5757 205.71 14.2025 206.772 13.5751C208.95 12.287 211.208 11.0799 213.487 9.98502C213.8 9.83751 214.127 9.76687 214.45 9.76687C215.284 9.76687 216.081 10.2343 216.466 11.0384C216.998 12.154 216.526 13.492 215.414 14.028C213.251 15.0668 211.105 16.2136 209.037 17.4352C208.817 17.5661 208.585 17.6533 208.349 17.7011C208.202 17.7322 208.053 17.7468 207.906 17.7468Z" fill="url(#paint2_linear_88_7027)"/>
<path d="M223.628 6.63379C223.88 6.077 224.359 5.62407 224.986 5.42463C227.391 4.66008 229.865 3.99113 232.332 3.43435L232.378 3.42396C232.529 3.3928 232.678 3.37823 232.823 3.37823C233.522 3.37823 234.175 3.71066 234.593 4.25498C230.894 4.95512 227.23 5.75083 223.628 6.63379Z" fill="#D8E0FC"/>
<path d="M225.659 9.80225C224.711 9.80225 223.833 9.19143 223.531 8.23783C223.357 7.68727 223.407 7.12012 223.628 6.63397C227.23 5.75101 230.894 4.9553 234.593 4.25516C234.783 4.50447 234.926 4.79948 235.001 5.12774C235.27 6.3348 234.514 7.53356 233.312 7.80572C230.966 8.33342 228.619 8.97122 226.334 9.69837C226.255 9.72122 226.178 9.742 226.1 9.75863C225.953 9.78771 225.806 9.80225 225.659 9.80225ZM271.478 7.91167C271.312 7.91167 271.145 7.89295 270.975 7.85348C268.64 7.31331 266.247 6.86872 263.867 6.53216C262.645 6.35972 261.797 5.22536 261.969 4.00168C262.126 2.88187 263.08 2.07373 264.175 2.07373C264.279 2.07373 264.384 2.07996 264.49 2.0945C266.996 2.44976 269.516 2.91929 271.977 3.48647C273.18 3.76486 273.929 4.96774 273.652 6.17273C273.449 7.05777 272.751 7.69765 271.919 7.86594C271.776 7.8971 271.629 7.91167 271.478 7.91167Z" fill="url(#paint3_linear_88_7027)"/>
<path d="M242.688 2.88818C243.003 2.1548 243.701 1.61465 244.549 1.54609C247.058 1.33417 249.606 1.22613 252.119 1.22613C252.132 1.22613 252.142 1.22613 252.155 1.22613C252.6 1.22613 253.014 1.35701 253.363 1.58139C253.167 1.60216 252.98 1.62295 252.802 1.64165C250.989 1.83486 248.917 2.04055 246.139 2.40621C244.982 2.55787 243.835 2.71782 242.688 2.88818Z" fill="#D8E0FC"/>
<path d="M244.736 6.01904C243.587 6.01904 242.612 5.13606 242.513 3.96847C242.482 3.5862 242.546 3.21847 242.688 2.88814C243.835 2.71778 244.982 2.55782 246.139 2.40616C248.917 2.04051 250.989 1.83482 252.802 1.6416C252.98 1.6229 253.167 1.60212 253.363 1.58135C253.978 1.98231 254.386 2.67624 254.386 3.46572C254.384 4.5502 253.618 5.45392 252.6 5.66168C252.455 5.68869 252.308 5.7053 252.155 5.7053H252.152C252.136 5.7053 252.121 5.7053 252.105 5.7053C249.72 5.7053 247.307 5.8092 244.926 6.01072C244.862 6.01696 244.798 6.01904 244.736 6.01904Z" fill="url(#paint4_linear_88_7027)"/>
<path d="M286.369 12.8147C286.073 12.8147 285.775 12.7544 285.487 12.6298C284.429 12.1727 283.347 11.7302 282.264 11.3126C281.115 10.868 280.54 9.57164 280.983 8.41859C281.322 7.52732 282.169 6.97883 283.065 6.97883C283.332 6.97883 283.604 7.02871 283.866 7.13051C285.003 7.56887 286.143 8.03423 287.255 8.51622C288.387 9.00653 288.909 10.3258 288.42 11.4601C288.12 12.1602 287.505 12.6277 286.812 12.769C286.667 12.7981 286.518 12.8147 286.369 12.8147Z" fill="url(#paint5_linear_88_7027)"/>
<path d="M333.362 62.217C332.459 62.217 331.609 61.6644 331.273 60.7648C330.868 59.6824 330.435 58.5917 329.984 57.5218C329.503 56.3833 330.033 55.0681 331.17 54.5862C331.455 54.4657 331.749 54.4075 332.041 54.4075C332.911 54.4075 333.735 54.9227 334.095 55.7766C334.569 56.9026 335.026 58.0515 335.453 59.19C335.885 60.3493 335.302 61.6395 334.147 62.0758C334.035 62.1173 333.919 62.1505 333.805 62.1734C333.656 62.2025 333.509 62.217 333.362 62.217Z" fill="#8BABF8"/>
<path d="M251.904 180.204C250.323 180.204 248.741 180.162 247.176 180.079C245.945 180.012 244.999 178.959 245.065 177.723C245.129 176.53 246.112 175.602 247.286 175.602C247.327 175.602 247.371 175.604 247.412 175.606C248.901 175.685 250.406 175.724 251.906 175.724C252.782 175.724 253.657 175.71 254.529 175.683C254.552 175.683 254.577 175.683 254.599 175.683C255.8 175.683 256.791 176.641 256.829 177.854C256.862 178.961 256.09 179.904 255.044 180.118C254.922 180.143 254.796 180.158 254.666 180.162C253.749 180.189 252.825 180.204 251.904 180.204ZM266.4 178.99C265.33 178.99 264.384 178.215 264.2 177.121C263.995 175.901 264.821 174.74 266.032 174.538C268.387 174.141 270.722 173.649 272.997 173.067C273.182 173.021 273.366 172.999 273.548 172.999C274.546 172.999 275.452 173.672 275.711 174.686C276.015 175.884 275.293 177.106 274.099 177.409C272.691 177.771 271.248 178.101 269.814 178.392C268.806 178.598 267.793 178.787 266.771 178.959C266.647 178.98 266.522 178.99 266.4 178.99ZM235.524 178.637C235.384 178.637 235.241 178.625 235.098 178.598C232.655 178.124 230.202 177.54 227.81 176.863C226.621 176.526 225.932 175.288 226.267 174.098C226.545 173.111 227.439 172.465 228.412 172.465C228.615 172.465 228.818 172.494 229.02 172.55C231.293 173.194 233.622 173.749 235.942 174.197C237.153 174.43 237.946 175.606 237.712 176.821C237.536 177.74 236.824 178.419 235.963 178.594C235.82 178.623 235.673 178.637 235.524 178.637ZM284.811 173.761C283.931 173.761 283.097 173.233 282.743 172.365C282.279 171.218 282.828 169.911 283.97 169.444C286.154 168.553 288.332 167.555 290.439 166.477C290.764 166.313 291.11 166.234 291.449 166.234C292.263 166.234 293.047 166.681 293.441 167.458C293.999 168.561 293.563 169.909 292.463 170.47C290.244 171.607 287.953 172.656 285.653 173.595C285.521 173.649 285.386 173.688 285.254 173.715C285.107 173.747 284.958 173.761 284.811 173.761ZM301.617 164.605C300.913 164.605 300.218 164.269 299.785 163.643C299.079 162.63 299.33 161.231 300.34 160.525C302.275 159.175 304.18 157.72 306.001 156.204C306.417 155.857 306.922 155.688 307.423 155.688C308.065 155.688 308.702 155.965 309.143 156.499C309.93 157.45 309.8 158.863 308.849 159.652C306.933 161.248 304.929 162.779 302.892 164.202C302.633 164.383 302.35 164.501 302.06 164.56C301.915 164.591 301.766 164.605 301.617 164.605ZM316.014 151.968C315.476 151.968 314.935 151.774 314.507 151.38C313.598 150.542 313.536 149.125 314.37 148.213C315.968 146.464 317.512 144.627 318.957 142.756C319.396 142.184 320.054 141.885 320.723 141.885C321.199 141.885 321.681 142.039 322.089 142.355C323.062 143.113 323.24 144.519 322.487 145.498C320.965 147.47 319.342 149.402 317.659 151.242C317.328 151.604 316.906 151.832 316.461 151.924C316.314 151.953 316.165 151.968 316.014 151.968ZM327.328 136.481C326.949 136.481 326.566 136.384 326.215 136.182C325.146 135.563 324.78 134.194 325.395 133.122C326.577 131.065 327.686 128.936 328.688 126.792C329.069 125.979 329.872 125.504 330.711 125.504C331.027 125.504 331.352 125.572 331.659 125.715C332.774 126.243 333.255 127.577 332.729 128.697C331.673 130.953 330.508 133.195 329.264 135.36C328.93 135.939 328.378 136.313 327.773 136.436C327.626 136.467 327.477 136.481 327.328 136.481Z" fill="#BFCEFA"/>
<path d="M335.008 118.888C334.789 118.888 334.565 118.855 334.343 118.785C333.166 118.417 332.509 117.162 332.878 115.98C333.582 113.713 334.199 111.393 334.708 109.08C334.938 108.035 335.863 107.323 336.885 107.323C337.045 107.323 337.206 107.339 337.37 107.377C338.572 107.643 339.332 108.839 339.067 110.048C338.529 112.483 337.881 114.929 337.14 117.314C336.887 118.122 336.223 118.687 335.451 118.843C335.306 118.872 335.159 118.888 335.008 118.888Z" fill="#9FB9F9"/>
<path d="M338.653 100.024C338.593 100.024 338.531 100.022 338.468 100.018C337.241 99.918 336.324 98.8376 336.423 97.6056C336.612 95.2455 336.703 92.846 336.692 90.4734C336.688 89.4284 337.398 88.5496 338.357 88.2961H339.495C340.449 88.5496 341.153 89.418 341.157 90.4547C341.168 92.9519 341.073 95.4782 340.874 97.963C340.791 98.981 340.044 99.7871 339.094 99.9803C338.951 100.009 338.802 100.024 338.653 100.024Z" fill="#8BABF8"/>
<path d="M339.495 88.2966H338.357C338.535 88.2509 338.723 88.2239 338.916 88.2239C338.92 88.2239 338.922 88.2239 338.926 88.2239C339.123 88.2239 339.313 88.2488 339.495 88.2966ZM338.071 80.8341C336.974 80.8341 336.018 80.0238 335.863 78.904C335.62 77.1755 335.324 75.4324 334.979 73.7246C334.853 73.1055 334.72 72.4906 334.583 71.8777C334.312 70.6706 335.068 69.4698 336.27 69.1997C336.444 69.1561 336.62 69.1353 336.79 69.1353C337.804 69.1353 338.707 69.8583 338.939 70.8909C339.084 71.5349 339.222 72.181 339.353 72.8334C339.717 74.6305 340.03 76.4629 340.284 78.2828C340.448 79.4608 339.667 80.5556 338.518 80.7883C338.475 80.7966 338.429 80.805 338.384 80.8112C338.278 80.8258 338.173 80.8341 338.071 80.8341Z" fill="#8BABF8"/>
<path d="M217.193 172.911C216.895 172.911 216.592 172.851 216.301 172.724C215.514 172.379 214.721 172.016 213.935 171.642V166.928C213.941 166.928 213.949 166.928 213.957 166.928C214.286 166.928 214.62 167 214.934 167.154C215.978 167.665 217.04 168.158 218.091 168.619C219.219 169.113 219.735 170.435 219.24 171.569C218.938 172.263 218.325 172.726 217.638 172.868C217.493 172.897 217.344 172.911 217.193 172.911Z" fill="#9FB9F9"/>
<path d="M213.934 171.642C213.613 171.49 213.295 171.337 212.978 171.183C211.871 170.641 211.409 169.299 211.949 168.187C212.334 167.398 213.115 166.936 213.934 166.928V171.642Z" fill="#BFCEFA"/>
<path d="M215.439 146.801C215.785 147.083 216.269 147.116 216.648 146.882L227.455 140.192C232.779 142.812 238.559 144.601 244.609 145.4L249.912 156.968C250.099 157.375 250.521 157.616 250.964 157.573L266.12 156.058C266.563 156.015 266.93 155.693 267.031 155.258L269.958 142.866C275.733 140.884 281.047 137.988 285.75 134.364L297.661 138.783C298.079 138.937 298.547 138.81 298.83 138.463L308.479 126.638C308.76 126.291 308.793 125.805 308.559 125.425L301.894 114.578C304.506 109.234 306.289 103.434 307.083 97.361L318.611 92.0383C319.015 91.8513 319.257 91.4275 319.214 90.9829L317.702 75.771C317.659 75.3264 317.338 74.9587 316.905 74.8569L304.558 71.9193C302.585 66.1229 299.7 60.7898 296.09 56.0696L300.49 44.1153C300.646 43.6956 300.517 43.2261 300.174 42.9415L288.389 33.258C288.046 32.9754 287.559 32.9422 287.18 33.1769L276.373 39.8667C271.049 37.2448 265.272 35.456 259.221 34.6583L253.916 23.0883C253.73 22.6832 253.307 22.4401 252.864 22.4838L237.71 24.0004C237.267 24.044 236.901 24.366 236.797 24.8002L233.87 37.1929C228.097 39.1728 222.783 42.0689 218.078 45.6942L206.17 41.2753C205.751 41.1195 205.282 41.2482 205 41.5931L195.35 53.4207C195.068 53.7655 195.037 54.2538 195.269 54.634L201.934 65.4809C199.322 70.8244 197.542 76.6228 196.745 82.6955L185.219 88.0203C184.814 88.2073 184.573 88.6311 184.617 89.0757L186.126 104.286C186.169 104.73 186.49 105.098 186.923 105.202L199.27 108.139C201.245 113.934 204.131 119.267 207.741 123.989L203.338 135.941C203.185 136.361 203.311 136.833 203.657 137.115L215.439 146.801Z" fill="#7D97F4"/>
<path d="M249.604 78.4757C249.039 78.5921 248.48 78.7479 247.927 78.9473C241.84 81.1537 238.677 87.9203 240.875 94.0304C243.073 100.14 249.813 103.319 255.901 101.109C261.989 98.9023 265.154 92.1357 262.955 86.0277C261.889 83.0671 259.741 80.7008 256.903 79.3628C254.595 78.2783 252.057 77.9771 249.604 78.4757ZM254.951 105.089C247.636 106.579 240.124 102.499 237.515 95.2478C234.648 87.2783 238.776 78.455 246.714 75.5775C250.562 74.1814 254.719 74.3746 258.42 76.1198C262.121 77.8628 264.926 80.948 266.313 84.8102C269.182 92.7797 265.054 101.603 257.114 104.481C256.398 104.74 255.675 104.942 254.951 105.089Z" fill="#91B3FA"/>
<path d="M259.654 126.777C258.399 127.033 257.122 127.228 255.828 127.357C255.423 127.398 255.015 127.432 254.607 127.459C252.595 127.596 250.575 127.569 248.579 127.384C248.55 127.382 248.523 127.38 248.497 127.378C248.42 127.369 248.343 127.361 248.265 127.353C248.116 127.338 247.965 127.321 247.816 127.305C247.42 127.259 247.116 126.964 247.041 126.594C247.023 126.503 247.019 126.409 247.029 126.314C247.085 125.821 247.528 125.47 248.016 125.524C250.538 125.811 253.106 125.828 255.653 125.572C268.296 124.311 278.764 116.564 284.113 105.947C287.089 100.045 288.48 93.2516 287.779 86.1941C287.657 84.9559 287.472 83.7343 287.23 82.5313C285.593 74.4393 281.269 67.2177 274.816 61.9158C267.406 55.8264 258.076 52.9968 248.544 53.9483C228.863 55.9179 214.458 73.5813 216.418 93.3284C216.538 94.5459 216.72 95.753 216.96 96.9434C218.006 102.106 220.165 106.98 223.299 111.212C223.379 111.32 223.431 111.443 223.458 111.567C223.524 111.898 223.402 112.251 223.114 112.465C222.719 112.76 222.16 112.679 221.866 112.28C218.575 107.838 216.308 102.719 215.211 97.3007C214.959 96.05 214.768 94.7827 214.64 93.505C212.582 72.7752 227.72 54.2309 248.368 52.1658C258.372 51.1644 268.168 54.1353 275.947 60.53C282.72 66.0958 287.259 73.6768 288.979 82.172C289.234 83.4351 289.428 84.717 289.557 86.0154C290.552 96.0584 287.594 105.889 281.223 113.697C275.678 120.497 268.12 125.053 259.654 126.777Z" fill="#91B3FA"/>
<path d="M106.308 192.272C105.813 192.272 105.336 192.004 105.089 191.535C104.542 190.496 104.019 189.426 103.535 188.356C103.221 187.66 103.528 186.839 104.222 186.524C104.407 186.438 104.6 186.399 104.791 186.399C105.315 186.399 105.816 186.702 106.047 187.211C106.508 188.231 107.006 189.251 107.527 190.242C107.882 190.918 107.625 191.755 106.952 192.112C106.832 192.175 106.707 192.218 106.581 192.245C106.491 192.264 106.399 192.272 106.308 192.272Z" fill="#BFCEFA"/>
<path d="M102.239 182.443C101.651 182.443 101.106 182.063 100.923 181.471C100.324 179.539 99.8166 177.555 99.4163 175.575C99.3318 175.157 99.2519 174.738 99.1756 174.316C99.0406 173.564 99.5831 172.864 100.286 172.706C100.369 172.691 100.452 172.685 100.533 172.685C101.188 172.685 101.768 173.153 101.889 173.821C101.962 174.225 102.038 174.626 102.118 175.024C102.501 176.913 102.984 178.806 103.555 180.648C103.782 181.378 103.376 182.153 102.649 182.381C102.603 182.393 102.557 182.406 102.512 182.416C102.421 182.433 102.329 182.443 102.239 182.443ZM99.6864 168.306C98.9603 168.306 98.3521 167.738 98.3099 167.001C98.1694 164.554 98.1793 162.075 98.3395 159.636C98.3871 158.905 98.9982 158.344 99.7162 158.344C99.7458 158.344 99.7755 158.346 99.8055 158.346C100.566 158.398 101.14 159.054 101.091 159.819C100.938 162.146 100.929 164.508 101.063 166.843C101.102 167.539 100.623 168.144 99.9622 168.279C99.8984 168.291 99.8322 168.299 99.7657 168.304C99.7392 168.306 99.7127 168.306 99.6864 168.306ZM100.632 153.97C100.545 153.97 100.458 153.962 100.37 153.946C99.6225 153.8 99.1335 153.075 99.2772 152.325C99.7392 149.921 100.355 147.52 101.111 145.189C101.3 144.603 101.839 144.231 102.42 144.231C102.562 144.231 102.706 144.254 102.849 144.299C103.572 144.536 103.968 145.317 103.733 146.042C103.013 148.265 102.425 150.555 101.985 152.849C101.876 153.416 101.436 153.833 100.905 153.941C100.816 153.96 100.725 153.97 100.632 153.97ZM105.057 140.304C104.861 140.304 104.662 140.263 104.473 140.175C103.783 139.851 103.485 139.027 103.808 138.335C104.845 136.114 106.028 133.937 107.325 131.867C107.587 131.45 108.036 131.221 108.493 131.221C108.744 131.221 108.998 131.29 109.226 131.433C109.87 131.84 110.064 132.694 109.659 133.34C108.423 135.314 107.294 137.389 106.306 139.509C106.113 139.92 105.744 140.192 105.33 140.277C105.24 140.296 105.149 140.304 105.057 140.304Z" fill="#BFCEFA"/>
<path d="M118.572 122.375H114.685C115.301 121.724 115.933 121.086 116.577 120.469C116.844 120.21 117.187 120.083 117.529 120.083C117.893 120.083 118.253 120.224 118.524 120.509C119.023 121.03 119.034 121.841 118.572 122.375Z" fill="#9FB9F9"/>
<path d="M112.671 128.14C112.365 128.14 112.056 128.038 111.799 127.828C111.212 127.346 111.123 126.474 111.603 125.882C112.582 124.677 113.613 123.503 114.685 122.375H118.572C118.546 122.406 118.517 122.435 118.486 122.466C116.809 124.08 115.211 125.817 113.741 127.631C113.532 127.889 113.248 128.051 112.946 128.111C112.855 128.129 112.764 128.14 112.671 128.14Z" fill="#BFCEFA"/>
<path d="M122.998 118.199C122.58 118.199 122.164 118.008 121.892 117.642C121.437 117.031 121.563 116.165 122.172 115.708C124.128 114.241 126.192 112.885 128.309 111.675C128.527 111.553 128.761 111.495 128.99 111.495C129.471 111.495 129.936 111.746 130.191 112.195C130.568 112.858 130.336 113.703 129.673 114.081C127.655 115.234 125.687 116.527 123.822 117.925C123.654 118.051 123.466 118.132 123.273 118.172C123.182 118.191 123.091 118.199 122.998 118.199ZM135.43 111.096C134.89 111.096 134.376 110.776 134.157 110.244C133.865 109.538 134.198 108.727 134.902 108.434C137.148 107.497 139.483 106.691 141.841 106.037C141.961 106.006 142.083 105.991 142.201 105.991C142.812 105.991 143.368 106.386 143.538 107.003C143.741 107.738 143.31 108.501 142.578 108.705C140.328 109.328 138.1 110.099 135.958 110.99C135.873 111.025 135.788 111.052 135.703 111.069C135.612 111.087 135.521 111.096 135.43 111.096Z" fill="#9FB9F9"/>
<path d="M157.712 104.954H148.196C148.403 104.72 148.691 104.558 149.022 104.518C149.341 104.47 149.659 104.425 149.98 104.385C152.087 104.105 154.228 103.936 156.335 103.884C156.347 103.884 156.358 103.884 156.37 103.884C157.02 103.884 157.571 104.339 157.712 104.954Z" fill="#8BABF8"/>
<path d="M149.225 107.271C148.552 107.271 147.964 106.778 147.863 106.091C147.798 105.667 147.933 105.253 148.196 104.954H157.712C157.734 105.044 157.745 105.137 157.747 105.235C157.765 105.914 157.289 106.492 156.645 106.625C156.567 106.639 156.486 106.65 156.403 106.652C154.393 106.699 152.352 106.861 150.334 107.129C150.028 107.167 149.728 107.208 149.43 107.254C149.361 107.265 149.293 107.271 149.225 107.271Z" fill="#9FB9F9"/>
<path d="M157.666 223.398C157.132 223.398 156.598 223.392 156.064 223.377C155.302 223.355 154.702 222.721 154.722 221.956C154.743 221.202 155.362 220.61 156.103 220.61C156.116 220.61 156.126 220.61 156.138 220.61C156.648 220.625 157.157 220.631 157.67 220.631C159.454 220.631 161.249 220.548 163.023 220.382C163.067 220.377 163.11 220.375 163.153 220.375C163.855 220.375 164.456 220.913 164.524 221.63C164.59 222.341 164.108 222.974 163.427 223.114C163.377 223.124 163.329 223.13 163.278 223.136C161.421 223.311 159.539 223.398 157.666 223.398ZM149.073 222.752C149.005 222.752 148.937 222.748 148.869 222.738C146.492 222.378 144.116 221.869 141.804 221.221C141.071 221.017 140.642 220.253 140.845 219.517C141.017 218.906 141.572 218.506 142.176 218.506C142.296 218.506 142.421 218.522 142.545 218.555C144.749 219.172 147.014 219.659 149.278 220.001C150.032 220.116 150.549 220.82 150.435 221.576C150.346 222.166 149.899 222.613 149.347 222.725C149.258 222.744 149.167 222.752 149.073 222.752ZM170.123 222.062C169.488 222.062 168.916 221.62 168.776 220.972C168.614 220.224 169.088 219.488 169.831 219.326C172.073 218.84 174.302 218.211 176.459 217.458C176.606 217.409 176.757 217.386 176.906 217.386C177.478 217.386 178.016 217.739 178.215 218.312C178.465 219.035 178.082 219.823 177.364 220.074C175.101 220.861 172.764 221.52 170.415 222.031L170.398 222.035C170.305 222.054 170.214 222.062 170.123 222.062ZM183.421 217.423C182.914 217.423 182.423 217.141 182.183 216.65C181.848 215.967 182.129 215.136 182.812 214.799C184.87 213.781 186.882 212.63 188.794 211.377C189.028 211.226 189.291 211.153 189.548 211.153C189.999 211.153 190.438 211.373 190.703 211.781C191.119 212.418 190.939 213.276 190.301 213.696C188.298 215.009 186.186 216.216 184.029 217.282C183.92 217.336 183.808 217.373 183.694 217.396C183.603 217.415 183.512 217.423 183.421 217.423ZM195.203 209.697C194.81 209.697 194.421 209.531 194.147 209.206C193.657 208.621 193.731 207.748 194.313 207.256C196.064 205.776 197.741 204.175 199.3 202.492C199.573 202.199 199.941 202.051 200.31 202.051C200.647 202.051 200.985 202.174 201.249 202.421C201.806 202.943 201.837 203.819 201.32 204.378C199.685 206.14 197.925 207.821 196.091 209.373C195.907 209.526 195.696 209.626 195.478 209.67C195.387 209.688 195.294 209.697 195.203 209.697ZM204.795 199.359C204.514 199.359 204.23 199.274 203.986 199.095C203.369 198.644 203.233 197.78 203.682 197.161C205.029 195.299 206.277 193.34 207.391 191.337C207.644 190.882 208.114 190.627 208.596 190.627C208.824 190.627 209.053 190.683 209.267 190.801C209.931 191.173 210.169 192.017 209.799 192.684C208.633 194.784 207.325 196.839 205.911 198.79C205.7 199.08 205.398 199.265 205.071 199.332C204.982 199.35 204.889 199.359 204.795 199.359Z" fill="#BFCEFA"/>
<path d="M213.935 183.488V177.536C214.046 177.538 214.158 177.552 214.272 177.584C215.007 177.785 215.442 178.543 215.241 179.283C214.86 180.692 214.421 182.098 213.935 183.488Z" fill="#9FB9F9"/>
<path d="M211.647 187.01C211.473 187.01 211.299 186.976 211.127 186.908C210.424 186.619 210.084 185.811 210.372 185.102C211.239 182.973 211.982 180.769 212.581 178.556C212.746 177.941 213.303 177.536 213.91 177.536C213.918 177.536 213.926 177.536 213.934 177.536V183.488C213.618 184.383 213.282 185.273 212.926 186.149C212.744 186.594 212.359 186.893 211.922 186.982C211.831 187.001 211.74 187.01 211.647 187.01Z" fill="#BFCEFA"/>
<path d="M135.446 218.936C135.268 218.936 135.09 218.902 134.916 218.83C133.828 218.375 132.747 217.884 131.704 217.375C131.019 217.039 130.735 216.212 131.068 215.524C131.308 215.034 131.799 214.747 132.31 214.747C132.513 214.747 132.718 214.791 132.913 214.886C133.906 215.373 134.937 215.84 135.976 216.274C136.68 216.569 137.011 217.379 136.719 218.084C136.535 218.524 136.152 218.821 135.72 218.909C135.631 218.927 135.537 218.936 135.446 218.936Z" fill="#BFCEFA"/>
<path d="M133.3 201.162C133.532 201.351 133.855 201.374 134.109 201.216L141.342 196.739C144.904 198.494 148.771 199.691 152.818 200.225L156.368 207.966C156.492 208.238 156.776 208.4 157.072 208.371L167.213 207.357C167.511 207.328 167.755 207.112 167.823 206.821L169.781 198.53C173.646 197.204 177.202 195.266 180.349 192.841L188.318 195.798C188.598 195.902 188.912 195.814 189.101 195.584L195.559 187.67C195.747 187.438 195.768 187.112 195.613 186.858L191.152 179.599C192.899 176.024 194.091 172.143 194.623 168.081L202.338 164.518C202.609 164.391 202.771 164.109 202.74 163.812L201.73 153.634C201.701 153.335 201.487 153.089 201.198 153.021L192.934 151.055C191.614 147.177 189.682 143.607 187.267 140.45L190.212 132.449C190.316 132.17 190.231 131.855 190.001 131.666L182.114 125.184C181.885 124.995 181.56 124.974 181.307 125.13L174.075 129.607C170.512 127.853 166.645 126.657 162.597 126.121L159.047 118.38C158.922 118.107 158.641 117.945 158.343 117.975L148.202 118.988C147.906 119.02 147.662 119.234 147.591 119.524L145.633 127.818C141.77 129.143 138.214 131.082 135.066 133.506L127.096 130.55C126.817 130.446 126.502 130.531 126.314 130.762L119.858 138.677C119.669 138.908 119.646 139.234 119.804 139.488L124.263 146.747C122.515 150.322 121.323 154.203 120.791 158.267L113.078 161.83C112.807 161.954 112.646 162.237 112.675 162.534L113.685 172.714C113.714 173.011 113.929 173.256 114.219 173.325L122.48 175.292C123.801 179.169 125.732 182.738 128.148 185.898L125.202 193.897C125.099 194.177 125.186 194.491 125.415 194.682L133.3 201.162Z" fill="#7D97F4"/>
<path d="M156.186 155.626C155.823 155.701 155.461 155.803 155.101 155.931C151.125 157.375 149.057 161.794 150.493 165.787C151.189 167.722 152.594 169.269 154.447 170.142C156.304 171.017 158.386 171.11 160.313 170.414C162.24 169.716 163.783 168.305 164.652 166.446C165.523 164.582 165.619 162.492 164.923 160.558C163.617 156.927 159.852 154.88 156.186 155.626ZM159.761 173.437C157.581 173.879 155.327 173.614 153.277 172.647C150.754 171.459 148.846 169.357 147.9 166.726C145.948 161.302 148.757 155.29 154.165 153.328C159.585 151.375 165.563 154.19 167.517 159.619C168.463 162.247 168.332 165.089 167.148 167.62C165.964 170.152 163.87 172.068 161.249 173.017C160.758 173.194 160.262 173.335 159.761 173.437Z" fill="#91B3FA"/>
<path d="M163.017 188.537C162.162 188.709 161.29 188.842 160.404 188.931C158.645 189.108 156.867 189.104 155.113 188.921C155.035 188.913 154.956 188.904 154.877 188.894C154.267 188.825 153.797 188.368 153.681 187.797C153.652 187.658 153.646 187.512 153.662 187.363C153.747 186.605 154.432 186.062 155.188 186.145C156.823 186.332 158.485 186.343 160.129 186.177H160.131C160.22 186.168 160.311 186.158 160.4 186.147C164.288 185.722 167.922 184.338 171.05 182.156C172.75 180.972 174.298 179.551 175.658 177.916L175.691 177.877C175.724 177.835 175.757 177.796 175.79 177.754C179.719 172.94 181.545 166.878 180.93 160.685C180.85 159.883 180.732 159.094 180.574 158.314C179.514 153.075 176.714 148.4 172.536 144.968C167.74 141.025 161.7 139.195 155.529 139.812C149.365 140.431 143.799 143.42 139.87 148.234C135.943 153.048 134.118 159.11 134.732 165.303C134.809 166.091 134.927 166.872 135.084 167.643C135.759 170.985 137.156 174.141 139.185 176.879C139.311 177.048 139.392 177.237 139.431 177.43C139.533 177.939 139.344 178.485 138.901 178.816C138.291 179.271 137.427 179.144 136.972 178.529C134.703 175.465 133.138 171.935 132.381 168.195C132.207 167.333 132.074 166.458 131.988 165.578C131.3 158.649 133.341 151.868 137.738 146.481C142.133 141.094 148.351 137.742 155.256 137.057C162.16 136.367 168.916 138.416 174.284 142.828C178.958 146.668 182.089 151.897 183.276 157.758C183.451 158.628 183.584 159.513 183.673 160.411C185.004 173.823 175.904 185.911 163.017 188.537Z" fill="#91B3FA"/>
<path d="M240.093 202.569C239.958 201.389 240.803 200.323 241.978 200.19C245.394 199.797 248.94 199.5 252.515 199.309L253.694 199.247L254.529 200.431C255.21 201.399 254.98 202.741 254.013 203.425C253.384 203.873 252.599 203.932 251.937 203.647C248.722 203.834 245.539 204.106 242.463 204.461C242.281 204.482 242.103 204.478 241.929 204.455C240.981 204.324 240.206 203.564 240.093 202.569ZM219.14 206.838C218.832 205.691 219.509 204.511 220.651 204.206C224.061 203.285 227.625 202.473 231.248 201.794C232.409 201.582 233.529 202.346 233.744 203.514C233.961 204.679 233.195 205.803 232.032 206.022C228.521 206.68 225.067 207.465 221.765 208.355C221.479 208.434 221.192 208.448 220.918 208.411C220.09 208.296 219.37 207.698 219.14 206.838ZM263.396 220.465L257.213 211.689C256.53 210.719 256.76 209.379 257.725 208.691C258.689 208.006 260.027 208.236 260.712 209.204L266.895 217.98C267.578 218.95 267.348 220.292 266.381 220.978C265.92 221.306 265.373 221.425 264.854 221.352C264.287 221.275 263.753 220.97 263.396 220.465ZM199.225 214.614C198.712 213.542 199.161 212.258 200.227 211.745C203.431 210.202 206.811 208.77 210.272 207.497C211.386 207.085 212.616 207.657 213.021 208.774C213.429 209.89 212.86 211.124 211.748 211.533C208.416 212.759 205.164 214.136 202.084 215.62C201.69 215.809 201.268 215.869 200.866 215.813C200.177 215.717 199.548 215.289 199.225 214.614ZM275.763 238.018L269.58 229.242C268.898 228.272 269.128 226.93 270.093 226.244C271.058 225.559 272.393 225.789 273.08 226.758L279.263 235.533C279.946 236.503 279.716 237.846 278.75 238.531C278.288 238.859 277.742 238.978 277.222 238.905C276.655 238.828 276.121 238.523 275.763 238.018ZM181.284 226.255C180.558 225.316 180.725 223.963 181.661 223.238C184.509 221.013 187.532 218.913 190.643 216.989C191.649 216.364 192.969 216.681 193.59 217.691C194.209 218.703 193.897 220.028 192.889 220.652C189.91 222.49 187.016 224.503 184.29 226.631C183.816 227.001 183.234 227.14 182.684 227.063C182.15 226.99 181.642 226.714 181.284 226.255ZM166.285 241.527C165.374 240.769 165.246 239.414 166.002 238.5C168.332 235.675 170.827 232.961 173.414 230.439C174.263 229.612 175.621 229.635 176.443 230.483C177.266 231.334 177.248 232.697 176.399 233.526C173.923 235.938 171.535 238.533 169.301 241.242C168.811 241.837 168.067 242.098 167.357 242.001C166.977 241.949 166.604 241.791 166.285 241.527ZM287.334 260.026C286.334 254.873 285.086 251.479 284.684 250.677L281.948 246.794C281.267 245.823 281.494 244.481 282.461 243.798C283.426 243.112 284.763 243.343 285.446 244.313L288.118 248.107L288.087 248.127C289.867 250.677 291.521 259.109 291.538 259.203C291.766 260.368 291.006 261.497 289.847 261.725C289.607 261.773 289.371 261.775 289.145 261.744C288.261 261.623 287.514 260.952 287.334 260.026ZM154.743 259.589C153.7 259.026 153.311 257.724 153.872 256.677C155.61 253.436 157.498 250.28 159.483 247.296C160.139 246.305 161.475 246.046 162.454 246.702C163.437 247.361 163.702 248.697 163.046 249.681C161.137 252.553 159.318 255.594 157.645 258.715C157.208 259.529 156.327 259.945 155.465 259.826C155.219 259.791 154.975 259.714 154.743 259.589ZM288.45 280.839C288.739 277.404 288.793 273.891 288.605 270.395C288.541 269.21 289.447 268.197 290.627 268.132C291.813 268.07 292.817 268.978 292.881 270.162C293.082 273.858 293.026 277.573 292.718 281.202C292.618 282.386 291.581 283.263 290.404 283.163C290.364 283.159 290.327 283.155 290.29 283.149C289.17 282.995 288.352 281.983 288.45 280.839ZM146.56 279.432C145.44 279.046 144.844 277.824 145.227 276.7C146.415 273.218 147.73 269.792 149.135 266.516C149.605 265.427 150.864 264.927 151.951 265.394C153.037 265.864 153.54 267.131 153.07 268.222C151.708 271.392 150.433 274.714 149.28 278.094C148.943 279.083 147.96 279.665 146.964 279.528C146.829 279.509 146.695 279.478 146.56 279.432ZM284.889 303.864C283.792 303.422 283.26 302.171 283.701 301.068C284.984 297.864 286.036 294.523 286.827 291.139C287.096 289.984 288.255 289.236 289.402 289.537C290.553 289.809 291.267 290.965 290.998 292.12C290.157 295.718 289.039 299.266 287.677 302.672C287.303 303.604 286.348 304.13 285.398 303.999C285.229 303.976 285.057 303.933 284.889 303.864ZM141.3 300.262C140.141 300.027 139.39 298.893 139.622 297.729C140.342 294.122 141.17 290.557 142.079 287.131C142.383 285.983 143.575 285.276 144.697 285.607C145.842 285.912 146.523 287.09 146.217 288.237C145.333 291.577 144.526 295.055 143.822 298.577C143.598 299.697 142.545 300.436 141.433 300.282C141.39 300.276 141.344 300.27 141.3 300.262ZM273.556 322.03C272.622 321.301 272.457 319.949 273.185 319.014C273.647 318.422 274.109 317.819 274.572 317.204C276.222 315.012 277.75 312.727 279.114 310.408C279.716 309.388 281.035 309.041 282.047 309.652C283.065 310.255 283.403 311.572 282.803 312.596C281.358 315.054 279.737 317.476 277.99 319.797C277.512 320.431 277.036 321.05 276.562 321.66C276.075 322.288 275.311 322.568 274.581 322.467C274.218 322.417 273.864 322.273 273.556 322.03ZM258.621 337.377C257.845 336.48 257.938 335.123 258.83 334.342C261.397 332.102 263.931 329.645 266.363 327.033C267.17 326.169 268.524 326.121 269.389 326.931C270.254 327.742 270.3 329.102 269.491 329.971C266.959 332.688 264.32 335.25 261.643 337.587C261.157 338.013 260.536 338.177 259.944 338.094C259.449 338.028 258.975 337.784 258.621 337.377ZM136.529 319.224C136.827 315.997 137.194 312.779 137.622 309.661L137.792 308.441C137.96 307.267 139.038 306.453 140.208 306.615H140.216C141.385 306.783 142.201 307.872 142.033 309.046L141.866 310.246C141.447 313.3 141.087 316.456 140.793 319.622C140.686 320.805 139.642 321.673 138.463 321.565C138.432 321.561 138.4 321.557 138.367 321.552C137.239 321.397 136.422 320.374 136.529 319.224ZM222.682 339.453C221.666 338.846 221.33 337.529 221.935 336.509C223.69 333.54 224.386 330.808 224.845 329.001C225.04 328.238 225.205 327.621 225.371 327.179C225.46 326.942 225.551 326.742 225.634 326.578C226.182 325.527 227.451 325.184 228.499 325.735C229.548 326.285 229.927 327.648 229.376 328.699C229.254 329.028 229.142 329.495 228.997 330.066C228.507 331.988 227.689 335.204 225.619 338.703C225.166 339.469 224.311 339.85 223.483 339.735C223.21 339.698 222.937 339.604 222.682 339.453ZM240.858 349.319C240.266 348.289 240.618 346.976 241.643 346.381C244.359 344.807 247.321 343.039 250.569 340.782C251.544 340.107 252.877 340.352 253.55 341.327C254.222 342.303 253.98 343.643 253.007 344.318C249.633 346.662 246.58 348.484 243.783 350.104C243.357 350.354 242.877 350.437 242.421 350.372C241.79 350.285 241.202 349.917 240.858 349.319ZM226.789 348.083C226.822 343.934 226.812 340.327 226.756 337.365C226.733 336.176 227.673 335.196 228.857 335.173C230.028 335.169 231.016 336.093 231.038 337.282C231.094 340.286 231.107 343.93 231.072 348.118C231.063 349.307 230.097 350.26 228.913 350.252C228.819 350.25 228.726 350.244 228.635 350.231C227.586 350.086 226.778 349.178 226.789 348.083ZM135.502 340.89C135.521 337.261 135.614 333.615 135.78 330.052C135.834 328.868 136.836 327.949 138.018 328.003C139.208 328.055 140.112 329.067 140.059 330.253C139.895 333.756 139.804 337.342 139.785 340.913C139.781 342.1 138.817 343.057 137.635 343.051C137.537 343.049 137.442 343.043 137.349 343.03C136.301 342.887 135.496 341.981 135.502 340.89ZM205.253 351.407C204.814 350.304 205.35 349.053 206.449 348.615C209.85 347.254 212.835 345.619 215.317 343.753C216.263 343.043 217.606 343.238 218.314 344.185C219.024 345.137 218.832 346.483 217.884 347.196C215.1 349.288 211.786 351.11 208.035 352.61C207.679 352.751 207.306 352.791 206.952 352.743C206.213 352.639 205.547 352.153 205.253 351.407ZM226.621 358.834C226.642 357.962 227.178 357.222 227.929 356.904C228.894 355.194 230.316 353.657 232.297 352.142C233.237 351.426 234.58 351.606 235.299 352.548C236.015 353.493 235.833 354.843 234.893 355.56C232.492 357.399 231.272 359.115 230.811 361.304L226.574 360.804L226.621 358.834ZM184.586 356.919C184.201 355.797 184.795 354.573 185.913 354.187C188.446 353.308 191.034 352.629 193.601 352.165C194.617 351.982 195.596 351.787 196.546 351.579C197.699 351.332 198.844 352.063 199.094 353.225C199.347 354.384 198.614 355.529 197.457 355.782C196.457 356 195.422 356.206 194.356 356.397C192.007 356.821 189.637 357.444 187.312 358.248C186.981 358.365 186.644 358.392 186.323 358.348C185.546 358.242 184.859 357.712 184.586 356.919ZM136.225 362.549C135.968 358.921 135.778 355.28 135.66 351.729C135.62 350.543 136.548 349.548 137.728 349.508C138.92 349.471 139.903 350.397 139.941 351.586C140.059 355.084 140.245 358.67 140.497 362.244C140.58 363.428 139.692 364.456 138.512 364.539C138.361 364.552 138.212 364.545 138.067 364.525C137.086 364.39 136.297 363.579 136.225 362.549ZM166.416 368.142C165.672 367.217 165.819 365.865 166.741 365.119C169.703 362.723 172.76 360.611 175.828 358.836C176.85 358.242 178.161 358.593 178.753 359.626C179.343 360.654 178.991 361.967 177.966 362.559C175.091 364.223 172.218 366.212 169.427 368.468C168.949 368.854 168.355 369.002 167.792 368.923C167.271 368.852 166.772 368.588 166.416 368.142ZM151.839 383.873C150.909 383.14 150.748 381.787 151.479 380.852C153.785 377.904 156.198 375.116 158.651 372.569C159.473 371.713 160.829 371.688 161.679 372.513C162.53 373.338 162.555 374.701 161.733 375.554C159.38 378 157.063 380.674 154.846 383.509C154.36 384.133 153.598 384.411 152.87 384.311C152.505 384.259 152.149 384.116 151.839 383.873ZM138.525 384.093C138.018 380.572 137.564 376.953 137.179 373.338C137.053 372.158 137.906 371.098 139.081 370.971C140.255 370.853 141.313 371.698 141.439 372.883C141.82 376.442 142.265 380.009 142.764 383.478C142.934 384.652 142.122 385.745 140.951 385.913C140.748 385.942 140.547 385.942 140.352 385.915C139.429 385.788 138.665 385.063 138.525 384.093ZM140.942 397.971C140.942 397.971 140.694 396.862 140.301 394.807C140.079 393.642 140.841 392.514 142 392.291C142.516 392.192 143.017 392.287 143.439 392.52C143.934 391.703 144.503 390.783 145.142 389.786C145.784 388.788 147.111 388.504 148.105 389.144C149.098 389.788 149.384 391.117 148.742 392.117C146.935 394.928 145.761 397.022 145.196 398.027C145.035 398.316 144.923 398.516 144.861 398.615L142.11 403.142L140.942 397.971Z" fill="white"/>
<path d="M270.59 231.499C270.59 231.499 283.701 277.278 251.254 290.564C218.809 303.847 182.787 309.168 176.318 324.395C176.318 324.395 168.084 231.617 259.478 218.929L270.59 231.499Z" fill="url(#paint6_linear_88_7027)"/>
<path d="M368.003 209.059C368.003 209.059 395.743 246.636 389.032 260.983C382.648 274.633 299.95 340.375 291.896 346.759C291.534 347.046 291.024 346.996 290.71 346.656C288.118 343.845 287.017 339.972 287.75 336.212C291.289 318.05 302.32 263.913 310.886 248.618C321.23 230.148 368.003 209.059 368.003 209.059Z" fill="url(#paint7_linear_88_7027)"/>
<path d="M317.266 318.515C317.551 318.552 317.851 318.477 318.091 318.28C318.541 317.91 363.211 281.119 381.824 264.53C385.14 261.577 386.409 256.938 385.062 252.712C382.936 246.048 378.367 233.133 371.661 221.52C371.363 221.007 370.71 220.828 370.195 221.129C369.684 221.426 369.51 222.085 369.806 222.598C376.411 234.037 380.922 246.785 383.021 253.367C384.112 256.782 383.083 260.532 380.402 262.921C361.82 279.482 317.181 316.25 316.734 316.618C316.276 316.994 316.21 317.671 316.585 318.133C316.763 318.349 317.009 318.477 317.266 318.515Z" fill="#91B3FA"/>
<path d="M294.477 129.316C294.477 129.316 259.296 98.6509 244.524 104.256C230.471 109.587 158.765 187.253 151.802 194.819C151.489 195.16 151.499 195.673 151.812 196.014C154.406 198.825 158.167 200.225 161.959 199.782C180.274 197.647 234.905 190.797 250.761 183.409C269.911 174.486 294.477 129.316 294.477 129.316Z" fill="url(#paint8_linear_88_7027)"/>
<path d="M182.744 172.618C183.073 172.664 183.416 172.556 183.665 172.299C184.066 171.877 224.042 130.055 241.931 112.741C244.512 110.244 248.317 109.506 251.625 110.859C258 113.47 270.319 118.97 281.167 126.463C281.652 126.806 282.32 126.679 282.656 126.189C282.991 125.701 282.869 125.032 282.38 124.695C271.919 117.465 260.321 112.099 252.434 108.869C248.342 107.194 243.634 108.104 240.445 111.193C222.525 128.537 182.52 170.389 182.119 170.809C181.709 171.239 181.723 171.918 182.15 172.33C182.319 172.492 182.528 172.589 182.744 172.618Z" fill="#91B3FA"/>
<path d="M482.459 101.93C471.424 121.787 456.454 142.328 436.135 161.31C373.048 220.247 316.521 252.615 300.203 261.386C297.253 262.974 293.685 262.772 290.882 260.933C268.793 246.447 251.254 227.701 238.236 204.719C235.787 200.395 235.984 195.044 238.689 190.876C250.426 172.793 286.487 120.879 347.179 64.8348C367.455 46.1139 388.844 32.7801 409.283 23.2877C447.058 46.6166 470.381 81.4407 482.459 101.93Z" fill="url(#paint9_linear_88_7027)"/>
<path d="M409.283 23.2876C454.431 2.3188 494.937 0.0958023 508.507 0.000236511C511.159 -0.0184631 513.244 2.24191 513.02 4.89496C511.877 18.4178 506.568 58.5479 482.459 101.929C470.38 81.4406 447.058 46.6165 409.283 23.2876Z" fill="url(#paint10_linear_88_7027)"/>
<path d="M366.405 77.3103C350.021 92.5284 349.93 119.173 366.204 136.822C382.478 154.473 408.954 156.444 425.338 141.226C441.724 126.006 441.813 99.3614 425.54 81.7126C409.266 64.0617 382.791 62.0922 366.405 77.3103Z" fill="url(#paint11_linear_88_7027)"/>
<path d="M372.397 82.1385C359.342 94.2631 359.27 115.496 372.238 129.559C385.204 143.622 406.3 145.192 419.357 133.068C432.413 120.941 432.485 99.7105 419.517 85.6454C406.55 71.5824 385.453 70.0117 372.397 82.1385Z" fill="url(#paint12_linear_88_7027)"/>
<path d="M416.718 121.353C417.135 121.411 417.565 121.218 417.791 120.829C423.545 110.905 421.906 97.8367 413.806 89.0508C411.765 86.8382 409.418 84.9849 406.826 83.541C406.311 83.2481 405.656 83.4393 405.369 83.9587C405.083 84.476 405.267 85.1304 405.785 85.4192C408.178 86.753 410.349 88.469 412.235 90.5134C419.701 98.6096 421.225 110.632 415.938 119.747C415.642 120.262 415.814 120.918 416.325 121.215C416.449 121.29 416.584 121.334 416.718 121.353Z" fill="#91B3FA"/>
<path d="M316.782 143.532C305.958 153.586 305.898 171.189 316.649 182.848C327.401 194.509 344.892 195.81 355.716 185.757C366.54 175.703 366.6 158.1 355.849 146.441C345.097 134.782 327.608 133.479 316.782 143.532Z" fill="url(#paint13_linear_88_7027)"/>
<path d="M320.742 146.722C312.116 154.733 312.068 168.758 320.636 178.051C329.202 187.342 343.139 188.379 351.765 180.368C360.39 172.357 360.436 158.331 351.87 149.04C343.304 139.749 329.367 138.711 320.742 146.722Z" fill="url(#paint14_linear_88_7027)"/>
<path d="M349.971 172.99C350.387 173.048 350.816 172.855 351.042 172.467C354.925 165.773 353.824 156.962 348.363 151.043C346.991 149.551 345.407 148.303 343.66 147.33C343.147 147.04 342.493 147.229 342.203 147.748C341.917 148.267 342.103 148.92 342.621 149.209C344.169 150.071 345.573 151.178 346.792 152.501C351.617 157.737 352.604 165.501 349.191 171.384C348.893 171.9 349.067 172.556 349.578 172.853C349.702 172.928 349.835 172.972 349.971 172.99Z" fill="#91B3FA"/>
<path d="M461.283 555.078C468.013 555.66 479.691 556.609 488.901 557.016C494.434 557.262 497.622 556.717 499.456 555.98C499.454 556.187 499.447 556.383 499.439 556.566C499.396 557.538 498.609 558.315 497.63 558.371C480.232 559.345 466.396 558.708 461.469 558.406C460.451 558.344 459.844 557.235 460.364 556.362C460.625 555.926 460.942 555.5 461.283 555.078Z" fill="#7D97F4"/>
<path d="M488.9 557.016C479.691 556.609 468.012 555.66 461.283 555.078C467.898 546.93 488.9 541.439 488.9 541.439H494.831C498.911 547.341 499.501 552.959 499.455 555.98C497.621 556.717 494.434 557.262 488.9 557.016Z" fill="url(#paint15_linear_88_7027)"/>
<path d="M495.829 531.72L495.274 542.744C495.214 543.938 494.324 544.942 493.134 545.112C491.948 545.282 490.36 545.303 488.677 544.742C487.642 544.395 486.874 543.521 486.682 542.451L484.765 531.72H495.829Z" fill="url(#paint16_linear_88_7027)"/>
<path d="M564.668 567.793C567.587 567.265 568.905 565.3 569.46 563.197C569.464 563.216 569.466 563.234 569.471 563.253C569.901 565.472 568.905 567.77 566.914 568.863C564.511 570.184 561.88 570.408 559.839 570.3C557.649 570.182 555.637 569.006 554.534 567.126L554.517 567.097C556.715 568.507 559.802 568.673 564.668 567.793Z" fill="#7D97F4"/>
<path d="M550.909 535.117H555.801C563.251 534.92 567.929 555.303 569.461 563.197C568.906 565.3 567.587 567.265 564.669 567.793C559.802 568.674 556.716 568.507 554.517 567.097C550.491 560.226 548.496 550.163 547.537 544.291C546.447 537.612 550.909 535.117 550.909 535.117Z" fill="url(#paint17_linear_88_7027)"/>
<path d="M555.171 524.885L557.887 535.728C558.22 537.058 557.587 538.433 556.362 539.062C554.842 539.846 552.704 540.668 550.737 540.429C549.812 540.317 549.044 539.663 548.74 538.79L544.751 527.382L555.171 524.885Z" fill="url(#paint18_linear_88_7027)"/>
<path d="M459.627 382.088C459.627 382.088 483.9 534.363 483.498 535.2C483.498 535.2 490.203 538.258 497.51 535.591C497.51 535.591 495.316 454.188 490.174 422.977C490.174 422.977 531.596 495.735 544.751 531.988C544.751 531.988 551.613 531.168 557.291 527.416C557.291 527.416 512.689 396.455 500.791 379.011L459.627 382.088Z" fill="url(#paint19_linear_88_7027)"/>
<path d="M489.203 422.183C489.334 422.183 489.466 422.148 489.584 422.073C489.919 421.863 490.021 421.419 489.812 421.082L480.741 406.541C480.635 406.375 480.468 406.257 480.275 406.219L473.6 404.871C473.213 404.79 472.834 405.043 472.755 405.434C472.676 405.822 472.929 406.203 473.316 406.281L479.69 407.567L488.595 421.847C488.731 422.065 488.965 422.183 489.203 422.183Z" fill="url(#paint20_linear_88_7027)"/>
<path d="M348.243 232.978C348.243 232.978 364.623 236.603 374.584 241.219C376.563 242.136 378.14 243.739 379.038 245.715C382.019 252.266 390.933 268.691 408.219 276.53C405.731 279.845 401.721 286.743 399.974 298.338C389.593 290.582 380.628 277.629 376.327 256.386C376.327 256.386 373.048 258.174 368.962 256.182C366.801 255.129 364.306 253.635 362.435 252.461C360.57 251.291 359.181 249.471 358.641 247.348C357.929 244.541 358.349 242.075 358.349 239.429L349.93 236.811C349.93 236.811 347.399 235.853 348.243 232.978Z" fill="url(#paint21_linear_88_7027)"/>
<path d="M399.974 298.338C401.721 286.743 405.731 279.845 408.219 276.529C418.958 281.397 432.926 282.955 450.716 276.768C452.355 276.199 454.065 275.865 455.8 275.763C465.27 275.204 496.475 274.188 522.298 282.75C527.732 284.553 532.132 288.583 534.401 293.808C541.387 309.897 552.696 346.537 521.3 365.033C518.889 359.023 516.104 354.193 513.724 350.644C518.781 342.085 520.278 330.394 511.306 315.172C504.763 332.9 501.695 358.77 501.054 370.219C500.842 373.988 501.501 377.75 502.975 381.23L503.136 381.608C503.451 382.354 503.016 383.21 502.223 383.389C484.55 387.373 466.168 386.291 460.676 385.836C459.695 385.753 458.88 385.049 458.656 384.099C450.062 347.754 450.041 322.961 452.146 307.288C444.106 309.093 419.523 312.941 399.974 298.338Z" fill="url(#paint22_linear_88_7027)"/>
<path d="M452.111 308.266C452.465 308.266 452.773 308.003 452.821 307.641C454.839 292.338 458.95 285.66 458.991 285.594C459.203 285.259 459.101 284.815 458.768 284.603C458.433 284.389 457.992 284.489 457.781 284.823C457.605 285.102 453.465 291.789 451.399 307.452C451.347 307.847 451.624 308.208 452.016 308.26C452.049 308.264 452.08 308.266 452.111 308.266Z" fill="url(#paint23_linear_88_7027)"/>
<path d="M495.728 254.591C495.728 254.591 497.516 273.563 499.089 279.176C499.329 280.028 498.959 280.926 498.189 281.366C495.516 282.899 489.11 285.399 480.343 281.088C478.923 280.388 478.071 278.902 478.137 277.331L478.909 258.995L495.728 254.591Z" fill="url(#paint24_linear_88_7027)"/>
<path d="M478.521 230.317C478.521 230.317 472.804 243.501 472.419 250.421C472.036 257.341 470.55 261.833 478.521 263.225C486.495 264.619 493.21 260.634 496.849 253.741C496.849 253.741 502.55 243.119 501.271 238.768C499.993 234.418 478.521 230.317 478.521 230.317Z" fill="url(#paint25_linear_88_7027)"/>
<path d="M494.126 248.784L493.672 248.582C493.095 248.327 492.846 247.637 493.136 247.074C494.262 244.894 496.452 239.898 493.623 238.732C489.973 237.23 475.519 234.272 472.401 229.126C469.404 224.179 472.06 217.793 476.05 215.977C476.318 215.854 476.632 215.952 476.769 216.212L477.102 216.843C477.33 217.275 477.965 217.209 478.102 216.739C478.232 216.289 478.828 216.201 479.077 216.6C480.035 218.14 482.623 220.637 489.545 221.919C499.379 223.741 505.881 227.734 506.045 234.557C506.055 234.989 506.512 235.23 506.883 235.005C507.609 234.561 508.771 234.353 510.323 235.662C513.025 237.943 511.919 243.856 505.999 248.719C505.718 248.95 505.72 249.392 506.024 249.59C507.098 250.292 508.698 251.96 504.55 254.185C500.261 256.487 497.059 256.298 495.827 256.092C495.519 256.043 495.322 255.743 495.388 255.44L496.705 249.444C496.779 249.106 496.523 248.784 496.175 248.784H494.126Z" fill="url(#paint26_linear_88_7027)"/>
<path d="M493.877 250.049C493.877 250.049 496.059 241.627 499.822 243.989C503.583 246.349 497.87 253.425 494.844 253.741L493.877 250.049Z" fill="url(#paint27_linear_88_7027)"/>
<path d="M371.957 254.426C372.116 254.426 372.276 254.374 372.408 254.266C372.717 254.015 372.762 253.562 372.514 253.255C371.893 252.488 366.397 245.744 364.279 244.543C363.509 244.107 363.05 243.656 362.952 243.239C362.905 243.039 362.938 242.817 363.048 242.561L369.506 243.862L373.166 247.014C373.466 247.271 373.919 247.238 374.176 246.935C374.435 246.633 374.399 246.18 374.099 245.921L370.299 242.647C370.206 242.565 370.092 242.511 369.972 242.487L362.822 241.049C362.538 240.993 362.249 241.111 362.087 241.352C361.563 242.133 361.39 242.858 361.557 243.569C361.754 244.41 362.414 245.137 363.575 245.796C365.167 246.7 369.765 252.141 371.4 254.162C371.543 254.337 371.748 254.426 371.957 254.426Z" fill="#F8A570"/>
<path d="M494.155 374.152L468.878 374.468L477.725 366.11C479.923 364.032 483.281 363.695 485.819 365.347C487.305 366.315 488.915 367.628 490.313 369.367C490.313 369.367 506.08 363.583 513.724 350.644C516.105 354.193 518.889 359.023 521.3 365.033C514.449 369.072 505.566 372.247 494.155 374.152Z" fill="url(#paint28_linear_88_7027)"/>
<path d="M491.432 377.424C491.383 377.426 491.333 377.428 491.283 377.428L427.12 377.358C425.534 377.358 424.249 376.08 424.251 374.503C424.253 372.928 425.545 371.626 427.126 371.655L491.292 371.723C492.877 371.725 494.161 373.003 494.161 374.58C494.159 376.105 492.95 377.349 491.432 377.424Z" fill="url(#paint29_linear_88_7027)"/>
<path d="M369.44 319.573H422.877C426.818 319.573 430.405 321.831 432.088 325.371L456.791 377.391H390.384C387.844 377.391 385.561 375.85 384.627 373.504L365.47 325.367C364.364 322.587 366.428 319.573 369.44 319.573Z" fill="url(#paint30_linear_88_7027)"/>
<path d="M407.087 346.244C408.244 349.818 407.389 353.287 405.176 353.993C402.961 354.702 400.229 352.379 399.072 348.806C397.913 345.232 398.77 341.763 400.983 341.056C403.195 340.348 405.928 342.671 407.087 346.244Z" fill="#7D97F4"/>
<path d="M107.942 452.825C107.981 452.827 108.019 452.829 108.059 452.827L158.953 452.777C160.212 452.775 161.23 451.753 161.228 450.492C161.226 449.233 160.202 448.19 158.947 448.212L108.053 448.264C106.795 448.264 105.777 449.287 105.778 450.548C105.779 451.769 106.738 452.764 107.942 452.825Z" fill="url(#paint31_linear_88_7027)"/>
<path d="M178.664 402.801C178.645 402.835 178.628 402.87 178.612 402.907L157.196 449.245C156.668 450.39 157.163 451.749 158.301 452.278C159.442 452.81 160.814 452.316 161.323 451.165L182.737 404.827C183.267 403.68 182.773 402.321 181.632 401.792C180.529 401.278 179.225 401.731 178.664 402.801Z" fill="url(#paint32_linear_88_7027)"/>
<path d="M217.792 554.833H222.901V499.366H217.792V554.833Z" fill="#7D97F4"/>
<path d="M197.969 555.901H242.726V553.071C242.726 552.791 242.5 552.562 242.221 552.562H198.474C198.194 552.562 197.969 552.791 197.969 553.071V555.901Z" fill="#7D97F4"/>
<path d="M191.326 497.44C191.326 500.476 193.798 502.956 196.822 502.956H242.105C245.127 502.956 247.601 500.476 247.601 497.44V492.454C247.601 489.421 245.127 486.938 242.105 486.938H196.822C193.798 486.938 191.326 489.421 191.326 492.454V497.44Z" fill="#7D97F4"/>
<path d="M258.073 462.384C258.073 462.384 265.665 463.564 274.204 469.294C275.548 470.195 276.284 471.766 276.082 473.376C275.059 481.503 270.857 507.809 256.996 533.503C256.266 534.857 256.055 536.434 256.377 537.94L258.785 549.188L263.252 553.391H251.749L244.09 532.589L247.365 531.55C249.905 530.744 251.645 528.4 251.693 525.726L252.076 503.413C251.749 493.47 258.149 486.612 258.149 486.612L239.78 485.715L258.073 462.384Z" fill="url(#paint33_linear_88_7027)"/>
<path d="M267.743 555.419C268.791 556.794 256.468 558.612 250.242 555.602C250.242 555.602 241.612 540.531 241.612 532.773C241.612 532.773 242.297 531.19 247.364 531.55C247.364 531.55 250.262 549.392 253.322 551.39C256.381 553.391 261.883 551.594 261.883 551.594C261.883 551.594 266.197 553.389 267.743 555.419Z" fill="url(#paint34_linear_88_7027)"/>
<path d="M242.105 486.938C242.202 486.768 261.884 484.564 261.884 484.564C261.884 484.564 261.238 490.57 263.252 498.836C265.264 507.105 294.159 542.924 294.159 542.924L291.13 552.562C300.497 555.838 309.713 556.362 318.779 554.232L300.002 542.924C300.002 542.924 282.43 482.821 271.666 472.098L251.939 465.249L242.105 486.938Z" fill="url(#paint35_linear_88_7027)"/>
<path d="M197.968 451.967C197.968 451.967 186.629 468.893 185.698 476.615C184.768 484.335 188.805 487.472 200.703 487.99C212.599 488.507 244.361 488.499 244.361 488.499L271.467 465.249C271.467 465.249 251.713 458.172 246.578 456.172C241.44 454.171 197.968 451.967 197.968 451.967Z" fill="url(#paint36_linear_88_7027)"/>
<path d="M292.275 549.317C292.275 549.317 289.013 552.488 291.215 556.015C291.215 556.015 317.055 560.613 324.072 558.527C324.072 558.527 322.615 555.19 314.714 551.391L315.297 551.841C316.034 552.409 315.602 553.593 314.674 553.539C309.468 553.242 298.696 552.284 292.275 549.317Z" fill="url(#paint37_linear_88_7027)"/>
<path d="M140.448 458.974C140.259 459.909 121.851 540.82 117.183 561.331C116.645 563.696 118.595 565.892 121.112 565.763C122.869 565.671 124.341 564.448 124.683 562.794L147.711 458.422L140.448 458.974Z" fill="#7D97F4"/>
<path d="M94.9948 565.196C86.127 565.196 82.2033 564.433 80.4492 563.738C80.7901 565.198 82.0872 566.351 83.7262 566.351H115.099C116.154 566.351 116.821 565.337 116.568 564.419C112.994 564.706 105.397 565.196 94.9948 565.196Z" fill="url(#paint38_linear_88_7027)"/>
<path d="M116.568 564.419C116.516 564.232 116.442 564.051 116.312 563.883C113.923 560.821 109.12 556.011 102.591 556.103C93.025 556.238 89.6897 557.281 82.2559 556.163L80.502 561.997C80.3236 562.591 80.3203 563.185 80.449 563.738C82.2031 564.434 86.1268 565.196 94.9946 565.196C105.397 565.196 112.993 564.706 116.568 564.419Z" fill="url(#paint39_linear_88_7027)"/>
<path d="M84.4089 549.874L82.2563 557.222C82.2563 557.222 87.0254 559.402 91.22 557.652L92.0437 551.287L84.4089 549.874Z" fill="url(#paint40_linear_88_7027)"/>
<path d="M149.429 560.569C142.518 566.143 138.984 568.017 137.186 568.58C138.357 569.501 140.086 569.58 141.363 568.549L165.82 548.827C166.643 548.164 166.532 546.957 165.764 546.402C163.156 548.875 157.54 554.029 149.429 560.569Z" fill="url(#paint41_linear_88_7027)"/>
<path d="M165.763 546.402C165.61 546.29 165.438 546.197 165.231 546.149C161.466 545.274 154.737 544.562 149.704 548.738C142.331 554.856 140.377 557.762 133.888 561.569L136.144 567.197C136.374 567.77 136.74 568.233 137.185 568.58C138.984 568.017 142.517 566.143 149.429 560.569C157.539 554.029 163.155 548.875 165.763 546.402Z" fill="url(#paint42_linear_88_7027)"/>
<path d="M38.3584 466.154C38.3584 466.154 91.45 470.505 102.341 475.651C113.234 480.797 93.4535 552.919 93.4535 552.919C93.4535 552.919 90.4885 554.351 83.8908 552.292C83.8908 552.292 90.6564 499.069 85.622 487.528L28.1372 478.092L38.3584 466.154Z" fill="url(#paint43_linear_88_7027)"/>
<path d="M128.614 551.436C129.106 551.887 133.888 561.568 133.888 561.568C133.888 561.568 139.212 560.411 140.299 557.029L135.507 548.293L128.614 551.436Z" fill="url(#paint44_linear_88_7027)"/>
<path d="M6.38133 465.708C6.38133 465.708 4.65124 469.888 4.72183 475.439C4.81933 483.118 10.9705 489.35 18.6125 489.733L81.3757 492.606C82.7011 492.666 83.8224 493.587 84.1546 494.877C85.6293 500.602 92.8384 518.185 128.077 553.269C129.015 554.203 130.476 554.361 131.592 553.653L136.61 550.474C137.135 550.14 137.303 549.446 136.988 548.908L100.445 486.274C98.5253 483.095 95.44 480.799 91.8516 479.879L38.3581 466.155L6.38133 465.708Z" fill="url(#paint45_linear_88_7027)"/>
<path d="M79.1927 369.276C79.1927 369.276 61.5102 379.803 54.6553 385.583L68.8243 393.517C68.8243 393.517 76.481 384.639 83.7752 380.941L79.1927 369.276Z" fill="url(#paint46_linear_88_7027)"/>
<path d="M5.2417 466.155C5.2417 466.155 22.1856 470.299 38.3586 466.155C38.3586 466.155 60.9889 435.621 69.7443 427.311C69.7443 427.311 83.7097 449.428 114.795 452.563L116.527 448.674C116.527 448.674 91.781 437.227 84.1628 419.634C76.5444 402.041 73.4848 394.539 66.5538 389.948C62.2373 387.089 59.6527 385.138 58.3172 384.07C57.5858 383.487 56.5767 383.42 55.7787 383.908C48.4232 388.408 13.8135 412.198 5.2417 466.155Z" fill="url(#paint47_linear_88_7027)"/>
<path d="M68.8261 427.447C68.3299 427.447 67.8394 427.225 67.514 426.799C62.0686 419.671 59.0349 411.816 58.9078 411.485C58.5811 410.629 59.0071 409.672 59.8589 409.341C60.7051 409.017 61.666 409.441 61.9939 410.295C62.0229 410.372 64.9931 418.048 70.1362 424.78C70.6914 425.507 70.5554 426.548 69.8307 427.104C69.5307 427.337 69.1772 427.447 68.8261 427.447Z" fill="url(#paint48_linear_88_7027)"/>
<path d="M112.925 446.644L116.423 445.71L127.046 443.239C128.325 442.942 129.669 443.169 130.78 443.871L139.915 449.638L114.69 449.597L112.925 446.644Z" fill="url(#paint49_linear_88_7027)"/>
<path d="M89.272 356.767C89.4825 357.072 95.7661 380.841 95.7661 380.841L82.168 384.153L72.8774 362.513C72.8774 362.513 85.7488 351.641 89.272 356.767Z" fill="url(#paint50_linear_88_7027)"/>
<path d="M77.9496 365.841L81.9515 377.617C82.0028 377.767 82.0721 377.908 82.1622 378.039C82.7138 378.843 84.8136 381.471 87.362 379.152C89.6744 377.046 91.816 375.159 93.7787 374.835C94.6599 374.688 95.5064 375.236 95.7351 376.102C96.3054 378.263 97.5012 383.154 97.8939 387.56C97.9736 388.456 97.3503 389.256 96.4695 389.413C93.8154 389.891 88.19 390.739 83.505 390.357C82.8701 390.305 82.3152 389.916 82.0564 389.332C80.7946 386.484 76.9274 377.843 75.4786 375.604C74.1188 373.501 70.7305 373.524 69.3084 373.634C68.842 373.672 68.3856 373.516 68.0372 373.202C66.806 372.095 64.47 369.278 67.8333 365.972C68.5371 365.28 68.5305 364.15 67.8199 363.467C66.4053 362.102 64.9024 359.694 67.3148 356.752C69.7671 353.765 72.9563 354.278 74.9061 355.015C75.6943 355.314 76.5612 354.988 76.9992 354.265C77.2485 353.854 77.679 353.546 78.419 353.617C79.4163 353.715 80.2646 352.888 80.2574 351.882C80.2433 349.95 80.9583 347.517 84.3081 346.51C90.2519 344.723 93.8849 350.507 94.2054 354.797C94.5256 359.087 87.9716 360.656 84.131 360.326C81.2108 360.076 79.0102 362.96 78.123 364.356C77.8419 364.799 77.7809 365.345 77.9496 365.841Z" fill="url(#paint51_linear_88_7027)"/>
<path d="M76.9784 379.878C76.9784 379.878 76.1007 372.425 73.0202 372.029C69.94 371.63 66.911 374.141 69.9328 378.351C73.6917 383.588 76.9784 379.878 76.9784 379.878Z" fill="url(#paint52_linear_88_7027)"/>
<path d="M276.417 458.831C276.607 459.764 295.014 540.676 299.681 561.188C300.22 563.552 298.272 565.746 295.753 565.617C293.997 565.528 292.523 564.304 292.182 562.649L269.155 458.278L276.417 458.831Z" fill="#7D97F4"/>
<path d="M26.4663 562.856H31.5765V502.956H26.4663V562.856Z" fill="#7D97F4"/>
<path d="M6.64258 563.927H51.4004V561.095C51.4004 560.814 51.174 560.588 50.8945 560.588H7.14848C6.86903 560.588 6.64258 560.814 6.64258 561.095V563.927Z" fill="#7D97F4"/>
<path d="M0 499.624C0 502.657 2.4728 505.14 5.4954 505.14H50.779C53.8014 505.14 56.2744 502.657 56.2744 499.624V494.638C56.2744 491.605 53.8014 489.122 50.779 489.122H5.4954C2.4728 489.122 0 491.605 0 494.638V499.624Z" fill="#7D97F4"/>
<path d="M228.633 449.725C228.633 449.725 241.836 437.106 248.336 428.748C251.85 424.231 252.954 418.283 251.329 412.788C248.36 402.754 243.088 392.362 242.606 390.745C241.869 388.265 227.064 388.369 227.064 388.369C227.064 388.369 197.929 407.345 186.484 439.491L199.339 443.509C199.339 443.509 206.946 430.701 214.462 422.557C214.462 422.557 201.457 439.801 200.999 446.86L228.633 449.725Z" fill="url(#paint53_linear_88_7027)"/>
<path d="M244.396 376.888C244.243 377.403 240.378 390.261 240.076 390.529C239.774 390.795 231.602 391.236 227.753 388.597L234.28 374.887L244.396 376.888Z" fill="url(#paint54_linear_88_7027)"/>
<path d="M239.668 351.226C239.668 351.226 246.897 353.495 252.591 363.106C258.284 372.716 255.208 377.709 250.84 378.779C246.475 379.846 239.842 380.395 232.208 374.569C224.574 368.746 230.306 348.617 239.668 351.226Z" fill="url(#paint55_linear_88_7027)"/>
<path d="M236.398 368.736C236.398 368.736 229.736 354.513 242.734 353.073L246.005 354.922C246.005 354.922 249.991 346.29 241.776 343.153C233.562 340.016 222.202 344.626 219.89 355.547C217.577 366.469 220.192 373.124 226.23 377.655C232.268 382.186 234.001 376.213 234.001 376.213C234.001 376.213 230.521 371.765 231.506 369.108C232.492 366.451 235.624 369.237 235.624 369.237L236.398 368.736Z" fill="url(#paint56_linear_88_7027)"/>
<path d="M235.096 370.518C235.096 370.518 231.715 363.186 228.474 366.552C225.232 369.92 232.022 373.285 234.655 374.333L235.096 370.518Z" fill="url(#paint57_linear_88_7027)"/>
<path d="M255.533 450.662L245.831 441.278L232.411 446.968C232.411 446.968 219.051 449.046 211.407 446.968C203.76 444.891 203.76 444.891 203.76 444.891L186.484 439.491L183.77 447.188C183.081 449.143 183.772 451.312 185.457 452.513C186.952 453.579 188.703 454.751 189.821 455.241C192.096 456.24 245.909 454.549 245.909 454.549L255.533 450.662Z" fill="url(#paint58_linear_88_7027)"/>
<path d="M221.072 357.11C222.579 355.23 221.21 352.437 218.811 352.298C211.067 351.845 199.552 354.197 196.248 371.065C192.527 390.064 189.836 399.646 186.317 401.624C184.004 402.922 184.174 406.302 186.685 407.152C188.54 407.779 191.115 407.817 194.681 406.658C222.198 397.714 212.227 368.127 221.072 357.11Z" fill="url(#paint59_linear_88_7027)"/>
<path d="M218.819 455.087C218.863 455.089 218.906 455.089 218.95 455.089L275.224 455.029C276.615 455.027 277.741 453.895 277.741 452.499C277.739 451.101 276.607 449.947 275.218 449.972L218.943 450.035C217.552 450.035 216.426 451.169 216.426 452.565C216.428 453.918 217.488 455.021 218.819 455.087Z" fill="url(#paint60_linear_88_7027)"/>
<path d="M325.813 403.805H278.946C275.489 403.805 272.343 405.808 270.867 408.947L249.201 455.056H307.444C309.673 455.056 311.675 453.691 312.493 451.612L329.295 408.943C330.265 406.477 328.454 403.805 325.813 403.805Z" fill="url(#paint61_linear_88_7027)"/>
<path d="M292.797 427.447C291.78 430.614 292.53 433.691 294.471 434.318C296.413 434.945 298.81 432.884 299.824 429.718C300.841 426.552 300.091 423.475 298.15 422.85C296.208 422.222 293.811 424.281 292.797 427.447Z" fill="#7D97F4"/>
<path d="M127.175 457.321C126.939 458.299 104.453 542.937 98.7525 564.394C98.0957 566.868 99.9305 569.295 102.452 569.295C104.21 569.295 105.743 568.08 106.169 566.347L134.455 457.127L127.175 457.321Z" fill="#7D97F4"/>
<path d="M290.836 459.523C291.072 460.502 313.557 545.141 319.257 566.598C319.916 569.071 318.079 571.499 315.558 571.499C313.801 571.499 312.267 570.284 311.841 568.551L284.463 459.523H290.836Z" fill="#7D97F4"/>
<path d="M98.3186 451.842H324.438C327.597 451.842 330.358 452.592 331.147 453.666L334.304 457.963C335.44 459.51 332.101 461.015 327.556 461.006L95.5331 460.537C91.0358 460.528 87.7545 459.041 88.853 457.508L91.5988 453.681C92.3743 452.598 95.1433 451.842 98.3186 451.842Z" fill="#7D97F4"/>
<defs>
<linearGradient id="paint0_linear_88_7027" x1="622.077" y1="661.177" x2="218.707" y2="233.349" gradientUnits="userSpaceOnUse">
<stop stop-color="#DAE3FE"/>
<stop offset="1" stop-color="#E9EFFD"/>
</linearGradient>
<linearGradient id="paint1_linear_88_7027" x1="622.079" y1="661.179" x2="218.707" y2="233.35" gradientUnits="userSpaceOnUse">
<stop stop-color="#BECCFB"/>
<stop offset="1" stop-color="#C8D4FA"/>
</linearGradient>
<linearGradient id="paint2_linear_88_7027" x1="622.077" y1="661.178" x2="218.707" y2="233.35" gradientUnits="userSpaceOnUse">
<stop stop-color="#BECCFB"/>
<stop offset="1" stop-color="#C8D4FA"/>
</linearGradient>
<linearGradient id="paint3_linear_88_7027" x1="622.078" y1="661.177" x2="218.707" y2="233.349" gradientUnits="userSpaceOnUse">
<stop stop-color="#BECCFB"/>
<stop offset="1" stop-color="#C8D4FA"/>
</linearGradient>
<linearGradient id="paint4_linear_88_7027" x1="622.077" y1="661.182" x2="218.704" y2="233.354" gradientUnits="userSpaceOnUse">
<stop stop-color="#BECCFB"/>
<stop offset="1" stop-color="#C8D4FA"/>
</linearGradient>
<linearGradient id="paint5_linear_88_7027" x1="622.077" y1="661.177" x2="218.706" y2="233.35" gradientUnits="userSpaceOnUse">
<stop stop-color="#BECCFB"/>
<stop offset="1" stop-color="#C8D4FA"/>
</linearGradient>
<linearGradient id="paint6_linear_88_7027" x1="2829.65" y1="-556.098" x2="2701.34" y2="-515.774" gradientUnits="userSpaceOnUse">
<stop stop-color="#FF928E"/>
<stop offset="1" stop-color="#FE7062"/>
</linearGradient>
<linearGradient id="paint7_linear_88_7027" x1="445.406" y1="162.004" x2="585.006" y2="27.0343" gradientUnits="userSpaceOnUse">
<stop stop-color="#4F52FF"/>
<stop offset="1" stop-color="#4042E2"/>
</linearGradient>
<linearGradient id="paint8_linear_88_7027" x1="340.131" y1="53.1192" x2="479.731" y2="-81.8505" gradientUnits="userSpaceOnUse">
<stop stop-color="#4F52FF"/>
<stop offset="1" stop-color="#4042E2"/>
</linearGradient>
<linearGradient id="paint9_linear_88_7027" x1="506.595" y1="-21.253" x2="319.316" y2="192.147" gradientUnits="userSpaceOnUse">
<stop stop-color="#4F52FF"/>
<stop offset="1" stop-color="#4042E2"/>
</linearGradient>
<linearGradient id="paint10_linear_88_7027" x1="1721.84" y1="-2604.86" x2="1663.31" y2="-2483.36" gradientUnits="userSpaceOnUse">
<stop stop-color="#FF928E"/>
<stop offset="1" stop-color="#FE7062"/>
</linearGradient>
<linearGradient id="paint11_linear_88_7027" x1="-801.106" y1="-4795.89" x2="-768.9" y2="-4664.87" gradientUnits="userSpaceOnUse">
<stop stop-color="#FF928E"/>
<stop offset="1" stop-color="#FE7062"/>
</linearGradient>
<linearGradient id="paint12_linear_88_7027" x1="419.353" y1="133.07" x2="372.216" y2="82.3072" gradientUnits="userSpaceOnUse">
<stop stop-color="#09005D"/>
<stop offset="1" stop-color="#1A0F91"/>
</linearGradient>
<linearGradient id="paint13_linear_88_7027" x1="-870.102" y1="-4778.93" x2="-837.897" y2="-4647.92" gradientUnits="userSpaceOnUse">
<stop stop-color="#FF928E"/>
<stop offset="1" stop-color="#FE7062"/>
</linearGradient>
<linearGradient id="paint14_linear_88_7027" x1="351.762" y1="180.37" x2="320.622" y2="146.834" gradientUnits="userSpaceOnUse">
<stop stop-color="#09005D"/>
<stop offset="1" stop-color="#1A0F91"/>
</linearGradient>
<linearGradient id="paint15_linear_88_7027" x1="499.457" y1="549.257" x2="461.282" y2="549.257" gradientUnits="userSpaceOnUse">
<stop stop-color="#09005D"/>
<stop offset="1" stop-color="#1A0F91"/>
</linearGradient>
<linearGradient id="paint16_linear_88_7027" x1="495.829" y1="538.47" x2="484.764" y2="538.47" gradientUnits="userSpaceOnUse">
<stop stop-color="#FEBBBA"/>
<stop offset="1" stop-color="#FF928E"/>
</linearGradient>
<linearGradient id="paint17_linear_88_7027" x1="569.461" y1="551.725" x2="547.365" y2="551.725" gradientUnits="userSpaceOnUse">
<stop stop-color="#09005D"/>
<stop offset="1" stop-color="#1A0F91"/>
</linearGradient>
<linearGradient id="paint18_linear_88_7027" x1="557.976" y1="532.678" x2="544.752" y2="532.678" gradientUnits="userSpaceOnUse">
<stop stop-color="#FEBBBA"/>
<stop offset="1" stop-color="#FF928E"/>
</linearGradient>
<linearGradient id="paint19_linear_88_7027" x1="502.022" y1="373.36" x2="512.403" y2="503.682" gradientUnits="userSpaceOnUse">
<stop stop-color="#09005D"/>
<stop offset="1" stop-color="#1A0F91"/>
</linearGradient>
<linearGradient id="paint20_linear_88_7027" x1="518.003" y1="549.704" x2="504.169" y2="498.707" gradientUnits="userSpaceOnUse">
<stop stop-color="#09005D"/>
<stop offset="1" stop-color="#1A0F91"/>
</linearGradient>
<linearGradient id="paint21_linear_88_7027" x1="376.089" y1="253.115" x2="428.703" y2="321.315" gradientUnits="userSpaceOnUse">
<stop stop-color="#FEBBBA"/>
<stop offset="1" stop-color="#FF928E"/>
</linearGradient>
<linearGradient id="paint22_linear_88_7027" x1="-464.172" y1="-2066.89" x2="-414.396" y2="-1941.53" gradientUnits="userSpaceOnUse">
<stop stop-color="#FF928E"/>
<stop offset="1" stop-color="#FE7062"/>
</linearGradient>
<linearGradient id="paint23_linear_88_7027" x1="599.231" y1="-69.3052" x2="549.455" y2="56.0586" gradientUnits="userSpaceOnUse">
<stop stop-color="#FF928E"/>
<stop offset="1" stop-color="#FE7062"/>
</linearGradient>
<linearGradient id="paint24_linear_88_7027" x1="492.828" y1="297.313" x2="487.057" y2="267.13" gradientUnits="userSpaceOnUse">
<stop stop-color="#FEBBBA"/>
<stop offset="1" stop-color="#FF928E"/>
</linearGradient>
<linearGradient id="paint25_linear_88_7027" x1="477.323" y1="241.922" x2="510.103" y2="266.912" gradientUnits="userSpaceOnUse">
<stop stop-color="#FEBBBA"/>
<stop offset="1" stop-color="#FF928E"/>
</linearGradient>
<linearGradient id="paint26_linear_88_7027" x1="500.338" y1="222.043" x2="469.752" y2="261.279" gradientUnits="userSpaceOnUse">
<stop stop-color="#09005D"/>
<stop offset="1" stop-color="#1A0F91"/>
</linearGradient>
<linearGradient id="paint27_linear_88_7027" x1="481.378" y1="236.603" x2="514.158" y2="261.593" gradientUnits="userSpaceOnUse">
<stop stop-color="#FEBBBA"/>
<stop offset="1" stop-color="#FF928E"/>
</linearGradient>
<linearGradient id="paint28_linear_88_7027" x1="462.213" y1="318.76" x2="485.21" y2="353.13" gradientUnits="userSpaceOnUse">
<stop stop-color="#FEBBBA"/>
<stop offset="1" stop-color="#FF928E"/>
</linearGradient>
<linearGradient id="paint29_linear_88_7027" x1="502.314" y1="360.347" x2="451.347" y2="377.002" gradientUnits="userSpaceOnUse">
<stop stop-color="#09005D"/>
<stop offset="1" stop-color="#1A0F91"/>
</linearGradient>
<linearGradient id="paint30_linear_88_7027" x1="432.214" y1="327.239" x2="395.611" y2="365.785" gradientUnits="userSpaceOnUse">
<stop stop-color="#09005D"/>
<stop offset="1" stop-color="#1A0F91"/>
</linearGradient>
<linearGradient id="paint31_linear_88_7027" x1="140.346" y1="311.583" x2="135.845" y2="402.335" gradientUnits="userSpaceOnUse">
<stop stop-color="#09005D"/>
<stop offset="1" stop-color="#1A0F91"/>
</linearGradient>
<linearGradient id="paint32_linear_88_7027" x1="51.0556" y1="364.192" x2="-29.1755" y2="322.1" gradientUnits="userSpaceOnUse">
<stop stop-color="#09005D"/>
<stop offset="1" stop-color="#1A0F91"/>
</linearGradient>
<linearGradient id="paint33_linear_88_7027" x1="351.748" y1="473.775" x2="213.541" y2="525.157" gradientUnits="userSpaceOnUse">
<stop stop-color="#FEBBBA"/>
<stop offset="1" stop-color="#FF928E"/>
</linearGradient>
<linearGradient id="paint34_linear_88_7027" x1="253.883" y1="531.649" x2="259.266" y2="613.893" gradientUnits="userSpaceOnUse">
<stop stop-color="#4F52FF"/>
<stop offset="1" stop-color="#4042E2"/>
</linearGradient>
<linearGradient id="paint35_linear_88_7027" x1="316.399" y1="490.136" x2="396.254" y2="440.065" gradientUnits="userSpaceOnUse">
<stop stop-color="#FEBBBA"/>
<stop offset="1" stop-color="#FF928E"/>
</linearGradient>
<linearGradient id="paint36_linear_88_7027" x1="244.769" y1="532.809" x2="230.9" y2="481.854" gradientUnits="userSpaceOnUse">
<stop stop-color="#09005D"/>
<stop offset="1" stop-color="#1A0F91"/>
</linearGradient>
<linearGradient id="paint37_linear_88_7027" x1="305.455" y1="528.274" x2="310.838" y2="610.517" gradientUnits="userSpaceOnUse">
<stop stop-color="#4F52FF"/>
<stop offset="1" stop-color="#4042E2"/>
</linearGradient>
<linearGradient id="paint38_linear_88_7027" x1="80.449" y1="565.044" x2="116.622" y2="565.044" gradientUnits="userSpaceOnUse">
<stop stop-color="#09005D"/>
<stop offset="1" stop-color="#1A0F91"/>
</linearGradient>
<linearGradient id="paint39_linear_88_7027" x1="108.319" y1="495.235" x2="98.365" y2="563.76" gradientUnits="userSpaceOnUse">
<stop stop-color="#4F52FF"/>
<stop offset="1" stop-color="#4042E2"/>
</linearGradient>
<linearGradient id="paint40_linear_88_7027" x1="82.2563" y1="554.104" x2="92.0436" y2="554.104" gradientUnits="userSpaceOnUse">
<stop stop-color="#FEBBBA"/>
<stop offset="1" stop-color="#FF928E"/>
</linearGradient>
<linearGradient id="paint41_linear_88_7027" x1="137.183" y1="557.85" x2="166.389" y2="557.85" gradientUnits="userSpaceOnUse">
<stop stop-color="#09005D"/>
<stop offset="1" stop-color="#1A0F91"/>
</linearGradient>
<linearGradient id="paint42_linear_88_7027" x1="157.272" y1="502.346" x2="147.318" y2="570.871" gradientUnits="userSpaceOnUse">
<stop stop-color="#4F52FF"/>
<stop offset="1" stop-color="#4042E2"/>
</linearGradient>
<linearGradient id="paint43_linear_88_7027" x1="106.535" y1="468.76" x2="56.2023" y2="518.909" gradientUnits="userSpaceOnUse">
<stop stop-color="#09005D"/>
<stop offset="1" stop-color="#1A0F91"/>
</linearGradient>
<linearGradient id="paint44_linear_88_7027" x1="128.614" y1="554.931" x2="140.298" y2="554.931" gradientUnits="userSpaceOnUse">
<stop stop-color="#FEBBBA"/>
<stop offset="1" stop-color="#FF928E"/>
</linearGradient>
<linearGradient id="paint45_linear_88_7027" x1="124.322" y1="430.094" x2="111.665" y2="448.668" gradientUnits="userSpaceOnUse">
<stop stop-color="#09005D"/>
<stop offset="1" stop-color="#1A0F91"/>
</linearGradient>
<linearGradient id="paint46_linear_88_7027" x1="54.6553" y1="381.396" x2="83.7752" y2="381.396" gradientUnits="userSpaceOnUse">
<stop stop-color="#FEBBBA"/>
<stop offset="1" stop-color="#FF928E"/>
</linearGradient>
<linearGradient id="paint47_linear_88_7027" x1="107.211" y1="259.851" x2="89.2251" y2="335.666" gradientUnits="userSpaceOnUse">
<stop stop-color="#FF928E"/>
<stop offset="1" stop-color="#FE7062"/>
</linearGradient>
<linearGradient id="paint48_linear_88_7027" x1="91.4713" y1="334.981" x2="47.9045" y2="469.34" gradientUnits="userSpaceOnUse">
<stop stop-color="#E1473D"/>
<stop offset="1" stop-color="#E9605A"/>
</linearGradient>
<linearGradient id="paint49_linear_88_7027" x1="112.925" y1="446.376" x2="139.915" y2="446.376" gradientUnits="userSpaceOnUse">
<stop stop-color="#FEBBBA"/>
<stop offset="1" stop-color="#FF928E"/>
</linearGradient>
<linearGradient id="paint50_linear_88_7027" x1="84.8242" y1="360.045" x2="82.7908" y2="406.784" gradientUnits="userSpaceOnUse">
<stop stop-color="#FEBBBA"/>
<stop offset="1" stop-color="#FF928E"/>
</linearGradient>
<linearGradient id="paint51_linear_88_7027" x1="72.2492" y1="379.69" x2="99.9502" y2="360.648" gradientUnits="userSpaceOnUse">
<stop stop-color="#09005D"/>
<stop offset="1" stop-color="#1A0F91"/>
</linearGradient>
<linearGradient id="paint52_linear_88_7027" x1="67.6628" y1="407.835" x2="73.1224" y2="375.883" gradientUnits="userSpaceOnUse">
<stop stop-color="#FEBBBA"/>
<stop offset="1" stop-color="#FF928E"/>
</linearGradient>
<linearGradient id="paint53_linear_88_7027" x1="317.152" y1="287.779" x2="285.395" y2="333.177" gradientUnits="userSpaceOnUse">
<stop stop-color="#FF928E"/>
<stop offset="1" stop-color="#FE7062"/>
</linearGradient>
<linearGradient id="paint54_linear_88_7027" x1="232.657" y1="404.759" x2="236.52" y2="380.064" gradientUnits="userSpaceOnUse">
<stop stop-color="#FEBBBA"/>
<stop offset="1" stop-color="#FF928E"/>
</linearGradient>
<linearGradient id="paint55_linear_88_7027" x1="251.602" y1="358.433" x2="220.01" y2="384.588" gradientUnits="userSpaceOnUse">
<stop stop-color="#FEBBBA"/>
<stop offset="1" stop-color="#FF928E"/>
</linearGradient>
<linearGradient id="paint56_linear_88_7027" x1="188.583" y1="320.975" x2="251.035" y2="374.301" gradientUnits="userSpaceOnUse">
<stop stop-color="#09005D"/>
<stop offset="1" stop-color="#1A0F91"/>
</linearGradient>
<linearGradient id="paint57_linear_88_7027" x1="249.292" y1="355.643" x2="217.7" y2="381.798" gradientUnits="userSpaceOnUse">
<stop stop-color="#FEBBBA"/>
<stop offset="1" stop-color="#FF928E"/>
</linearGradient>
<linearGradient id="paint58_linear_88_7027" x1="210.639" y1="447.525" x2="138.612" y2="447.525" gradientUnits="userSpaceOnUse">
<stop stop-color="#FEBBBA"/>
<stop offset="1" stop-color="#FF928E"/>
</linearGradient>
<linearGradient id="paint59_linear_88_7027" x1="165.791" y1="347.669" x2="228.242" y2="400.995" gradientUnits="userSpaceOnUse">
<stop stop-color="#09005D"/>
<stop offset="1" stop-color="#1A0F91"/>
</linearGradient>
<linearGradient id="paint60_linear_88_7027" x1="209.272" y1="440.079" x2="253.977" y2="454.688" gradientUnits="userSpaceOnUse">
<stop stop-color="#09005D"/>
<stop offset="1" stop-color="#1A0F91"/>
</linearGradient>
<linearGradient id="paint61_linear_88_7027" x1="270.64" y1="410.682" x2="302.935" y2="444.692" gradientUnits="userSpaceOnUse">
<stop stop-color="#09005D"/>
<stop offset="1" stop-color="#1A0F91"/>
</linearGradient>
</defs>
</svg>
