<svg width="225" height="54" viewBox="0 0 225 54" fill="none" xmlns="http://www.w3.org/2000/svg">
<path d="M30.216 49.456C30.3013 49.712 30.3867 49.9467 30.472 50.16C30.5573 50.3733 30.6213 50.608 30.664 50.864C30.7493 51.12 30.792 51.3547 30.792 51.568C30.792 51.8667 30.6853 52.1013 30.472 52.272C30.2587 52.4853 30.0027 52.656 29.704 52.784C29.448 52.912 29.192 52.9973 28.936 53.04C28.68 53.0827 28.5307 53.104 28.488 53.104C28.232 53.104 27.7627 52.3147 27.08 50.736C26.3973 49.2 25.6507 47.024 24.84 44.208C24.072 41.392 23.2827 38.0427 22.472 34.16C21.6613 30.2773 21 26.0107 20.488 21.36C20.4027 22.3413 20.232 23.4933 19.976 24.816C19.7627 26.096 19.4213 27.312 18.952 28.464C18.4827 29.616 17.864 30.5973 17.096 31.408C16.3707 32.176 15.432 32.56 14.28 32.56C13.4693 32.56 12.552 32.1333 11.528 31.28C10.504 30.4267 9.50133 29.424 8.52 28.272C7.58133 27.0773 6.70667 25.8827 5.896 24.688C5.128 23.4507 4.552 22.448 4.168 21.68C4.33867 23.5573 4.616 25.8187 5 28.464C5.42667 31.1093 6.06667 33.904 6.92 36.848C7.00533 37.1467 7.09067 37.3813 7.176 37.552C7.304 37.68 7.41067 37.8293 7.496 38C7.624 38.1707 7.70933 38.3627 7.752 38.576C7.83733 38.7467 7.88 39.024 7.88 39.408C7.88 39.9627 7.66667 40.368 7.24 40.624C6.81333 40.88 6.408 41.008 6.024 41.008C5.81067 41.008 5.53333 40.688 5.192 40.048C4.85067 39.3653 4.488 38.4907 4.104 37.424C3.72 36.3573 3.336 35.184 2.952 33.904C2.568 32.5813 2.20533 31.28 1.864 30C1.56533 28.72 1.30933 27.5253 1.096 26.416C0.882667 25.264 0.776 24.3467 0.776 23.664C0.776 22.5547 0.818667 21.7867 0.904 21.36C1.032 20.9333 1.20267 20.6133 1.416 20.4V16.496C1.416 15.8987 1.56533 15.4507 1.864 15.152C2.20533 14.8107 2.632 14.64 3.144 14.64C3.57067 14.64 4.06133 15.0027 4.616 15.728C5.17067 16.4533 5.768 17.3707 6.408 18.48C7.09067 19.5893 7.79467 20.784 8.52 22.064C9.24533 23.344 9.94933 24.5387 10.632 25.648C11.3573 26.7573 12.04 27.6747 12.68 28.4C13.3627 29.1253 14.0027 29.488 14.6 29.488C15.1547 29.488 15.688 28.976 16.2 27.952C16.712 26.8853 17.1813 25.4987 17.608 23.792C18.0773 22.0853 18.4827 20.144 18.824 17.968C19.1653 15.792 19.4427 13.5733 19.656 11.312C19.656 11.056 19.6347 10.7787 19.592 10.48C19.5493 10.1387 19.528 9.776 19.528 9.392C19.528 8.88 19.6347 8.32533 19.848 7.728C20.104 7.13066 20.5733 6.832 21.256 6.832C21.64 6.832 21.9387 6.93866 22.152 7.152C22.408 7.36533 22.5787 7.64266 22.664 7.984C22.7493 8.28267 22.792 8.60266 22.792 8.944C22.8347 9.24266 22.856 9.49866 22.856 9.712C22.856 10.0533 22.8133 10.6293 22.728 11.44C22.6853 12.208 22.664 13.4027 22.664 15.024C22.664 16.432 22.7707 18.0747 22.984 19.952C23.1973 21.7867 23.4747 23.7493 23.816 25.84C24.2 27.888 24.6267 30.0213 25.096 32.24C25.608 34.416 26.1413 36.5493 26.696 38.64C27.2933 40.7307 27.8693 42.7147 28.424 44.592C29.0213 46.4267 29.6187 48.048 30.216 49.456ZM50.1645 39.28C50.2072 39.3653 50.2285 39.4933 50.2285 39.664C50.2285 39.92 50.0365 40.304 49.6525 40.816C49.5245 40.9867 49.2472 41.264 48.8205 41.648C48.3938 42.032 47.8178 42.416 47.0925 42.8C46.3672 43.184 45.4712 43.5253 44.4045 43.824C43.3805 44.1227 42.1645 44.272 40.7565 44.272C39.7752 44.272 38.8152 44.0587 37.8765 43.632C36.9378 43.1627 36.1058 42.5013 35.3805 41.648C34.6552 40.752 34.0578 39.664 33.5885 38.384C33.1192 37.0613 32.8845 35.5253 32.8845 33.776C32.8845 32.112 33.0978 30.5547 33.5245 29.104C33.9512 27.6533 34.4845 26.3733 35.1245 25.264C35.8072 24.1547 36.5538 23.28 37.3645 22.64C38.1752 22 38.9645 21.68 39.7325 21.68C40.4152 21.68 41.0978 21.8293 41.7805 22.128C42.5058 22.384 43.1458 22.7253 43.7005 23.152C44.2978 23.5787 44.7672 24.0693 45.1085 24.624C45.4498 25.136 45.6205 25.6693 45.6205 26.224C45.6205 26.864 45.3218 27.5253 44.7245 28.208C44.1698 28.8907 43.4872 29.5307 42.6765 30.128C41.8658 30.6827 41.0552 31.152 40.2445 31.536C39.4338 31.8773 38.7938 32.048 38.3245 32.048C38.0685 32.048 37.8338 31.9413 37.6205 31.728C37.4498 31.472 37.3645 31.1733 37.3645 30.832C37.3645 30.2347 37.6205 29.7653 38.1325 29.424C38.6872 29.0827 39.2845 28.784 39.9245 28.528C40.5645 28.2293 41.1405 27.888 41.6525 27.504C42.2072 27.12 42.4845 26.5867 42.4845 25.904C42.4845 25.8187 42.3778 25.6053 42.1645 25.264C41.9512 24.9227 41.3752 24.752 40.4365 24.752C40.0098 24.752 39.5192 25.008 38.9645 25.52C38.4098 25.9893 37.8765 26.6507 37.3645 27.504C36.8525 28.3147 36.4258 29.296 36.0845 30.448C35.7432 31.5573 35.5725 32.7733 35.5725 34.096C35.5725 35.2053 35.7645 36.208 36.1485 37.104C36.5752 38 37.1085 38.768 37.7485 39.408C38.3885 40.0053 39.1352 40.4747 39.9885 40.816C40.8418 41.1573 41.7165 41.328 42.6125 41.328C43.2525 41.328 43.9352 41.2 44.6605 40.944C45.4285 40.6453 46.1325 40.3467 46.7725 40.048C47.4552 39.7067 48.0312 39.408 48.5005 39.152C49.0125 38.8533 49.3325 38.704 49.4605 38.704C49.5885 38.704 49.7165 38.768 49.8445 38.896C50.0152 39.024 50.1218 39.152 50.1645 39.28ZM73.885 38.128C73.885 38.384 73.7997 38.64 73.629 38.896C73.4583 39.152 73.245 39.3867 72.989 39.6C72.7757 39.8133 72.5197 40.0053 72.221 40.176C71.965 40.304 71.7303 40.368 71.517 40.368C70.7917 40.368 69.853 40.2187 68.701 39.92C67.5917 39.5787 66.6957 39.0667 66.013 38.384C65.2877 37.6587 64.6477 36.8053 64.093 35.824C63.5383 34.8 62.9197 33.3067 62.237 31.344C61.7677 33.2213 61.213 35.0773 60.573 36.912C59.9757 38.7467 58.9943 40.432 57.629 41.968C57.5437 42.0533 57.4157 42.096 57.245 42.096C56.9463 42.096 56.6263 41.9467 56.285 41.648C55.9437 41.3493 55.773 41.0507 55.773 40.752C55.773 40.4533 55.7303 39.7707 55.645 38.704C55.6023 37.5947 55.5383 36.3787 55.453 35.056C55.3677 33.6907 55.2823 32.3253 55.197 30.96C55.1543 29.552 55.133 28.4 55.133 27.504C55.133 27.0773 55.1543 26.5227 55.197 25.84C55.2397 25.1147 55.3677 24.496 55.581 23.984C55.6237 23.8987 55.773 23.728 56.029 23.472C56.3277 23.216 56.6477 23.088 56.989 23.088C57.2877 23.088 57.4583 23.28 57.501 23.664C57.5437 24.048 57.565 24.4747 57.565 24.944V35.056C57.565 35.2693 57.5863 35.568 57.629 35.952C57.7143 36.336 57.821 36.6133 57.949 36.784C58.4183 35.76 58.845 34.5653 59.229 33.2C59.6557 31.792 60.061 30.4693 60.445 29.232C60.829 27.952 61.213 26.8853 61.597 26.032C61.981 25.136 62.365 24.688 62.749 24.688C63.1757 24.688 63.517 24.7733 63.773 24.944C64.029 25.1147 64.2423 25.456 64.413 25.968C64.6263 27.2053 64.797 28.3147 64.925 29.296C65.053 30.2347 65.2023 31.088 65.373 31.856C65.5863 32.624 65.8637 33.3493 66.205 34.032C66.589 34.672 67.101 35.2693 67.741 35.824C68.3383 36.3787 68.9997 36.784 69.725 37.04C70.493 37.296 71.1543 37.424 71.709 37.424C71.965 37.424 72.2423 37.3813 72.541 37.296C72.8397 37.168 73.053 37.104 73.181 37.104C73.3517 37.104 73.501 37.2533 73.629 37.552C73.7997 37.8507 73.885 38.0427 73.885 38.128ZM94.145 17.072C93.5903 17.712 92.801 18.352 91.777 18.992C90.753 19.5893 89.729 20.144 88.705 20.656C87.681 21.168 86.785 21.616 86.017 22C85.249 22.3413 84.865 22.576 84.865 22.704C84.865 22.832 84.9503 23.216 85.121 23.856C85.2917 24.496 85.4837 25.264 85.697 26.16C85.953 27.0133 86.209 27.9093 86.465 28.848C86.721 29.7867 86.9343 30.6187 87.105 31.344C87.1903 31.7707 87.297 32.3253 87.425 33.008C87.553 33.6907 87.6597 34.3733 87.745 35.056C87.873 35.7387 87.9797 36.3573 88.065 36.912C88.1503 37.424 88.193 37.7013 88.193 37.744C88.193 38.384 88.0863 39.0453 87.873 39.728C87.6597 40.4107 87.3183 40.752 86.849 40.752C86.593 40.752 86.3583 40.6453 86.145 40.432C85.9317 40.2187 85.7397 39.984 85.569 39.728C85.3983 39.4293 85.2703 39.152 85.185 38.896C85.0997 38.64 85.057 38.448 85.057 38.32C85.057 38.2347 85.057 38.1067 85.057 37.936C85.0997 37.7653 85.121 37.5733 85.121 37.36C85.121 36.5493 84.993 35.376 84.737 33.84C84.6517 33.3707 84.481 32.6453 84.225 31.664C83.969 30.6827 83.713 29.68 83.457 28.656C83.1583 27.4613 82.817 26.16 82.433 24.752C82.2623 24.1547 82.1557 23.856 82.113 23.856C81.8143 23.856 81.3023 24.048 80.577 24.432C79.8943 24.7733 79.105 25.2213 78.209 25.776C77.313 26.288 76.3743 26.864 75.393 27.504C74.4117 28.1013 73.4943 28.6773 72.641 29.232C71.7877 29.744 71.0623 30.192 70.465 30.576C69.825 30.9173 69.441 31.088 69.313 31.088C68.7583 31.088 68.3103 30.896 67.969 30.512C67.6277 30.128 67.457 29.7013 67.457 29.232C67.457 28.976 67.8197 28.6133 68.545 28.144C69.2277 27.632 70.1023 27.0773 71.169 26.48C72.193 25.8827 73.3237 25.264 74.561 24.624C75.7557 23.984 76.865 23.408 77.889 22.896C78.9557 22.384 79.8303 21.9573 80.513 21.616C81.2383 21.2747 81.601 21.104 81.601 21.104C81.217 19.1413 80.897 17.392 80.641 15.856C80.4277 14.5333 80.2143 13.3173 80.001 12.208C79.8303 11.0987 79.745 10.5013 79.745 10.416C79.745 9.86133 79.8517 9.456 80.065 9.2C80.321 8.90133 80.5983 8.752 80.897 8.752C81.3663 8.752 81.665 9.072 81.793 9.712C82.2623 12.016 82.689 14.064 83.073 15.856C83.4997 17.648 83.905 19.0987 84.289 20.208C84.673 20.1227 85.3343 19.888 86.273 19.504C87.2117 19.0773 88.193 18.6293 89.217 18.16C90.241 17.6907 91.1583 17.2853 91.969 16.944C92.8223 16.56 93.313 16.368 93.441 16.368C93.697 16.368 93.8463 16.4533 93.889 16.624C93.9743 16.7947 94.0597 16.944 94.145 17.072ZM109.079 32.176C109.079 33.1147 108.951 34.0107 108.695 34.864C108.439 35.7173 108.097 36.464 107.671 37.104C107.244 37.744 106.732 38.256 106.135 38.64C105.58 38.9813 104.961 39.152 104.279 39.152C103.084 39.152 102.145 38.8107 101.463 38.128C100.78 37.4453 100.247 36.656 99.8625 35.76C99.5212 34.864 99.2865 33.968 99.1585 33.072C99.0732 32.1333 99.0305 31.4293 99.0305 30.96C99.0305 30.192 99.1372 29.3387 99.3505 28.4C99.6065 27.4187 99.9265 26.5227 100.311 25.712C100.737 24.9013 101.207 24.2187 101.719 23.664C102.231 23.1093 102.764 22.832 103.319 22.832C103.447 22.832 103.639 22.8747 103.895 22.96C104.193 23.0453 104.492 23.1733 104.791 23.344C105.089 23.5147 105.345 23.728 105.559 23.984C105.815 24.24 105.985 24.5387 106.071 24.88C106.54 24.9227 107.009 25.0933 107.479 25.392C107.948 25.6907 108.204 25.9253 108.247 26.096C108.588 27.2053 108.801 28.3147 108.887 29.424C109.015 30.5333 109.079 31.4507 109.079 32.176ZM106.199 31.024C106.199 30.384 106.135 29.7227 106.007 29.04C105.879 28.3147 105.623 27.5893 105.239 26.864C105.153 26.9067 105.047 26.928 104.919 26.928C104.748 26.928 104.599 26.9067 104.47 26.864C104.385 26.8213 104.3 26.8 104.215 26.8C103.703 26.8 103.297 26.9493 102.999 27.248C102.7 27.504 102.465 27.8667 102.295 28.336C102.167 28.7627 102.081 29.232 102.039 29.744C101.996 30.256 101.975 30.7467 101.975 31.216C101.975 31.6853 101.996 32.2187 102.039 32.816C102.081 33.3707 102.167 33.904 102.295 34.416C102.465 34.928 102.679 35.376 102.935 35.76C103.191 36.1013 103.532 36.272 103.959 36.272C104.385 36.272 104.748 36.0587 105.047 35.632C105.345 35.1627 105.58 34.6293 105.751 34.032C105.921 33.4347 106.028 32.8587 106.071 32.304C106.156 31.7067 106.199 31.28 106.199 31.024ZM130.664 26.48C130.664 26.7787 130.536 27.0347 130.28 27.248C130.024 27.4187 129.725 27.568 129.384 27.696C129.043 27.824 128.701 27.9307 128.36 28.016C128.019 28.0587 127.741 28.08 127.528 28.08C126.888 28.08 126.461 28.0373 126.248 27.952C126.035 27.8667 125.864 27.824 125.736 27.824C124.669 27.824 123.816 27.9093 123.176 28.08C122.536 28.2507 122.024 28.528 121.64 28.912C121.299 29.296 121.064 29.7867 120.936 30.384C120.851 30.9387 120.808 31.6213 120.808 32.432C120.808 33.7973 120.851 34.8853 120.936 35.696C121.064 36.5067 121.171 37.168 121.256 37.68C121.384 38.192 121.491 38.5973 121.576 38.896C121.704 39.152 121.768 39.408 121.768 39.664C121.768 40.0053 121.576 40.368 121.192 40.752C120.851 41.136 120.531 41.328 120.232 41.328C119.72 41.328 119.251 40.88 118.824 39.984C118.44 39.0453 118.099 37.9573 117.8 36.72C117.544 35.44 117.331 34.1813 117.16 32.944C116.989 31.7067 116.904 30.768 116.904 30.128C116.904 29.4027 116.968 28.72 117.096 28.08C117.224 27.3973 117.395 26.8213 117.608 26.352C117.821 25.84 118.056 25.4347 118.312 25.136C118.568 24.8373 118.824 24.688 119.08 24.688C119.293 24.688 119.464 24.7733 119.592 24.944C119.72 25.072 119.827 25.2427 119.912 25.456C119.997 25.6267 120.083 25.7973 120.168 25.968C120.296 26.096 120.445 26.16 120.616 26.16C121 26.16 121.619 25.968 122.472 25.584C123.325 25.2 124.371 25.008 125.608 25.008C126.76 25.008 127.613 25.0507 128.168 25.136C128.765 25.1787 129.341 25.3067 129.896 25.52C130.024 25.5627 130.173 25.6693 130.344 25.84C130.557 25.968 130.664 26.1813 130.664 26.48ZM166.21 32.688C166.21 33.456 165.847 34.416 165.122 35.568C164.439 36.6773 163.501 37.7653 162.306 38.832C161.111 39.8987 159.725 40.816 158.146 41.584C156.567 42.3093 154.925 42.672 153.218 42.672C152.45 42.672 151.639 42.544 150.786 42.288C149.933 42.032 149.101 41.6693 148.29 41.2C147.479 40.688 146.754 40.0907 146.114 39.408C145.474 38.6827 145.005 37.872 144.706 36.976C144.45 37.232 144.13 37.6587 143.746 38.256C143.405 38.8533 143.021 39.472 142.594 40.112C142.167 40.7093 141.698 41.2427 141.186 41.712C140.674 42.1387 140.141 42.352 139.586 42.352C139.031 42.352 138.562 42.0747 138.178 41.52C137.837 40.9227 137.559 40.2827 137.346 39.6C137.133 38.8747 136.983 38.192 136.898 37.552C136.813 36.912 136.77 36.5493 136.77 36.464C136.77 35.952 136.919 34.992 137.218 33.584C137.517 32.1333 137.965 30.64 138.562 29.104C139.159 27.568 139.906 26.2027 140.802 25.008C141.741 23.8133 142.829 23.216 144.066 23.216C144.535 23.216 144.834 23.4293 144.962 23.856C145.133 24.24 145.218 24.624 145.218 25.008V26.928C145.431 27.0987 145.645 27.2267 145.858 27.312C146.114 27.3547 146.327 27.44 146.498 27.568C146.711 27.6533 146.861 27.8027 146.946 28.016C147.074 28.2293 147.138 28.5707 147.138 29.04C147.138 29.3387 147.117 29.616 147.074 29.872C147.031 30.0853 147.01 30.2987 147.01 30.512C147.01 31.6213 147.095 32.7093 147.266 33.776C147.437 34.8427 147.778 35.8027 148.29 36.656C148.802 37.4667 149.506 38.1493 150.402 38.704C151.298 39.216 152.493 39.472 153.986 39.472C155.863 39.472 157.442 39.088 158.722 38.32C160.045 37.5093 161.133 36.6347 161.986 35.696C162.882 34.7147 163.586 33.84 164.098 33.072C164.61 32.2613 165.037 31.856 165.378 31.856C165.933 31.856 166.21 32.1333 166.21 32.688ZM143.746 29.872C143.746 29.7013 143.703 29.552 143.618 29.424C143.533 29.2533 143.49 29.104 143.49 28.976C143.49 28.8053 143.533 28.656 143.618 28.528C143.703 28.4 143.746 28.2293 143.746 28.016C143.746 27.888 143.703 27.8027 143.618 27.76C143.533 27.6747 143.49 27.5893 143.49 27.504C143.106 27.5893 142.701 27.952 142.274 28.592C141.89 29.232 141.506 29.9787 141.122 30.832C140.781 31.6853 140.503 32.56 140.29 33.456C140.077 34.3093 139.97 35.0133 139.97 35.568C139.97 35.8667 140.055 36.3573 140.226 37.04C140.397 37.7227 140.589 38.1707 140.802 38.384C141.527 36.8907 142.189 35.44 142.786 34.032C143.426 32.624 143.746 31.2373 143.746 29.872ZM186.198 38.128C186.198 38.384 186.112 38.64 185.942 38.896C185.771 39.152 185.558 39.3867 185.302 39.6C185.088 39.8133 184.832 40.0053 184.534 40.176C184.278 40.304 184.043 40.368 183.83 40.368C183.104 40.368 182.166 40.2187 181.014 39.92C179.904 39.5787 179.008 39.0667 178.326 38.384C177.6 37.6587 176.96 36.8053 176.406 35.824C175.851 34.8 175.232 33.3067 174.55 31.344C174.08 33.2213 173.525 35.0773 172.885 36.912C172.288 38.7467 171.307 40.432 169.942 41.968C169.856 42.0533 169.728 42.096 169.558 42.096C169.259 42.096 168.939 41.9467 168.598 41.648C168.256 41.3493 168.086 41.0507 168.086 40.752C168.086 40.4533 168.043 39.7707 167.958 38.704C167.915 37.5947 167.851 36.3787 167.766 35.056C167.68 33.6907 167.595 32.3253 167.51 30.96C167.467 29.552 167.446 28.4 167.446 27.504C167.446 27.0773 167.467 26.5227 167.51 25.84C167.552 25.1147 167.68 24.496 167.894 23.984C167.936 23.8987 168.086 23.728 168.342 23.472C168.64 23.216 168.96 23.088 169.302 23.088C169.6 23.088 169.771 23.28 169.814 23.664C169.856 24.048 169.878 24.4747 169.878 24.944V35.056C169.878 35.2693 169.899 35.568 169.942 35.952C170.027 36.336 170.134 36.6133 170.262 36.784C170.731 35.76 171.158 34.5653 171.542 33.2C171.968 31.792 172.374 30.4693 172.758 29.232C173.142 27.952 173.526 26.8853 173.91 26.032C174.294 25.136 174.678 24.688 175.062 24.688C175.488 24.688 175.83 24.7733 176.086 24.944C176.342 25.1147 176.555 25.456 176.726 25.968C176.939 27.2053 177.11 28.3147 177.238 29.296C177.366 30.2347 177.515 31.088 177.686 31.856C177.899 32.624 178.176 33.3493 178.518 34.032C178.902 34.672 179.414 35.2693 180.054 35.824C180.651 36.3787 181.312 36.784 182.038 37.04C182.806 37.296 183.467 37.424 184.022 37.424C184.278 37.424 184.555 37.3813 184.854 37.296C185.152 37.168 185.366 37.104 185.494 37.104C185.664 37.104 185.814 37.2533 185.942 37.552C186.112 37.8507 186.198 38.0427 186.198 38.128ZM207.61 35.696C207.61 35.9093 207.503 36.1227 207.29 36.336C207.119 36.5067 207.012 36.6987 206.97 36.912C206.97 37.3813 207.055 37.8293 207.226 38.256C207.439 38.6827 207.546 39.1947 207.546 39.792C207.546 40.3467 207.375 40.624 207.034 40.624C206.607 40.624 206.287 40.688 206.074 40.816C205.903 40.9013 205.583 40.9867 205.114 41.072C204.858 41.072 204.58 40.8373 204.282 40.368C204.111 40.1547 203.962 39.8987 203.833 39.6C203.833 39.5573 203.706 39.6427 203.45 39.856C203.236 40.0693 202.852 40.3253 202.298 40.624C201.786 40.88 201.06 41.136 200.122 41.392C199.226 41.6053 198.074 41.712 196.666 41.712C195.471 41.712 194.426 41.456 193.53 40.944C192.634 40.3893 191.887 39.6853 191.29 38.832C190.735 37.9787 190.308 37.0187 190.01 35.952C189.754 34.8427 189.626 33.7333 189.626 32.624C189.626 31.6 189.732 30.64 189.946 29.744C190.202 28.8053 190.543 27.9947 190.97 27.312C191.396 26.5867 191.93 26.0107 192.57 25.584C193.21 25.1573 193.956 24.944 194.81 24.944C195.62 24.944 196.431 25.2 197.242 25.712C198.052 26.224 198.778 26.7787 199.418 27.376C200.058 27.9733 200.57 28.528 200.954 29.04C201.38 29.5093 201.594 29.744 201.594 29.744C200.996 26.416 200.463 23.408 199.994 20.72C199.78 19.568 199.567 18.4373 199.354 17.328C199.183 16.176 199.012 15.152 198.842 14.256C198.671 13.36 198.522 12.6133 198.394 12.016C198.308 11.376 198.266 10.992 198.266 10.864C198.223 10.608 198.18 10.16 198.138 9.52C198.095 8.83733 198.052 8.13333 198.01 7.408C197.967 6.68267 197.924 6.02133 197.882 5.424C197.839 4.82667 197.796 4.44267 197.754 4.272C197.626 3.84533 197.455 3.312 197.242 2.672C197.071 2.032 196.986 1.66933 196.986 1.584C196.986 1.37066 197.092 1.11466 197.306 0.815998C197.519 0.474664 197.796 0.303997 198.138 0.303997C198.394 0.303997 198.628 0.32533 198.842 0.367996C199.055 0.410665 199.247 0.538666 199.418 0.751999C199.588 0.965332 199.738 1.30666 199.866 1.776C200.036 2.20266 200.186 2.82133 200.314 3.632C200.356 4.05866 200.484 4.86933 200.698 6.064C200.911 7.25867 201.124 8.56 201.338 9.968C201.551 11.376 201.764 12.72 201.978 14C202.191 15.28 202.34 16.2187 202.426 16.816C202.639 18.4373 202.916 20.208 203.258 22.128C203.642 24.0053 204.025 25.8187 204.41 27.568C204.794 29.3173 205.178 30.8747 205.562 32.24C205.946 33.5627 206.287 34.4587 206.586 34.928C206.671 35.0987 206.842 35.2267 207.098 35.312C207.354 35.3547 207.524 35.4827 207.61 35.696ZM202.874 36.976C202.831 36.848 202.554 36.3147 202.042 35.376C201.572 34.3947 200.954 33.3493 200.186 32.24C199.46 31.088 198.628 30.064 197.69 29.168C196.794 28.272 195.919 27.824 195.066 27.824C194.34 27.824 193.743 28.3787 193.274 29.488C192.847 30.5973 192.634 31.8773 192.634 33.328C192.634 34.9493 193.103 36.2507 194.042 37.232C195.023 38.2133 196.111 38.704 197.306 38.704C198.33 38.704 199.396 38.5333 200.506 38.192C201.615 37.8507 202.404 37.4453 202.874 36.976ZM224.016 32.176C224.016 33.1147 223.888 34.0107 223.632 34.864C223.376 35.7173 223.035 36.464 222.608 37.104C222.181 37.744 221.669 38.256 221.072 38.64C220.517 38.9813 219.899 39.152 219.216 39.152C218.021 39.152 217.083 38.8107 216.4 38.128C215.717 37.4453 215.184 36.656 214.8 35.76C214.459 34.864 214.224 33.968 214.096 33.072C214.011 32.1333 213.968 31.4293 213.968 30.96C213.968 30.192 214.075 29.3387 214.288 28.4C214.544 27.4187 214.864 26.5227 215.248 25.712C215.675 24.9013 216.144 24.2187 216.656 23.664C217.168 23.1093 217.701 22.832 218.256 22.832C218.384 22.832 218.576 22.8747 218.832 22.96C219.131 23.0453 219.429 23.1733 219.728 23.344C220.027 23.5147 220.283 23.728 220.496 23.984C220.752 24.24 220.923 24.5387 221.008 24.88C221.477 24.9227 221.947 25.0933 222.416 25.392C222.885 25.6907 223.141 25.9253 223.184 26.096C223.525 27.2053 223.739 28.3147 223.824 29.424C223.952 30.5333 224.016 31.4507 224.016 32.176ZM221.136 31.024C221.136 30.384 221.072 29.7227 220.944 29.04C220.816 28.3147 220.56 27.5893 220.176 26.864C220.091 26.9067 219.984 26.928 219.856 26.928C219.685 26.928 219.536 26.9067 219.408 26.864C219.323 26.8213 219.237 26.8 219.152 26.8C218.64 26.8 218.235 26.9493 217.936 27.248C217.637 27.504 217.403 27.8667 217.232 28.336C217.104 28.7627 217.019 29.232 216.976 29.744C216.933 30.256 216.912 30.7467 216.912 31.216C216.912 31.6853 216.933 32.2187 216.976 32.816C217.019 33.3707 217.104 33.904 217.232 34.416C217.403 34.928 217.616 35.376 217.872 35.76C218.128 36.1013 218.469 36.272 218.896 36.272C219.323 36.272 219.685 36.0587 219.984 35.632C220.283 35.1627 220.517 34.6293 220.688 34.032C220.859 33.4347 220.965 32.8587 221.008 32.304C221.093 31.7067 221.136 31.28 221.136 31.024Z" fill="white"/>
</svg>
